# Blender 3.5.1
# www.blender.org
mtllib torso.mtl
o Untitled
v -0.450000 -0.461539 0.030769
v -0.450000 -0.461539 -0.069231
v -0.450000 0.438461 0.030769
v -0.450000 0.438461 -0.069231
v -0.350000 -0.361539 -0.069231
v -0.350000 -0.361539 -0.169231
v -0.350000 -0.261539 0.130769
v -0.350000 -0.261539 0.030769
v -0.350000 0.338461 0.130769
v -0.350000 0.338461 0.030769
v -0.350000 0.438461 0.030769
v -0.350000 0.438461 -0.069231
v -0.350000 0.538461 0.030769
v -0.350000 0.538461 -0.169231
v -0.250000 -0.461539 -0.069231
v -0.250000 -0.461539 -0.169231
v -0.250000 -0.361539 0.130769
v -0.250000 -0.361539 0.030769
v -0.250000 -0.361539 -0.069231
v -0.250000 -0.361539 -0.169231
v -0.250000 -0.261539 0.130769
v -0.250000 -0.261539 0.030769
v -0.250000 0.338461 0.130769
v -0.250000 0.338461 0.030769
v -0.250000 0.438461 0.130769
v -0.250000 0.438461 0.030769
v 0.250000 -0.461539 -0.069231
v 0.250000 -0.461539 -0.169231
v 0.250000 -0.361539 0.130769
v 0.250000 -0.361539 0.030769
v 0.250000 -0.361539 -0.069231
v 0.250000 -0.361539 -0.169231
v 0.250000 -0.261539 0.130769
v 0.250000 -0.261539 0.030769
v 0.250000 0.338461 0.130769
v 0.250000 0.338461 0.030769
v 0.250000 0.438461 0.130769
v 0.250000 0.438461 0.030769
v 0.350000 -0.361539 -0.069231
v 0.350000 -0.361539 -0.169231
v 0.350000 -0.261539 0.130769
v 0.350000 -0.261539 0.030769
v 0.350000 0.338461 0.130769
v 0.350000 0.338461 0.030769
v 0.350000 0.438461 0.030769
v 0.350000 0.438461 -0.069231
v 0.350000 0.538461 0.030769
v 0.350000 0.538461 -0.169231
v 0.450000 -0.461539 0.030769
v 0.450000 -0.461539 -0.069231
v 0.450000 0.438461 0.030769
v 0.450000 0.438461 -0.069231
v -0.350000 -0.261539 0.130769
v -0.350000 0.338461 0.130769
v -0.250000 -0.361539 0.130769
v -0.250000 -0.261539 0.130769
v -0.250000 0.338461 0.130769
v -0.250000 0.438461 0.130769
v 0.250000 -0.361539 0.130769
v 0.250000 -0.261539 0.130769
v 0.250000 0.338461 0.130769
v 0.250000 0.438461 0.130769
v 0.350000 -0.261539 0.130769
v 0.350000 0.338461 0.130769
v -0.450000 -0.461539 0.030769
v -0.450000 0.438461 0.030769
v -0.350000 -0.261539 0.030769
v -0.350000 0.338461 0.030769
v -0.350000 0.438461 0.030769
v -0.350000 0.538461 0.030769
v -0.250000 -0.361539 0.030769
v -0.250000 -0.261539 0.030769
v -0.250000 0.338461 0.030769
v -0.250000 0.438461 0.030769
v 0.250000 -0.361539 0.030769
v 0.250000 -0.261539 0.030769
v 0.250000 0.338461 0.030769
v 0.250000 0.438461 0.030769
v 0.350000 -0.261539 0.030769
v 0.350000 0.338461 0.030769
v 0.350000 0.438461 0.030769
v 0.350000 0.538461 0.030769
v 0.450000 -0.461539 0.030769
v 0.450000 0.438461 0.030769
v -0.450000 -0.461539 -0.069231
v -0.450000 0.438461 -0.069231
v -0.350000 -0.361539 -0.069231
v -0.350000 0.438461 -0.069231
v -0.250000 -0.461539 -0.069231
v -0.250000 -0.361539 -0.069231
v 0.250000 -0.461539 -0.069231
v 0.250000 -0.361539 -0.069231
v 0.350000 -0.361539 -0.069231
v 0.350000 0.438461 -0.069231
v 0.450000 -0.461539 -0.069231
v 0.450000 0.438461 -0.069231
v -0.350000 -0.361539 -0.169231
v -0.350000 0.538461 -0.169231
v -0.250000 -0.461539 -0.169231
v -0.250000 -0.361539 -0.169231
v 0.250000 -0.461539 -0.169231
v 0.250000 -0.361539 -0.169231
v 0.350000 -0.361539 -0.169231
v 0.350000 0.538461 -0.169231
v -0.450000 -0.461539 0.030769
v 0.450000 -0.461539 0.030769
v -0.450000 -0.461539 -0.069231
v -0.250000 -0.461539 -0.069231
v 0.250000 -0.461539 -0.069231
v 0.450000 -0.461539 -0.069231
v -0.250000 -0.461539 -0.169231
v 0.250000 -0.461539 -0.169231
v -0.250000 -0.361539 0.130769
v 0.250000 -0.361539 0.130769
v -0.250000 -0.361539 0.030769
v 0.250000 -0.361539 0.030769
v -0.350000 -0.361539 -0.069231
v -0.250000 -0.361539 -0.069231
v 0.250000 -0.361539 -0.069231
v 0.350000 -0.361539 -0.069231
v -0.350000 -0.361539 -0.169231
v -0.250000 -0.361539 -0.169231
v 0.250000 -0.361539 -0.169231
v 0.350000 -0.361539 -0.169231
v -0.350000 -0.261539 0.130769
v -0.250000 -0.261539 0.130769
v 0.250000 -0.261539 0.130769
v 0.350000 -0.261539 0.130769
v -0.350000 -0.261539 0.030769
v -0.250000 -0.261539 0.030769
v 0.250000 -0.261539 0.030769
v 0.350000 -0.261539 0.030769
v -0.350000 0.338461 0.130769
v -0.250000 0.338461 0.130769
v 0.250000 0.338461 0.130769
v 0.350000 0.338461 0.130769
v -0.350000 0.338461 0.030769
v -0.250000 0.338461 0.030769
v 0.250000 0.338461 0.030769
v 0.350000 0.338461 0.030769
v -0.250000 0.438461 0.130769
v 0.250000 0.438461 0.130769
v -0.450000 0.438461 0.030769
v -0.350000 0.438461 0.030769
v -0.250000 0.438461 0.030769
v 0.250000 0.438461 0.030769
v 0.350000 0.438461 0.030769
v 0.450000 0.438461 0.030769
v -0.450000 0.438461 -0.069231
v -0.350000 0.438461 -0.069231
v 0.350000 0.438461 -0.069231
v 0.450000 0.438461 -0.069231
v -0.350000 0.538461 0.030769
v 0.350000 0.538461 0.030769
v -0.350000 0.538461 -0.169231
v 0.350000 0.538461 -0.169231
vn -1.0000 -0.0000 -0.0000
vn 1.0000 -0.0000 -0.0000
vn -0.0000 -0.0000 1.0000
vn -0.0000 -0.0000 -1.0000
vn -0.0000 -1.0000 -0.0000
vn -0.0000 1.0000 -0.0000
vt 0.974609 0.500000
vt 0.974609 0.500000
vt 0.974609 0.500000
vt 0.974609 0.500000
vt 0.974609 0.500000
vt 0.974609 0.500000
vt 0.974609 0.500000
vt 0.974609 0.500000
vt 0.974609 0.500000
vt 0.974609 0.500000
vt 0.974609 0.500000
vt 0.974609 0.500000
vt 0.974609 0.500000
vt 0.974609 0.500000
vt 0.974609 0.500000
vt 0.974609 0.500000
vt 0.974609 0.500000
vt 0.974609 0.500000
vt 0.974609 0.500000
vt 0.974609 0.500000
vt 0.974609 0.500000
vt 0.974609 0.500000
vt 0.974609 0.500000
vt 0.974609 0.500000
vt 0.974609 0.500000
vt 0.974609 0.500000
vt 0.974609 0.500000
vt 0.974609 0.500000
vt 0.974609 0.500000
vt 0.974609 0.500000
vt 0.974609 0.500000
vt 0.974609 0.500000
vt 0.974609 0.500000
vt 0.974609 0.500000
vt 0.974609 0.500000
vt 0.974609 0.500000
vt 0.974609 0.500000
vt 0.974609 0.500000
vt 0.974609 0.500000
vt 0.974609 0.500000
vt 0.974609 0.500000
vt 0.974609 0.500000
vt 0.974609 0.500000
vt 0.974609 0.500000
vt 0.974609 0.500000
vt 0.974609 0.500000
vt 0.974609 0.500000
vt 0.974609 0.500000
vt 0.974609 0.500000
vt 0.974609 0.500000
vt 0.974609 0.500000
vt 0.974609 0.500000
vt 0.974609 0.500000
vt 0.974609 0.500000
vt 0.974609 0.500000
vt 0.974609 0.500000
vt 0.974609 0.500000
vt 0.974609 0.500000
vt 0.974609 0.500000
vt 0.974609 0.500000
vt 0.974609 0.500000
vt 0.974609 0.500000
vt 0.974609 0.500000
vt 0.974609 0.500000
vt 0.974609 0.500000
vt 0.974609 0.500000
vt 0.974609 0.500000
vt 0.974609 0.500000
vt 0.974609 0.500000
vt 0.974609 0.500000
vt 0.974609 0.500000
vt 0.974609 0.500000
vt 0.974609 0.500000
vt 0.974609 0.500000
vt 0.974609 0.500000
vt 0.974609 0.500000
vt 0.974609 0.500000
vt 0.974609 0.500000
vt 0.974609 0.500000
vt 0.974609 0.500000
vt 0.974609 0.500000
vt 0.974609 0.500000
vt 0.974609 0.500000
vt 0.974609 0.500000
vt 0.974609 0.500000
vt 0.974609 0.500000
vt 0.974609 0.500000
vt 0.974609 0.500000
vt 0.974609 0.500000
vt 0.974609 0.500000
vt 0.974609 0.500000
vt 0.974609 0.500000
vt 0.974609 0.500000
vt 0.974609 0.500000
vt 0.974609 0.500000
vt 0.974609 0.500000
vt 0.974609 0.500000
vt 0.974609 0.500000
vt 0.974609 0.500000
vt 0.974609 0.500000
vt 0.974609 0.500000
vt 0.974609 0.500000
vt 0.974609 0.500000
vt 0.974609 0.500000
vt 0.974609 0.500000
vt 0.974609 0.500000
vt 0.974609 0.500000
vt 0.974609 0.500000
vt 0.974609 0.500000
vt 0.974609 0.500000
vt 0.974609 0.500000
vt 0.974609 0.500000
vt 0.974609 0.500000
vt 0.974609 0.500000
vt 0.974609 0.500000
vt 0.974609 0.500000
vt 0.974609 0.500000
vt 0.974609 0.500000
vt 0.974609 0.500000
vt 0.974609 0.500000
vt 0.974609 0.500000
vt 0.974609 0.500000
vt 0.974609 0.500000
vt 0.974609 0.500000
vt 0.974609 0.500000
vt 0.974609 0.500000
vt 0.974609 0.500000
vt 0.974609 0.500000
vt 0.974609 0.500000
vt 0.974609 0.500000
vt 0.974609 0.500000
vt 0.974609 0.500000
vt 0.974609 0.500000
vt 0.974609 0.500000
vt 0.974609 0.500000
vt 0.974609 0.500000
vt 0.974609 0.500000
vt 0.974609 0.500000
vt 0.974609 0.500000
vt 0.974609 0.500000
vt 0.974609 0.500000
vt 0.974609 0.500000
vt 0.974609 0.500000
vt 0.974609 0.500000
vt 0.974609 0.500000
vt 0.974609 0.500000
vt 0.974609 0.500000
vt 0.974609 0.500000
vt 0.974609 0.500000
vt 0.974609 0.500000
vt 0.974609 0.500000
vt 0.974609 0.500000
vt 0.974609 0.500000
vt 0.974609 0.500000
vt 0.974609 0.500000
vt 0.974609 0.500000
s 0
usemtl palette.004
f 3/3/1 2/2/1 1/1/1
f 4/4/1 2/2/1 3/3/1
f 9/9/1 8/8/1 7/7/1
f 10/10/1 8/8/1 9/9/1
f 12/12/1 6/6/1 5/5/1
f 13/13/1 12/12/1 11/11/1
f 14/14/1 6/6/1 12/12/1
f 14/14/1 12/12/1 13/13/1
f 19/19/1 16/16/1 15/15/1
f 20/20/1 16/16/1 19/19/1
f 21/21/1 18/18/1 17/17/1
f 22/22/1 18/18/1 21/21/1
f 25/25/1 24/24/1 23/23/1
f 26/26/1 24/24/1 25/25/1
f 27/27/2 28/28/2 31/31/2
f 31/31/2 28/28/2 32/32/2
f 29/29/2 30/30/2 33/33/2
f 33/33/2 30/30/2 34/34/2
f 35/35/2 36/36/2 37/37/2
f 37/37/2 36/36/2 38/38/2
f 41/41/2 42/42/2 43/43/2
f 43/43/2 42/42/2 44/44/2
f 39/39/2 40/40/2 46/46/2
f 45/45/2 46/46/2 47/47/2
f 46/46/2 40/40/2 48/48/2
f 47/47/2 46/46/2 48/48/2
f 49/49/2 50/50/2 51/51/2
f 51/51/2 50/50/2 52/52/2
f 56/56/3 54/54/3 53/53/3
f 57/57/3 54/54/3 56/56/3
f 59/59/3 56/56/3 55/55/3
f 59/59/3 58/58/3 57/57/3
f 59/59/3 57/57/3 56/56/3
f 60/60/3 58/58/3 59/59/3
f 61/61/3 58/58/3 60/60/3
f 62/62/3 58/58/3 61/61/3
f 63/63/3 61/61/3 60/60/3
f 64/64/3 61/61/3 63/63/3
f 67/67/3 66/66/3 65/65/3
f 68/68/3 66/66/3 67/67/3
f 69/69/3 66/66/3 68/68/3
f 71/71/3 67/67/3 65/65/3
f 72/72/3 67/67/3 71/71/3
f 73/73/3 70/70/3 69/69/3
f 73/73/3 69/69/3 68/68/3
f 74/74/3 70/70/3 73/73/3
f 75/75/3 71/71/3 65/65/3
f 78/78/3 70/70/3 74/74/3
f 79/79/3 76/76/3 75/75/3
f 80/80/3 78/78/3 77/77/3
f 81/81/3 70/70/3 78/78/3
f 81/81/3 78/78/3 80/80/3
f 82/82/3 70/70/3 81/81/3
f 83/83/3 79/79/3 75/75/3
f 83/83/3 75/75/3 65/65/3
f 83/83/3 81/81/3 80/80/3
f 83/83/3 80/80/3 79/79/3
f 84/84/3 81/81/3 83/83/3
f 85/85/4 86/86/4 87/87/4
f 87/87/4 86/86/4 88/88/4
f 85/85/4 87/87/4 89/89/4
f 89/89/4 87/87/4 90/90/4
f 91/91/4 92/92/4 93/93/4
f 91/91/4 93/93/4 95/95/4
f 93/93/4 94/94/4 95/95/4
f 95/95/4 94/94/4 96/96/4
f 97/97/4 98/98/4 100/100/4
f 99/99/4 100/100/4 101/101/4
f 100/100/4 98/98/4 102/102/4
f 101/101/4 100/100/4 102/102/4
f 102/102/4 98/98/4 103/103/4
f 103/103/4 98/98/4 104/104/4
f 107/107/5 106/106/5 105/105/5
f 108/108/5 106/106/5 107/107/5
f 109/109/5 106/106/5 108/108/5
f 110/110/5 106/106/5 109/109/5
f 111/111/5 109/109/5 108/108/5
f 112/112/5 109/109/5 111/111/5
f 115/115/5 114/114/5 113/113/5
f 116/116/5 114/114/5 115/115/5
f 121/121/5 118/118/5 117/117/5
f 122/122/5 118/118/5 121/121/5
f 123/123/5 120/120/5 119/119/5
f 124/124/5 120/120/5 123/123/5
f 129/129/5 126/126/5 125/125/5
f 130/130/5 126/126/5 129/129/5
f 131/131/5 128/128/5 127/127/5
f 132/132/5 128/128/5 131/131/5
f 133/133/6 134/134/6 137/137/6
f 137/137/6 134/134/6 138/138/6
f 135/135/6 136/136/6 139/139/6
f 139/139/6 136/136/6 140/140/6
f 141/141/6 142/142/6 145/145/6
f 145/145/6 142/142/6 146/146/6
f 143/143/6 144/144/6 149/149/6
f 149/149/6 144/144/6 150/150/6
f 147/147/6 148/148/6 151/151/6
f 151/151/6 148/148/6 152/152/6
f 153/153/6 154/154/6 155/155/6
f 155/155/6 154/154/6 156/156/6
