{
	"asset":{
		"generator":"Khronos glTF Blender I/O v3.5.30",
		"version":"2.0"
	},
	"extensionsUsed":[
		"KHR_materials_specular",
		"KHR_materials_ior"
	],
	"scene":0,
	"scenes":[
		{
			"name":"Scene",
			"nodes":[
				4
			]
		}
	],
	"nodes":[
		{
			"name":"hand",
			"rotation":[
				5.063957586592949e-10,
				3.948479943005623e-08,
				0.003875880502164364,
				0.9999924898147583
			],
			"translation":[
				4.6566125955216364e-10,
				0.48995962738990784,
				1.6653345369377348e-16
			]
		},
		{
			"children":[
				0
			],
			"name":"forearm",
			"rotation":[
				-6.643628980285143e-10,
				1.2717433772735376e-09,
				-0.003875839989632368,
				0.9999924898147583
			],
			"scale":[
				1,
				0.9999999403953552,
				1
			],
			"translation":[
				-1.1893508400362407e-10,
				0.5328432321548462,
				-1.5400385117041225e-16
			]
		},
		{
			"children":[
				1
			],
			"name":"upperarm",
			"rotation":[
				0,
				-1.916142267077703e-08,
				-1.916142267077703e-08,
				1
			],
			"translation":[
				4.356790483939221e-09,
				-0.06456637382507324,
				0
			]
		},
		{
			"mesh":0,
			"name":"hand",
			"skin":0
		},
		{
			"children":[
				3,
				2
			],
			"name":"Armature",
			"rotation":[
				0,
				0,
				-0.7071068286895752,
				0.7071068286895752
			],
			"translation":[
				-0.3760042190551758,
				0.0493742860853672,
				0
			]
		}
	],
	"materials":[
		{
			"doubleSided":true,
			"name":"Material",
			"pbrMetallicRoughness":{
				"baseColorFactor":[
					0.8000000715255737,
					0.6256359815597534,
					0.05939318984746933,
					1
				],
				"metallicFactor":0,
				"roughnessFactor":0.5
			}
		},
		{
			"doubleSided":true,
			"extensions":{
				"KHR_materials_specular":{
					"specularColorFactor":[
						0,
						0,
						0
					]
				},
				"KHR_materials_ior":{
					"ior":1.4500000476837158
				}
			},
			"name":"Material.001",
			"pbrMetallicRoughness":{
				"baseColorFactor":[
					0.04644326865673065,
					0.8000000715255737,
					0.023286249488592148,
					1
				],
				"metallicFactor":0,
				"roughnessFactor":0
			}
		}
	],
	"meshes":[
		{
			"name":"hand",
			"primitives":[
				{
					"attributes":{
						"COLOR_0":0,
						"POSITION":1,
						"NORMAL":2,
						"JOINTS_0":3,
						"WEIGHTS_0":4
					},
					"indices":5,
					"material":0
				},
				{
					"attributes":{
						"COLOR_0":6,
						"POSITION":7,
						"NORMAL":8,
						"JOINTS_0":9,
						"WEIGHTS_0":10
					},
					"indices":11,
					"material":1
				}
			]
		}
	],
	"skins":[
		{
			"inverseBindMatrices":12,
			"joints":[
				2,
				1,
				0
			],
			"name":"Armature"
		}
	],
	"accessors":[
		{
			"bufferView":0,
			"componentType":5123,
			"count":80,
			"normalized":true,
			"type":"VEC4"
		},
		{
			"bufferView":1,
			"componentType":5126,
			"count":80,
			"max":[
				0.7928600311279297,
				0.19620198011398315,
				0.10000000149011612
			],
			"min":[
				0.5928599834442139,
				-0.1037980243563652,
				-0.20000000298023224
			],
			"type":"VEC3"
		},
		{
			"bufferView":2,
			"componentType":5126,
			"count":80,
			"type":"VEC3"
		},
		{
			"bufferView":3,
			"componentType":5121,
			"count":80,
			"type":"VEC4"
		},
		{
			"bufferView":4,
			"componentType":5126,
			"count":80,
			"type":"VEC4"
		},
		{
			"bufferView":5,
			"componentType":5123,
			"count":252,
			"type":"SCALAR"
		},
		{
			"bufferView":6,
			"componentType":5123,
			"count":448,
			"normalized":true,
			"type":"VEC4"
		},
		{
			"bufferView":7,
			"componentType":5126,
			"count":448,
			"max":[
				0.6000000238418579,
				0.30000001192092896,
				0.20000000298023224
			],
			"min":[
				-0.5,
				-0.20000000298023224,
				-0.30000001192092896
			],
			"type":"VEC3"
		},
		{
			"bufferView":8,
			"componentType":5126,
			"count":448,
			"type":"VEC3"
		},
		{
			"bufferView":9,
			"componentType":5121,
			"count":448,
			"type":"VEC4"
		},
		{
			"bufferView":10,
			"componentType":5126,
			"count":448,
			"type":"VEC4"
		},
		{
			"bufferView":11,
			"componentType":5123,
			"count":1572,
			"type":"SCALAR"
		},
		{
			"bufferView":12,
			"componentType":5126,
			"count":3,
			"type":"MAT4"
		}
	],
	"bufferViews":[
		{
			"buffer":0,
			"byteLength":640,
			"byteOffset":0,
			"target":34962
		},
		{
			"buffer":0,
			"byteLength":960,
			"byteOffset":640,
			"target":34962
		},
		{
			"buffer":0,
			"byteLength":960,
			"byteOffset":1600,
			"target":34962
		},
		{
			"buffer":0,
			"byteLength":320,
			"byteOffset":2560,
			"target":34962
		},
		{
			"buffer":0,
			"byteLength":1280,
			"byteOffset":2880,
			"target":34962
		},
		{
			"buffer":0,
			"byteLength":504,
			"byteOffset":4160,
			"target":34963
		},
		{
			"buffer":0,
			"byteLength":3584,
			"byteOffset":4664,
			"target":34962
		},
		{
			"buffer":0,
			"byteLength":5376,
			"byteOffset":8248,
			"target":34962
		},
		{
			"buffer":0,
			"byteLength":5376,
			"byteOffset":13624,
			"target":34962
		},
		{
			"buffer":0,
			"byteLength":1792,
			"byteOffset":19000,
			"target":34962
		},
		{
			"buffer":0,
			"byteLength":7168,
			"byteOffset":20792,
			"target":34962
		},
		{
			"buffer":0,
			"byteLength":3144,
			"byteOffset":27960,
			"target":34963
		},
		{
			"buffer":0,
			"byteLength":192,
			"byteOffset":31104
		}
	],
	"buffers":[
		{
			"byteLength":31296,
			"uri":"data:application/octet-stream;base64,"
		}
	]
}
