{
	"asset":{
		"generator":"Khronos glTF Blender I/O v3.5.30",
		"version":"2.0"
	},
	"scene":0,
	"scenes":[
		{
			"name":"Scene",
			"nodes":[
				4
			]
		}
	],
	"nodes":[
		{
			"name":"handleaf",
			"rotation":[
				-9.5319108162073e-10,
				-3.9923243377870676e-08,
				0.0034245983697474003,
				0.999994158744812
			],
			"scale":[
				0.9999999403953552,
				1,
				1
			],
			"translation":[
				-1.976630664701773e-14,
				0.4621035158634186,
				-9.992007221626409e-16
			]
		},
		{
			"children":[
				0
			],
			"name":"forearm",
			"rotation":[
				6.813222341861547e-08,
				4.0153324221137154e-08,
				-0.003424597904086113,
				0.999994158744812
			],
			"scale":[
				0.9999999403953552,
				1.0000001192092896,
				1
			],
			"translation":[
				0,
				0.38915151357650757,
				0
			]
		},
		{
			"children":[
				1
			],
			"name":"upperarm",
			"rotation":[
				-2.980232594040899e-08,
				1.1920927533992653e-07,
				0,
				1
			],
			"scale":[
				1,
				0.9999999403953552,
				0.9999999403953552
			],
			"translation":[
				0,
				-0.05697032809257507,
				0
			]
		},
		{
			"mesh":0,
			"name":"hand",
			"skin":0
		},
		{
			"children":[
				3,
				2
			],
			"name":"arm"
		}
	],
	"materials":[
		{
			"doubleSided":true,
			"name":"Material",
			"pbrMetallicRoughness":{
				"baseColorFactor":[
					0.8000000715255737,
					0,
					0.040208399295806885,
					1
				],
				"metallicFactor":0,
				"roughnessFactor":0.5
			}
		},
		{
			"doubleSided":true,
			"name":"Material.001",
			"pbrMetallicRoughness":{
				"baseColorFactor":[
					0.06127024441957474,
					0.0011632161913439631,
					0.8000000715255737,
					1
				],
				"metallicFactor":0,
				"roughnessFactor":0.5
			}
		}
	],
	"meshes":[
		{
			"name":"foot and hand",
			"primitives":[
				{
					"attributes":{
						"COLOR_0":0,
						"POSITION":1,
						"NORMAL":2,
						"JOINTS_0":3,
						"WEIGHTS_0":4
					},
					"indices":5,
					"material":0
				},
				{
					"attributes":{
						"COLOR_0":6,
						"POSITION":7,
						"NORMAL":8,
						"JOINTS_0":9,
						"WEIGHTS_0":10
					},
					"indices":11,
					"material":1
				}
			]
		}
	],
	"skins":[
		{
			"inverseBindMatrices":12,
			"joints":[
				2,
				1,
				0
			],
			"name":"arm"
		}
	],
	"accessors":[
		{
			"bufferView":0,
			"componentType":5123,
			"count":80,
			"normalized":true,
			"type":"VEC4"
		},
		{
			"bufferView":1,
			"componentType":5126,
			"count":80,
			"max":[
				0.15604141354560852,
				0.8951987028121948,
				0.14431026577949524
			],
			"min":[
				-0.14395858347415924,
				0.695198655128479,
				-0.15568974614143372
			],
			"type":"VEC3"
		},
		{
			"bufferView":2,
			"componentType":5126,
			"count":80,
			"type":"VEC3"
		},
		{
			"bufferView":3,
			"componentType":5121,
			"count":80,
			"type":"VEC4"
		},
		{
			"bufferView":4,
			"componentType":5126,
			"count":80,
			"type":"VEC4"
		},
		{
			"bufferView":5,
			"componentType":5123,
			"count":252,
			"type":"SCALAR"
		},
		{
			"bufferView":6,
			"componentType":5123,
			"count":176,
			"normalized":true,
			"type":"VEC4"
		},
		{
			"bufferView":7,
			"componentType":5126,
			"count":176,
			"max":[
				0.15604141354560852,
				0.6967204809188843,
				0.14431026577949524
			],
			"min":[
				-0.14395858347415924,
				-0.10327959060668945,
				-0.15568974614143372
			],
			"type":"VEC3"
		},
		{
			"bufferView":8,
			"componentType":5126,
			"count":176,
			"type":"VEC3"
		},
		{
			"bufferView":9,
			"componentType":5121,
			"count":176,
			"type":"VEC4"
		},
		{
			"bufferView":10,
			"componentType":5126,
			"count":176,
			"type":"VEC4"
		},
		{
			"bufferView":11,
			"componentType":5123,
			"count":684,
			"type":"SCALAR"
		},
		{
			"bufferView":12,
			"componentType":5126,
			"count":3,
			"type":"MAT4"
		}
	],
	"bufferViews":[
		{
			"buffer":0,
			"byteLength":640,
			"byteOffset":0,
			"target":34962
		},
		{
			"buffer":0,
			"byteLength":960,
			"byteOffset":640,
			"target":34962
		},
		{
			"buffer":0,
			"byteLength":960,
			"byteOffset":1600,
			"target":34962
		},
		{
			"buffer":0,
			"byteLength":320,
			"byteOffset":2560,
			"target":34962
		},
		{
			"buffer":0,
			"byteLength":1280,
			"byteOffset":2880,
			"target":34962
		},
		{
			"buffer":0,
			"byteLength":504,
			"byteOffset":4160,
			"target":34963
		},
		{
			"buffer":0,
			"byteLength":1408,
			"byteOffset":4664,
			"target":34962
		},
		{
			"buffer":0,
			"byteLength":2112,
			"byteOffset":6072,
			"target":34962
		},
		{
			"buffer":0,
			"byteLength":2112,
			"byteOffset":8184,
			"target":34962
		},
		{
			"buffer":0,
			"byteLength":704,
			"byteOffset":10296,
			"target":34962
		},
		{
			"buffer":0,
			"byteLength":2816,
			"byteOffset":11000,
			"target":34962
		},
		{
			"buffer":0,
			"byteLength":1368,
			"byteOffset":13816,
			"target":34963
		},
		{
			"buffer":0,
			"byteLength":192,
			"byteOffset":15184
		}
	],
	"buffers":[
		{
			"byteLength":15376,
			"uri":"data:application/octet-stream;base64,"
		}
	]
}
