{
	"asset":{
		"generator":"Khronos glTF Blender I/O v3.5.30",
		"version":"2.0"
	},
	"extensionsUsed":[
		"KHR_materials_specular",
		"KHR_materials_ior"
	],
	"scene":0,
	"scenes":[
		{
			"name":"Scene",
			"nodes":[
				4
			]
		}
	],
	"nodes":[
		{
			"name":"hand",
			"rotation":[
				1.3148679922636575e-09,
				7.848075966876422e-08,
				0.007691625971347094,
				0.9999704360961914
			],
			"translation":[
				-5.036806527414228e-10,
				0.5143762230873108,
				2.6616486792363503e-11
			]
		},
		{
			"children":[
				0
			],
			"name":"forearm",
			"rotation":[
				-1.6185652818023755e-09,
				-3.899736000789744e-08,
				-0.007691585458815098,
				0.9999704360961914
			],
			"translation":[
				-1.4872069131754984e-09,
				0.5410723686218262,
				-1.769563828801779e-09
			]
		},
		{
			"children":[
				1
			],
			"name":"upperarm",
			"rotation":[
				0,
				-1.853759989955961e-08,
				-1.853760167591645e-08,
				1
			],
			"translation":[
				1.0880452094852444e-09,
				-2.305788671108644e-09,
				0
			]
		},
		{
			"mesh":0,
			"name":"arm",
			"skin":0
		},
		{
			"children":[
				3,
				2
			],
			"name":"Armature",
			"rotation":[
				0,
				0,
				-0.7071068286895752,
				0.7071068286895752
			],
			"translation":[
				-0.4510151147842407,
				0.052750296890735626,
				-0.04483776167035103
			]
		}
	],
	"materials":[
		{
			"doubleSided":true,
			"extensions":{
				"KHR_materials_specular":{
					"specularColorFactor":[
						0,
						0,
						0
					]
				},
				"KHR_materials_ior":{
					"ior":1.4500000476837158
				}
			},
			"name":"Material.001",
			"pbrMetallicRoughness":{
				"baseColorFactor":[
					0.04644326865673065,
					0.8000000715255737,
					0.023286249488592148,
					1
				],
				"metallicFactor":0,
				"roughnessFactor":0
			}
		}
	],
	"meshes":[
		{
			"name":"arm",
			"primitives":[
				{
					"attributes":{
						"COLOR_0":0,
						"POSITION":1,
						"NORMAL":2,
						"JOINTS_0":3,
						"WEIGHTS_0":4
					},
					"indices":5,
					"material":0
				}
			]
		}
	],
	"skins":[
		{
			"inverseBindMatrices":6,
			"joints":[
				2,
				1,
				0
			],
			"name":"Armature"
		}
	],
	"accessors":[
		{
			"bufferView":0,
			"componentType":5123,
			"count":616,
			"normalized":true,
			"type":"VEC4"
		},
		{
			"bufferView":1,
			"componentType":5126,
			"count":616,
			"max":[
				0.799426794052124,
				0.30000001192092896,
				0.20000000298023224
			],
			"min":[
				-0.5,
				-0.20000000298023224,
				-0.30000001192092896
			],
			"type":"VEC3"
		},
		{
			"bufferView":2,
			"componentType":5126,
			"count":616,
			"type":"VEC3"
		},
		{
			"bufferView":3,
			"componentType":5121,
			"count":616,
			"type":"VEC4"
		},
		{
			"bufferView":4,
			"componentType":5126,
			"count":616,
			"type":"VEC4"
		},
		{
			"bufferView":5,
			"componentType":5123,
			"count":1824,
			"type":"SCALAR"
		},
		{
			"bufferView":6,
			"componentType":5126,
			"count":3,
			"type":"MAT4"
		}
	],
	"bufferViews":[
		{
			"buffer":0,
			"byteLength":4928,
			"byteOffset":0,
			"target":34962
		},
		{
			"buffer":0,
			"byteLength":7392,
			"byteOffset":4928,
			"target":34962
		},
		{
			"buffer":0,
			"byteLength":7392,
			"byteOffset":12320,
			"target":34962
		},
		{
			"buffer":0,
			"byteLength":2464,
			"byteOffset":19712,
			"target":34962
		},
		{
			"buffer":0,
			"byteLength":9856,
			"byteOffset":22176,
			"target":34962
		},
		{
			"buffer":0,
			"byteLength":3648,
			"byteOffset":32032,
			"target":34963
		},
		{
			"buffer":0,
			"byteLength":192,
			"byteOffset":35680
		}
	],
	"buffers":[
		{
			"byteLength":35872,
			"uri":"data:application/octet-stream;base64,"
		}
	]
}
