{
	"asset":{
		"generator":"Khronos glTF Blender I/O v3.5.30",
		"version":"2.0"
	},
	"scene":0,
	"scenes":[
		{
			"name":"Scene",
			"nodes":[
				21
			]
		}
	],
	"nodes":[
		{
			"name":"Bone.001",
			"rotation":[
				2.647774408615078e-07,
				-2.5447570806136355e-07,
				0.71956866979599,
				0.6944212913513184
			],
			"translation":[
				0,
				0.5362369418144226,
				0
			]
		},
		{
			"name":"leaf.l",
			"rotation":[
				-1.931392468179638e-08,
				-5.6070586396117506e-08,
				0.037999462336301804,
				0.9992777705192566
			],
			"scale":[
				1,
				0.9999998807907104,
				1
			],
			"translation":[
				1.1267935917658178e-08,
				0.2767758369445801,
				-7.726157491561025e-10
			]
		},
		{
			"children":[
				1
			],
			"name":"forearm.l",
			"rotation":[
				6.584757272776187e-08,
				5.186100437981622e-08,
				-0.12858738005161285,
				0.9916982054710388
			],
			"scale":[
				0.9999999403953552,
				1,
				1
			],
			"translation":[
				3.315275165505227e-08,
				0.26253560185432434,
				4.029772071589832e-10
			]
		},
		{
			"children":[
				2
			],
			"name":"upperarm.l",
			"rotation":[
				2.3623377387593791e-07,
				2.00052756582636e-08,
				-0.5505867600440979,
				0.8347779512405396
			],
			"translation":[
				2.3810050819861317e-08,
				0.23739637434482574,
				2.9818902902434274e-10
			]
		},
		{
			"children":[
				3
			],
			"name":"shoulder.l",
			"rotation":[
				1.9447416832463205e-07,
				1.8882323615798668e-07,
				-0.7116748690605164,
				0.7025090456008911
			],
			"translation":[
				0,
				0.5362369418144226,
				0
			]
		},
		{
			"name":"leaf.top",
			"rotation":[
				1.9612540758107144e-10,
				5.1787253596558e-08,
				0.003787798108533025,
				0.999992847442627
			],
			"translation":[
				-2.0665297251198922e-10,
				0.290134996175766,
				-3.1857988469496945e-10
			]
		},
		{
			"children":[
				5
			],
			"name":"neck",
			"rotation":[
				6.698278554040371e-08,
				-5.1532794032027596e-08,
				-0.003787798108533025,
				0.999992847442627
			],
			"translation":[
				0,
				0.5362369418144226,
				0
			]
		},
		{
			"name":"leaf.r",
			"rotation":[
				5.4044635433569965e-09,
				-1.879474531563119e-08,
				0.009267321787774563,
				0.9999570846557617
			],
			"scale":[
				0.9999998807907104,
				1,
				1
			],
			"translation":[
				-1.1267935917658178e-08,
				0.2767758369445801,
				-7.726157491561025e-10
			]
		},
		{
			"children":[
				7
			],
			"name":"forearm.r",
			"rotation":[
				6.584757272776187e-08,
				-5.186100437981622e-08,
				0.12858738005161285,
				0.9916982054710388
			],
			"scale":[
				0.9999999403953552,
				1,
				1
			],
			"translation":[
				-3.315275165505227e-08,
				0.26253560185432434,
				4.029772071589832e-10
			]
		},
		{
			"children":[
				8
			],
			"name":"upperarm.r",
			"rotation":[
				2.3623377387593791e-07,
				-2.00052756582636e-08,
				0.5505867600440979,
				0.8347779512405396
			],
			"translation":[
				-2.3810050819861317e-08,
				0.23739637434482574,
				2.9818902902434274e-10
			]
		},
		{
			"children":[
				9
			],
			"name":"shoulder.r",
			"rotation":[
				1.9447416832463205e-07,
				-1.8882323615798668e-07,
				0.7116748690605164,
				0.7025090456008911
			],
			"translation":[
				0,
				0.5362369418144226,
				0
			]
		},
		{
			"children":[
				0,
				4,
				6,
				10
			],
			"name":"torso",
			"translation":[
				0,
				0.8651050925254822,
				1.1641532182693481e-07
			]
		},
		{
			"name":"ankle.l.001",
			"rotation":[
				0.020871534943580627,
				2.1947347761397396e-07,
				3.6328267061236375e-09,
				0.9997822046279907
			],
			"translation":[
				-5.341291853255825e-10,
				0.3077319264411926,
				-1.2256045067715604e-09
			]
		},
		{
			"children":[
				12
			],
			"name":"ankle.l",
			"rotation":[
				-0.00887594185769558,
				4.0372256648879556e-08,
				7.61905982749056e-10,
				0.9999606013298035
			],
			"scale":[
				1,
				0.9999999403953552,
				1
			],
			"translation":[
				1.361115664622048e-10,
				0.31321027874946594,
				4.349933746539136e-09
			]
		},
		{
			"children":[
				13
			],
			"name":"thigh.l",
			"rotation":[
				-0.2473459243774414,
				6.444278710660001e-08,
				4.68074219384107e-08,
				0.968927264213562
			],
			"scale":[
				1,
				0.9999999403953552,
				1
			],
			"translation":[
				1.3617151850553455e-10,
				0.2253626585006714,
				-2.09081552071666e-08
			]
		},
		{
			"children":[
				14
			],
			"name":"pelvic.l",
			"rotation":[
				-0.6846207976341248,
				-0.17690250277519226,
				-0.6846206188201904,
				0.17690259218215942
			],
			"scale":[
				1,
				0.9999999403953552,
				0.9999999403953552
			],
			"translation":[
				0,
				0.8651050925254822,
				1.1641532182693481e-07
			]
		},
		{
			"name":"leaf-bottom",
			"rotation":[
				0.019836129620671272,
				1.206558053468143e-08,
				1.1412308875691224e-09,
				0.9998033046722412
			],
			"scale":[
				1,
				1,
				0.9999999403953552
			],
			"translation":[
				5.341291853255825e-10,
				0.3077319264411926,
				-1.2256045067715604e-09
			]
		},
		{
			"children":[
				16
			],
			"name":"ankle.r",
			"rotation":[
				-0.00887594185769558,
				-4.0372256648879556e-08,
				-7.61905982749056e-10,
				0.9999606013298035
			],
			"scale":[
				1,
				0.9999999403953552,
				1
			],
			"translation":[
				-1.361115664622048e-10,
				0.31321027874946594,
				4.349933746539136e-09
			]
		},
		{
			"children":[
				17
			],
			"name":"thigh.r",
			"rotation":[
				-0.2473459243774414,
				-6.444278710660001e-08,
				-4.68074219384107e-08,
				0.968927264213562
			],
			"scale":[
				1,
				0.9999999403953552,
				1
			],
			"translation":[
				-1.3617151850553455e-10,
				0.2253626585006714,
				-2.09081552071666e-08
			]
		},
		{
			"children":[
				18
			],
			"name":"pelvic.r",
			"rotation":[
				-0.6846207976341248,
				0.17690250277519226,
				0.6846206188201904,
				0.17690259218215942
			],
			"scale":[
				1,
				0.9999999403953552,
				0.9999999403953552
			],
			"translation":[
				0,
				0.8651050925254822,
				1.1641532182693481e-07
			]
		},
		{
			"mesh":0,
			"name":"human_male",
			"skin":0
		},
		{
			"children":[
				20,
				11,
				15,
				19
			],
			"name":"Armature",
			"translation":[
				0,
				0,
				-0.006555646657943726
			]
		}
	],
	"materials":[
		{
			"doubleSided":true,
			"name":"skin",
			"pbrMetallicRoughness":{
				"baseColorFactor":[
					1,
					0.8523243069648743,
					0,
					1
				],
				"metallicFactor":0,
				"roughnessFactor":0.5
			}
		},
		{
			"doubleSided":true,
			"name":"shirt_cloth",
			"pbrMetallicRoughness":{
				"baseColorFactor":[
					0.05729574337601662,
					0.22025775909423828,
					0.02381632663309574,
					1
				],
				"metallicFactor":0,
				"roughnessFactor":0.5
			}
		},
		{
			"doubleSided":true,
			"name":"pant_cloth",
			"pbrMetallicRoughness":{
				"baseColorFactor":[
					0.039128854870796204,
					0.019433744251728058,
					0.8000000715255737,
					1
				],
				"metallicFactor":0,
				"roughnessFactor":0.5
			}
		},
		{
			"doubleSided":true,
			"name":"shoe",
			"pbrMetallicRoughness":{
				"baseColorFactor":[
					0.0063702864572405815,
					0.0063702864572405815,
					0.0063702864572405815,
					1
				],
				"metallicFactor":0,
				"roughnessFactor":0.5
			}
		}
	],
	"meshes":[
		{
			"name":"head",
			"primitives":[
				{
					"attributes":{
						"COLOR_0":0,
						"POSITION":1,
						"NORMAL":2,
						"JOINTS_0":3,
						"WEIGHTS_0":4
					},
					"indices":5,
					"material":0
				},
				{
					"attributes":{
						"COLOR_0":6,
						"POSITION":7,
						"NORMAL":8,
						"JOINTS_0":9,
						"WEIGHTS_0":10
					},
					"indices":11,
					"material":1
				},
				{
					"attributes":{
						"COLOR_0":12,
						"POSITION":13,
						"NORMAL":14,
						"JOINTS_0":15,
						"WEIGHTS_0":16
					},
					"indices":17,
					"material":2
				},
				{
					"attributes":{
						"COLOR_0":18,
						"POSITION":19,
						"NORMAL":20,
						"JOINTS_0":21,
						"WEIGHTS_0":22
					},
					"indices":23,
					"material":3
				}
			]
		}
	],
	"skins":[
		{
			"inverseBindMatrices":24,
			"joints":[
				11,
				0,
				4,
				3,
				2,
				1,
				6,
				5,
				10,
				9,
				8,
				7,
				15,
				14,
				13,
				12,
				19,
				18,
				17,
				16
			],
			"name":"Armature"
		}
	],
	"accessors":[
		{
			"bufferView":0,
			"componentType":5123,
			"count":300,
			"normalized":true,
			"type":"VEC4"
		},
		{
			"bufferView":1,
			"componentType":5126,
			"count":300,
			"max":[
				0.47589173913002014,
				1.8081965446472168,
				0.18956273794174194
			],
			"min":[
				-0.46169817447662354,
				0.7767922282218933,
				-0.18543727695941925
			],
			"type":"VEC3"
		},
		{
			"bufferView":2,
			"componentType":5126,
			"count":300,
			"type":"VEC3"
		},
		{
			"bufferView":3,
			"componentType":5121,
			"count":300,
			"type":"VEC4"
		},
		{
			"bufferView":4,
			"componentType":5126,
			"count":300,
			"type":"VEC4"
		},
		{
			"bufferView":5,
			"componentType":5123,
			"count":1092,
			"type":"SCALAR"
		},
		{
			"bufferView":6,
			"componentType":5123,
			"count":390,
			"normalized":true,
			"type":"VEC4"
		},
		{
			"bufferView":7,
			"componentType":5126,
			"count":390,
			"max":[
				0.46527737379074097,
				1.4523624181747437,
				0.10000000894069672
			],
			"min":[
				-0.453518271446228,
				0.6838164329528809,
				-0.10000000149011612
			],
			"type":"VEC3"
		},
		{
			"bufferView":8,
			"componentType":5126,
			"count":390,
			"type":"VEC3"
		},
		{
			"bufferView":9,
			"componentType":5121,
			"count":390,
			"type":"VEC4"
		},
		{
			"bufferView":10,
			"componentType":5126,
			"count":390,
			"type":"VEC4"
		},
		{
			"bufferView":11,
			"componentType":5123,
			"count":1584,
			"type":"SCALAR"
		},
		{
			"bufferView":12,
			"componentType":5123,
			"count":204,
			"normalized":true,
			"type":"VEC4"
		},
		{
			"bufferView":13,
			"componentType":5126,
			"count":204,
			"max":[
				0.20978695154190063,
				0.6846398711204529,
				0.10000000894069672
			],
			"min":[
				-0.2102815955877304,
				0.0846397876739502,
				-0.10000000149011612
			],
			"type":"VEC3"
		},
		{
			"bufferView":14,
			"componentType":5126,
			"count":204,
			"type":"VEC3"
		},
		{
			"bufferView":15,
			"componentType":5121,
			"count":204,
			"type":"VEC4"
		},
		{
			"bufferView":16,
			"componentType":5126,
			"count":204,
			"type":"VEC4"
		},
		{
			"bufferView":17,
			"componentType":5123,
			"count":672,
			"type":"SCALAR"
		},
		{
			"bufferView":18,
			"componentType":5123,
			"count":84,
			"normalized":true,
			"type":"VEC4"
		},
		{
			"bufferView":19,
			"componentType":5126,
			"count":84,
			"max":[
				0.20936059951782227,
				0.08681228756904602,
				0.10000000894069672
			],
			"min":[
				-0.21064287424087524,
				-0.013187706470489502,
				-0.10000000149011612
			],
			"type":"VEC3"
		},
		{
			"bufferView":20,
			"componentType":5126,
			"count":84,
			"type":"VEC3"
		},
		{
			"bufferView":21,
			"componentType":5121,
			"count":84,
			"type":"VEC4"
		},
		{
			"bufferView":22,
			"componentType":5126,
			"count":84,
			"type":"VEC4"
		},
		{
			"bufferView":23,
			"componentType":5123,
			"count":192,
			"type":"SCALAR"
		},
		{
			"bufferView":24,
			"componentType":5126,
			"count":20,
			"type":"MAT4"
		}
	],
	"bufferViews":[
		{
			"buffer":0,
			"byteLength":2400,
			"byteOffset":0,
			"target":34962
		},
		{
			"buffer":0,
			"byteLength":3600,
			"byteOffset":2400,
			"target":34962
		},
		{
			"buffer":0,
			"byteLength":3600,
			"byteOffset":6000,
			"target":34962
		},
		{
			"buffer":0,
			"byteLength":1200,
			"byteOffset":9600,
			"target":34962
		},
		{
			"buffer":0,
			"byteLength":4800,
			"byteOffset":10800,
			"target":34962
		},
		{
			"buffer":0,
			"byteLength":2184,
			"byteOffset":15600,
			"target":34963
		},
		{
			"buffer":0,
			"byteLength":3120,
			"byteOffset":17784,
			"target":34962
		},
		{
			"buffer":0,
			"byteLength":4680,
			"byteOffset":20904,
			"target":34962
		},
		{
			"buffer":0,
			"byteLength":4680,
			"byteOffset":25584,
			"target":34962
		},
		{
			"buffer":0,
			"byteLength":1560,
			"byteOffset":30264,
			"target":34962
		},
		{
			"buffer":0,
			"byteLength":6240,
			"byteOffset":31824,
			"target":34962
		},
		{
			"buffer":0,
			"byteLength":3168,
			"byteOffset":38064,
			"target":34963
		},
		{
			"buffer":0,
			"byteLength":1632,
			"byteOffset":41232,
			"target":34962
		},
		{
			"buffer":0,
			"byteLength":2448,
			"byteOffset":42864,
			"target":34962
		},
		{
			"buffer":0,
			"byteLength":2448,
			"byteOffset":45312,
			"target":34962
		},
		{
			"buffer":0,
			"byteLength":816,
			"byteOffset":47760,
			"target":34962
		},
		{
			"buffer":0,
			"byteLength":3264,
			"byteOffset":48576,
			"target":34962
		},
		{
			"buffer":0,
			"byteLength":1344,
			"byteOffset":51840,
			"target":34963
		},
		{
			"buffer":0,
			"byteLength":672,
			"byteOffset":53184,
			"target":34962
		},
		{
			"buffer":0,
			"byteLength":1008,
			"byteOffset":53856,
			"target":34962
		},
		{
			"buffer":0,
			"byteLength":1008,
			"byteOffset":54864,
			"target":34962
		},
		{
			"buffer":0,
			"byteLength":336,
			"byteOffset":55872,
			"target":34962
		},
		{
			"buffer":0,
			"byteLength":1344,
			"byteOffset":56208,
			"target":34962
		},
		{
			"buffer":0,
			"byteLength":384,
			"byteOffset":57552,
			"target":34963
		},
		{
			"buffer":0,
			"byteLength":1280,
			"byteOffset":57936
		}
	],
	"buffers":[
		{
			"byteLength":59216,
			"uri":"data:application/octet-stream;base64,"
		}
	]
}
