{
	"asset":{
		"generator":"Khronos glTF Blender I/O v3.5.30",
		"version":"2.0"
	},
	"scene":0,
	"scenes":[
		{
			"name":"Scene",
			"nodes":[
				20
			]
		}
	],
	"nodes":[
		{
			"name":"head",
			"rotation":[
				-5.613674147753045e-08,
				5.710094441724323e-08,
				-0.013100791722536087,
				0.9999141693115234
			],
			"scale":[
				0.9999999403953552,
				0.9999998807907104,
				1
			],
			"translation":[
				-9.313263493737622e-10,
				0.16432079672813416,
				1.1268763699945339e-14
			]
		},
		{
			"children":[
				0
			],
			"name":"neck",
			"rotation":[
				1.0789455018311855e-07,
				-2.9333003581655248e-08,
				0.015774402767419815,
				0.9998756051063538
			],
			"translation":[
				1.862645149230957e-09,
				0.8098703622817993,
				2.220446049250313e-16
			]
		},
		{
			"name":"handleaf.r",
			"rotation":[
				-6.627665083414058e-10,
				-3.0870971556851146e-08,
				-0.005617737304419279,
				0.9999842047691345
			],
			"scale":[
				1,
				0.9999999403953552,
				1
			],
			"translation":[
				-1.4932499681208355e-14,
				0.2721919119358063,
				-3.552713678800501e-15
			]
		},
		{
			"children":[
				2
			],
			"name":"lowerarm.r",
			"rotation":[
				4.223016034088367e-11,
				-7.468951679356906e-08,
				0.003401317400857806,
				0.9999942183494568
			],
			"scale":[
				1,
				1,
				1.0000001192092896
			],
			"translation":[
				1.2572858310022639e-08,
				0.4652690887451172,
				-3.552713678800501e-15
			]
		},
		{
			"children":[
				3
			],
			"name":"upperarm.r",
			"rotation":[
				-4.7852687146132666e-08,
				-4.2038941217015235e-09,
				0.7018988728523254,
				0.7122766375541687
			],
			"translation":[
				3.329478204250336e-08,
				0.4019702672958374,
				1.9984014443252818e-15
			]
		},
		{
			"children":[
				4
			],
			"name":"collar.r",
			"rotation":[
				-3.6987394480547664e-08,
				-7.84541853704468e-08,
				0.7141989469528198,
				0.6999427676200867
			],
			"translation":[
				1.862645149230957e-09,
				0.8098703622817993,
				2.220446049250313e-16
			]
		},
		{
			"name":"handleaf.l",
			"rotation":[
				-6.663248841576319e-10,
				3.087095024056907e-08,
				0.005617737304419279,
				0.9999842047691345
			],
			"scale":[
				1,
				0.9999999403953552,
				1
			],
			"translation":[
				1.4932499681208355e-14,
				0.2721919119358063,
				3.552713678800501e-15
			]
		},
		{
			"children":[
				6
			],
			"name":"lowerarm.l",
			"rotation":[
				4.438313258581239e-11,
				7.468951679356906e-08,
				-0.003401317400857806,
				0.9999942183494568
			],
			"scale":[
				1,
				1,
				1.0000001192092896
			],
			"translation":[
				-1.2572858310022639e-08,
				0.4652690887451172,
				-5.329070518200751e-15
			]
		},
		{
			"children":[
				7
			],
			"name":"upperarm.l",
			"rotation":[
				-4.762851801842771e-08,
				4.427852307031799e-09,
				-0.7018988728523254,
				0.7122766375541687
			],
			"translation":[
				-3.306195139884949e-08,
				0.4019702970981598,
				1.1934897514720433e-15
			]
		},
		{
			"children":[
				8
			],
			"name":"collar.l",
			"rotation":[
				7.832816351083238e-08,
				-3.5958510835598645e-08,
				-0.7055445909500122,
				0.7086655497550964
			],
			"translation":[
				-0.022645099088549614,
				0.809592068195343,
				-3.687008476305209e-09
			]
		},
		{
			"children":[
				1,
				5,
				9
			],
			"name":"torso",
			"rotation":[
				-4.3911235536597815e-08,
				8.148623464876437e-08,
				-0.006143806967884302,
				0.999981164932251
			],
			"scale":[
				0.9999999403953552,
				0.9999998807907104,
				0.9999998807907104
			],
			"translation":[
				0.0013722162693738937,
				0.4591207504272461,
				0
			]
		},
		{
			"name":"footleaf.r",
			"rotation":[
				-0.01293756440281868,
				2.1751562329086482e-08,
				-7.123877043824223e-10,
				0.9999163150787354
			],
			"translation":[
				1.021405182655144e-14,
				0.2954137921333313,
				1.4668339431977984e-08
			]
		},
		{
			"children":[
				11
			],
			"name":"ankle.r",
			"rotation":[
				0.004464156460016966,
				-8.074542279246089e-08,
				-1.0063804900539708e-08,
				0.9999900460243225
			],
			"translation":[
				7.105427357601002e-15,
				0.5195177793502808,
				1.484321909828168e-08
			]
		},
		{
			"children":[
				12
			],
			"name":"thigh.r",
			"rotation":[
				-0.7026738524436951,
				-3.2340128353069986e-09,
				-1.3982790392219613e-07,
				0.7115121483802795
			],
			"scale":[
				1,
				0.9999999403953552,
				0.9999999403953552
			],
			"translation":[
				-1.915134717478395e-15,
				0.14654022455215454,
				2.0721927285194397e-08
			]
		},
		{
			"children":[
				13
			],
			"name":"pelvic.r",
			"rotation":[
				-0.5031151175498962,
				0.496865451335907,
				0.5031149983406067,
				0.4968653917312622
			],
			"scale":[
				0.9999999403953552,
				0.9999999403953552,
				0.9999999403953552
			],
			"translation":[
				0.0013722162693738937,
				0.4591207504272461,
				0
			]
		},
		{
			"name":"footleaf.l",
			"rotation":[
				-0.01293756440281868,
				-2.1751562329086482e-08,
				7.123877043824223e-10,
				0.9999163150787354
			],
			"translation":[
				-1.021405182655144e-14,
				0.2954137921333313,
				1.4668339431977984e-08
			]
		},
		{
			"children":[
				15
			],
			"name":"ankle.l",
			"rotation":[
				0.004464156460016966,
				8.074542279246089e-08,
				1.0063804900539708e-08,
				0.9999900460243225
			],
			"translation":[
				-7.105427357601002e-15,
				0.5195177793502808,
				1.484321909828168e-08
			]
		},
		{
			"children":[
				16
			],
			"name":"thigh.l",
			"rotation":[
				-0.7026738524436951,
				3.2340128353069986e-09,
				1.3982790392219613e-07,
				0.7115121483802795
			],
			"scale":[
				1,
				0.9999999403953552,
				0.9999999403953552
			],
			"translation":[
				1.915134717478395e-15,
				0.14654022455215454,
				2.0721927285194397e-08
			]
		},
		{
			"children":[
				17
			],
			"name":"pelvic.l",
			"rotation":[
				-0.5031151175498962,
				-0.496865451335907,
				-0.5031149983406067,
				0.4968653917312622
			],
			"scale":[
				0.9999999403953552,
				0.9999999403953552,
				0.9999999403953552
			],
			"translation":[
				-0.0013722162693738937,
				0.4591207504272461,
				0
			]
		},
		{
			"mesh":0,
			"name":"human_01",
			"skin":0
		},
		{
			"children":[
				19,
				10,
				14,
				18
			],
			"name":"Armature"
		}
	],
	"materials":[
		{
			"doubleSided":true,
			"name":"cloth_02",
			"pbrMetallicRoughness":{
				"baseColorFactor":[
					0.8000000715255737,
					0.0029490268789231777,
					0.02336496114730835,
					1
				],
				"metallicFactor":0,
				"roughnessFactor":0.5
			}
		},
		{
			"doubleSided":true,
			"name":"cloth_01.001",
			"pbrMetallicRoughness":{
				"baseColorFactor":[
					0.03043038211762905,
					0.8000000715255737,
					0.0012329972814768553,
					1
				],
				"metallicFactor":0,
				"roughnessFactor":0.5
			}
		},
		{
			"doubleSided":true,
			"name":"skin",
			"pbrMetallicRoughness":{
				"baseColorFactor":[
					0.004207313060760498,
					1,
					0.9430386424064636,
					1
				],
				"metallicFactor":0,
				"roughnessFactor":0.5
			}
		},
		{
			"doubleSided":true,
			"name":"shoe",
			"pbrMetallicRoughness":{
				"baseColorFactor":[
					0.0908377543091774,
					0.0908377543091774,
					0.0908377543091774,
					1
				],
				"metallicFactor":0,
				"roughnessFactor":0.5
			}
		}
	],
	"meshes":[
		{
			"name":"leg.001",
			"primitives":[
				{
					"attributes":{
						"COLOR_0":0,
						"POSITION":1,
						"NORMAL":2,
						"JOINTS_0":3,
						"WEIGHTS_0":4
					},
					"indices":5,
					"material":0
				},
				{
					"attributes":{
						"COLOR_0":6,
						"POSITION":7,
						"NORMAL":8,
						"JOINTS_0":9,
						"WEIGHTS_0":10
					},
					"indices":11,
					"material":1
				},
				{
					"attributes":{
						"COLOR_0":12,
						"POSITION":13,
						"NORMAL":14,
						"JOINTS_0":15,
						"WEIGHTS_0":16
					},
					"indices":17,
					"material":2
				},
				{
					"attributes":{
						"COLOR_0":18,
						"POSITION":19,
						"NORMAL":20,
						"JOINTS_0":21,
						"WEIGHTS_0":22
					},
					"indices":23,
					"material":3
				}
			]
		}
	],
	"skins":[
		{
			"inverseBindMatrices":24,
			"joints":[
				10,
				1,
				0,
				5,
				4,
				3,
				2,
				9,
				8,
				7,
				6,
				14,
				13,
				12,
				11,
				18,
				17,
				16,
				15
			],
			"name":"Armature"
		}
	],
	"accessors":[
		{
			"bufferView":0,
			"componentType":5123,
			"count":228,
			"normalized":true,
			"type":"VEC4"
		},
		{
			"bufferView":1,
			"componentType":5126,
			"count":228,
			"max":[
				0.25445663928985596,
				0.40732643008232117,
				0.10000000149011612
			],
			"min":[
				-0.24450497329235077,
				-0.2947002351284027,
				-0.10000000149011612
			],
			"type":"VEC3"
		},
		{
			"bufferView":2,
			"componentType":5126,
			"count":228,
			"type":"VEC3"
		},
		{
			"bufferView":3,
			"componentType":5121,
			"count":228,
			"type":"VEC4"
		},
		{
			"bufferView":4,
			"componentType":5126,
			"count":228,
			"type":"VEC4"
		},
		{
			"bufferView":5,
			"componentType":5123,
			"count":768,
			"type":"SCALAR"
		},
		{
			"bufferView":6,
			"componentType":5123,
			"count":530,
			"normalized":true,
			"type":"VEC4"
		},
		{
			"bufferView":7,
			"componentType":5126,
			"count":530,
			"max":[
				0.5082874298095703,
				1.4051952362060547,
				0.10000001639127731
			],
			"min":[
				-0.4924623966217041,
				0.4051952660083771,
				-0.10000000894069672
			],
			"type":"VEC3"
		},
		{
			"bufferView":8,
			"componentType":5126,
			"count":530,
			"type":"VEC3"
		},
		{
			"bufferView":9,
			"componentType":5121,
			"count":530,
			"type":"VEC4"
		},
		{
			"bufferView":10,
			"componentType":5126,
			"count":530,
			"type":"VEC4"
		},
		{
			"bufferView":11,
			"componentType":5123,
			"count":1896,
			"type":"SCALAR"
		},
		{
			"bufferView":12,
			"componentType":5123,
			"count":336,
			"normalized":true,
			"type":"VEC4"
		},
		{
			"bufferView":13,
			"componentType":5126,
			"count":336,
			"max":[
				0.507660448551178,
				1.8983345031738281,
				0.2886205315589905
			],
			"min":[
				-0.4927598834037781,
				0.40513432025909424,
				-0.21137948334217072
			],
			"type":"VEC3"
		},
		{
			"bufferView":14,
			"componentType":5126,
			"count":336,
			"type":"VEC3"
		},
		{
			"bufferView":15,
			"componentType":5121,
			"count":336,
			"type":"VEC4"
		},
		{
			"bufferView":16,
			"componentType":5126,
			"count":336,
			"type":"VEC4"
		},
		{
			"bufferView":17,
			"componentType":5123,
			"count":1092,
			"type":"SCALAR"
		},
		{
			"bufferView":18,
			"componentType":5123,
			"count":128,
			"normalized":true,
			"type":"VEC4"
		},
		{
			"bufferView":19,
			"componentType":5126,
			"count":128,
			"max":[
				0.2536841630935669,
				-0.2925747036933899,
				0.10000000149011612
			],
			"min":[
				-0.2439521998167038,
				-0.3925746977329254,
				-0.10000000149011612
			],
			"type":"VEC3"
		},
		{
			"bufferView":20,
			"componentType":5126,
			"count":128,
			"type":"VEC3"
		},
		{
			"bufferView":21,
			"componentType":5121,
			"count":128,
			"type":"VEC4"
		},
		{
			"bufferView":22,
			"componentType":5126,
			"count":128,
			"type":"VEC4"
		},
		{
			"bufferView":23,
			"componentType":5123,
			"count":192,
			"type":"SCALAR"
		},
		{
			"bufferView":24,
			"componentType":5126,
			"count":19,
			"type":"MAT4"
		}
	],
	"bufferViews":[
		{
			"buffer":0,
			"byteLength":1824,
			"byteOffset":0,
			"target":34962
		},
		{
			"buffer":0,
			"byteLength":2736,
			"byteOffset":1824,
			"target":34962
		},
		{
			"buffer":0,
			"byteLength":2736,
			"byteOffset":4560,
			"target":34962
		},
		{
			"buffer":0,
			"byteLength":912,
			"byteOffset":7296,
			"target":34962
		},
		{
			"buffer":0,
			"byteLength":3648,
			"byteOffset":8208,
			"target":34962
		},
		{
			"buffer":0,
			"byteLength":1536,
			"byteOffset":11856,
			"target":34963
		},
		{
			"buffer":0,
			"byteLength":4240,
			"byteOffset":13392,
			"target":34962
		},
		{
			"buffer":0,
			"byteLength":6360,
			"byteOffset":17632,
			"target":34962
		},
		{
			"buffer":0,
			"byteLength":6360,
			"byteOffset":23992,
			"target":34962
		},
		{
			"buffer":0,
			"byteLength":2120,
			"byteOffset":30352,
			"target":34962
		},
		{
			"buffer":0,
			"byteLength":8480,
			"byteOffset":32472,
			"target":34962
		},
		{
			"buffer":0,
			"byteLength":3792,
			"byteOffset":40952,
			"target":34963
		},
		{
			"buffer":0,
			"byteLength":2688,
			"byteOffset":44744,
			"target":34962
		},
		{
			"buffer":0,
			"byteLength":4032,
			"byteOffset":47432,
			"target":34962
		},
		{
			"buffer":0,
			"byteLength":4032,
			"byteOffset":51464,
			"target":34962
		},
		{
			"buffer":0,
			"byteLength":1344,
			"byteOffset":55496,
			"target":34962
		},
		{
			"buffer":0,
			"byteLength":5376,
			"byteOffset":56840,
			"target":34962
		},
		{
			"buffer":0,
			"byteLength":2184,
			"byteOffset":62216,
			"target":34963
		},
		{
			"buffer":0,
			"byteLength":1024,
			"byteOffset":64400,
			"target":34962
		},
		{
			"buffer":0,
			"byteLength":1536,
			"byteOffset":65424,
			"target":34962
		},
		{
			"buffer":0,
			"byteLength":1536,
			"byteOffset":66960,
			"target":34962
		},
		{
			"buffer":0,
			"byteLength":512,
			"byteOffset":68496,
			"target":34962
		},
		{
			"buffer":0,
			"byteLength":2048,
			"byteOffset":69008,
			"target":34962
		},
		{
			"buffer":0,
			"byteLength":384,
			"byteOffset":71056,
			"target":34963
		},
		{
			"buffer":0,
			"byteLength":1216,
			"byteOffset":71440
		}
	],
	"buffers":[
		{
			"byteLength":72656,
			"uri":"data:application/octet-stream;base64,"
		}
	]
}
