{
	"asset":{
		"generator":"Khronos glTF Blender I/O v3.5.30",
		"version":"2.0"
	},
	"scene":0,
	"scenes":[
		{
			"name":"Scene",
			"nodes":[
				18
			]
		}
	],
	"nodes":[
		{
			"name":"forearm.r",
			"rotation":[
				-2.1004661121537538e-08,
				-7.241621347020555e-08,
				-0.002943702507764101,
				0.9999957084655762
			],
			"translation":[
				-1.26651453769e-08,
				0.2637881636619568,
				-6.019718057359569e-11
			]
		},
		{
			"children":[
				0
			],
			"name":"upperarm.r",
			"rotation":[
				-1.0310706954896887e-07,
				-9.281843915687205e-08,
				-0.7294531464576721,
				0.6840308308601379
			],
			"translation":[
				6.513182171374865e-08,
				0.0924176573753357,
				-3.5491609651217004e-11
			]
		},
		{
			"children":[
				1
			],
			"name":"shoulder.r",
			"rotation":[
				1.7955503750499702e-08,
				-4.7471210962157784e-08,
				-0.2958779036998749,
				0.9552257657051086
			],
			"scale":[
				1.0000001192092896,
				1.0000001192092896,
				1
			],
			"translation":[
				-1.6341154207566433e-07,
				0.27298593521118164,
				2.873061788477571e-10
			]
		},
		{
			"children":[
				2
			],
			"name":"buffer.r",
			"rotation":[
				1.1978444547366962e-07,
				-3.380764113103396e-08,
				-0.44505196809768677,
				0.8955047726631165
			],
			"translation":[
				1.1102230246251565e-16,
				0.34018194675445557,
				-4.656612873077393e-10
			]
		},
		{
			"name":"head",
			"rotation":[
				-1.7999626678033565e-08,
				2.0780897003191967e-09,
				0.0013111830921843648,
				0.9999991655349731
			],
			"scale":[
				0.9999999403953552,
				1,
				1
			],
			"translation":[
				4.096047390156343e-10,
				0.20441940426826477,
				-5.495554011858417e-10
			]
		},
		{
			"children":[
				4
			],
			"name":"buffer.m",
			"rotation":[
				7.398438128802809e-08,
				-3.5996333025423155e-08,
				-0.005376111250370741,
				0.9999855756759644
			],
			"translation":[
				1.1102230246251565e-16,
				0.34018194675445557,
				-4.656612873077393e-10
			]
		},
		{
			"name":"forearm.l",
			"rotation":[
				-2.1004661121537538e-08,
				7.241621347020555e-08,
				0.002943702507764101,
				0.9999957084655762
			],
			"translation":[
				1.26651453769e-08,
				0.2637881636619568,
				-6.021139142831089e-11
			]
		},
		{
			"children":[
				6
			],
			"name":"upperarm.l",
			"rotation":[
				-1.0310704823268679e-07,
				9.281843205144469e-08,
				0.7294531464576721,
				0.6840308308601379
			],
			"translation":[
				-6.513182171374865e-08,
				0.0924176573753357,
				-3.5508040951981457e-11
			]
		},
		{
			"children":[
				7
			],
			"name":"shoulder.l",
			"rotation":[
				1.7955498421429184e-08,
				4.747118964587571e-08,
				0.2958779036998749,
				0.9552257657051086
			],
			"scale":[
				1.0000001192092896,
				1.0000001192092896,
				1
			],
			"translation":[
				1.6341154207566433e-07,
				0.27298593521118164,
				2.873576931960997e-10
			]
		},
		{
			"children":[
				8
			],
			"name":"buffer.l",
			"rotation":[
				1.3675792054357316e-08,
				-1.7969726684441412e-07,
				0.44505196809768677,
				0.8955047726631165
			],
			"translation":[
				1.1102230246251565e-16,
				0.34018194675445557,
				-4.656612873077393e-10
			]
		},
		{
			"children":[
				3,
				5,
				9
			],
			"name":"torso",
			"rotation":[
				-2.980232594040899e-08,
				1.1920927533992653e-07,
				0,
				1
			],
			"scale":[
				1,
				0.9999999403953552,
				0.9999999403953552
			],
			"translation":[
				0,
				0.6303660869598389,
				0.17935103178024292
			]
		},
		{
			"name":"ankle.r",
			"rotation":[
				-0.0005985602037981153,
				-8.787382910213637e-08,
				6.2624025964908014e-09,
				0.9999998211860657
			],
			"translation":[
				-5.168967476265607e-10,
				0.3099391758441925,
				7.302565219191592e-10
			]
		},
		{
			"children":[
				11
			],
			"name":"thigh.r",
			"rotation":[
				-0.2228451818227768,
				-1.2997266196634882e-07,
				-4.624073568493259e-09,
				0.9748538732528687
			],
			"scale":[
				1,
				0.9999999403953552,
				1
			],
			"translation":[
				-6.245491679379711e-09,
				0.23590661585330963,
				-4.4387107323018427e-08
			]
		},
		{
			"children":[
				12
			],
			"name":"pelvic.r",
			"rotation":[
				-0.6881909966468811,
				0.16245979070663452,
				0.6881908774375916,
				0.16245990991592407
			],
			"scale":[
				1,
				0.9999998807907104,
				1
			],
			"translation":[
				0,
				0.6303660869598389,
				0.17935103178024292
			]
		},
		{
			"name":"ankle.l",
			"rotation":[
				-0.022385654971003532,
				-0.00296048098243773,
				0.014724047854542732,
				0.9996365904808044
			],
			"scale":[
				0.9999999403953552,
				0.9999999403953552,
				1.0000001192092896
			],
			"translation":[
				9.313225746154785e-10,
				0.3044818937778473,
				-5.264155333861709e-09
			]
		},
		{
			"children":[
				14
			],
			"name":"thigh.l",
			"rotation":[
				-0.20468555390834808,
				-0.014711364172399044,
				-0.0029430787544697523,
				0.978712797164917
			],
			"scale":[
				0.9999999403953552,
				1,
				1
			],
			"translation":[
				4.8588972845209355e-09,
				0.23192816972732544,
				-2.0185581206533243e-08
			]
		},
		{
			"children":[
				15
			],
			"name":"torso.001",
			"rotation":[
				-0.6906864643096924,
				-0.15150050818920135,
				-0.6906861662864685,
				0.15150053799152374
			],
			"scale":[
				0.9999998807907104,
				0.9999999403953552,
				1
			],
			"translation":[
				0,
				0.6303660869598389,
				0.17935103178024292
			]
		},
		{
			"mesh":0,
			"name":"human_male",
			"skin":0
		},
		{
			"children":[
				17,
				10,
				13,
				16
			],
			"name":"Armature",
			"translation":[
				0,
				0.3836541175842285,
				-0.18462607264518738
			]
		}
	],
	"materials":[
		{
			"doubleSided":true,
			"name":"shoe",
			"pbrMetallicRoughness":{
				"baseColorFactor":[
					0.21403473615646362,
					0.21403473615646362,
					0.21403473615646362,
					1
				],
				"metallicFactor":0,
				"roughnessFactor":0.5
			}
		},
		{
			"doubleSided":true,
			"name":"shirt",
			"pbrMetallicRoughness":{
				"baseColorFactor":[
					0.024198710918426514,
					0.42467108368873596,
					0.8000000715255737,
					1
				],
				"metallicFactor":0,
				"roughnessFactor":0.5
			}
		},
		{
			"doubleSided":true,
			"name":"pants",
			"pbrMetallicRoughness":{
				"baseColorFactor":[
					0.02160133235156536,
					0.8000000715255737,
					0,
					1
				],
				"metallicFactor":0,
				"roughnessFactor":0.5
			}
		},
		{
			"doubleSided":true,
			"name":"skin",
			"pbrMetallicRoughness":{
				"baseColorFactor":[
					0.8000000715255737,
					0.5867509245872498,
					0.036837734282016754,
					1
				],
				"metallicFactor":0,
				"roughnessFactor":0.5
			}
		}
	],
	"meshes":[
		{
			"name":"hand.002",
			"primitives":[
				{
					"attributes":{
						"COLOR_0":0,
						"POSITION":1,
						"NORMAL":2,
						"JOINTS_0":3,
						"WEIGHTS_0":4
					},
					"indices":5,
					"material":0
				},
				{
					"attributes":{
						"COLOR_0":6,
						"POSITION":7,
						"NORMAL":8,
						"JOINTS_0":9,
						"WEIGHTS_0":10
					},
					"indices":11,
					"material":1
				},
				{
					"attributes":{
						"COLOR_0":12,
						"POSITION":13,
						"NORMAL":14,
						"JOINTS_0":15,
						"WEIGHTS_0":16
					},
					"indices":17,
					"material":2
				},
				{
					"attributes":{
						"COLOR_0":18,
						"POSITION":19,
						"NORMAL":20,
						"JOINTS_0":21,
						"WEIGHTS_0":22
					},
					"indices":23,
					"material":3
				}
			]
		}
	],
	"skins":[
		{
			"inverseBindMatrices":24,
			"joints":[
				10,
				3,
				2,
				1,
				0,
				5,
				4,
				9,
				8,
				7,
				6,
				13,
				12,
				11,
				16,
				15,
				14
			],
			"name":"Armature"
		}
	],
	"accessors":[
		{
			"bufferView":0,
			"componentType":5123,
			"count":84,
			"normalized":true,
			"type":"VEC4"
		},
		{
			"bufferView":1,
			"componentType":5126,
			"count":84,
			"max":[
				0.20022571086883545,
				0.21605080366134644,
				0.10000000149011612
			],
			"min":[
				-0.20022571086883545,
				0.11605080962181091,
				-0.10000000149011612
			],
			"type":"VEC3"
		},
		{
			"bufferView":2,
			"componentType":5126,
			"count":84,
			"type":"VEC3"
		},
		{
			"bufferView":3,
			"componentType":5121,
			"count":84,
			"type":"VEC4"
		},
		{
			"bufferView":4,
			"componentType":5126,
			"count":84,
			"type":"VEC4"
		},
		{
			"bufferView":5,
			"componentType":5123,
			"count":192,
			"type":"SCALAR"
		},
		{
			"bufferView":6,
			"componentType":5123,
			"count":458,
			"normalized":true,
			"type":"VEC4"
		},
		{
			"bufferView":7,
			"componentType":5126,
			"count":458,
			"max":[
				0.3999517261981964,
				1.5467333793640137,
				0.10000000149011612
			],
			"min":[
				-0.3999752104282379,
				0.8167333602905273,
				-0.10000000149011612
			],
			"type":"VEC3"
		},
		{
			"bufferView":8,
			"componentType":5126,
			"count":458,
			"type":"VEC3"
		},
		{
			"bufferView":9,
			"componentType":5121,
			"count":458,
			"type":"VEC4"
		},
		{
			"bufferView":10,
			"componentType":5126,
			"count":458,
			"type":"VEC4"
		},
		{
			"bufferView":11,
			"componentType":5123,
			"count":1584,
			"type":"SCALAR"
		},
		{
			"bufferView":12,
			"componentType":5123,
			"count":169,
			"normalized":true,
			"type":"VEC4"
		},
		{
			"bufferView":13,
			"componentType":5126,
			"count":169,
			"max":[
				0.20019754767417908,
				0.817690372467041,
				0.10000000149011612
			],
			"min":[
				-0.199753075838089,
				0.21769028902053833,
				-0.10000000149011612
			],
			"type":"VEC3"
		},
		{
			"bufferView":14,
			"componentType":5126,
			"count":169,
			"type":"VEC3"
		},
		{
			"bufferView":15,
			"componentType":5121,
			"count":169,
			"type":"VEC4"
		},
		{
			"bufferView":16,
			"componentType":5126,
			"count":169,
			"type":"VEC4"
		},
		{
			"bufferView":17,
			"componentType":5123,
			"count":600,
			"type":"SCALAR"
		},
		{
			"bufferView":18,
			"componentType":5123,
			"count":300,
			"normalized":true,
			"type":"VEC4"
		},
		{
			"bufferView":19,
			"componentType":5126,
			"count":300,
			"max":[
				0.3989280164241791,
				1.9210971593856812,
				0.17734579741954803
			],
			"min":[
				-0.4000084400177002,
				0.9287768602371216,
				-0.19765421748161316
			],
			"type":"VEC3"
		},
		{
			"bufferView":20,
			"componentType":5126,
			"count":300,
			"type":"VEC3"
		},
		{
			"bufferView":21,
			"componentType":5121,
			"count":300,
			"type":"VEC4"
		},
		{
			"bufferView":22,
			"componentType":5126,
			"count":300,
			"type":"VEC4"
		},
		{
			"bufferView":23,
			"componentType":5123,
			"count":1092,
			"type":"SCALAR"
		},
		{
			"bufferView":24,
			"componentType":5126,
			"count":17,
			"type":"MAT4"
		}
	],
	"bufferViews":[
		{
			"buffer":0,
			"byteLength":672,
			"byteOffset":0,
			"target":34962
		},
		{
			"buffer":0,
			"byteLength":1008,
			"byteOffset":672,
			"target":34962
		},
		{
			"buffer":0,
			"byteLength":1008,
			"byteOffset":1680,
			"target":34962
		},
		{
			"buffer":0,
			"byteLength":336,
			"byteOffset":2688,
			"target":34962
		},
		{
			"buffer":0,
			"byteLength":1344,
			"byteOffset":3024,
			"target":34962
		},
		{
			"buffer":0,
			"byteLength":384,
			"byteOffset":4368,
			"target":34963
		},
		{
			"buffer":0,
			"byteLength":3664,
			"byteOffset":4752,
			"target":34962
		},
		{
			"buffer":0,
			"byteLength":5496,
			"byteOffset":8416,
			"target":34962
		},
		{
			"buffer":0,
			"byteLength":5496,
			"byteOffset":13912,
			"target":34962
		},
		{
			"buffer":0,
			"byteLength":1832,
			"byteOffset":19408,
			"target":34962
		},
		{
			"buffer":0,
			"byteLength":7328,
			"byteOffset":21240,
			"target":34962
		},
		{
			"buffer":0,
			"byteLength":3168,
			"byteOffset":28568,
			"target":34963
		},
		{
			"buffer":0,
			"byteLength":1352,
			"byteOffset":31736,
			"target":34962
		},
		{
			"buffer":0,
			"byteLength":2028,
			"byteOffset":33088,
			"target":34962
		},
		{
			"buffer":0,
			"byteLength":2028,
			"byteOffset":35116,
			"target":34962
		},
		{
			"buffer":0,
			"byteLength":676,
			"byteOffset":37144,
			"target":34962
		},
		{
			"buffer":0,
			"byteLength":2704,
			"byteOffset":37820,
			"target":34962
		},
		{
			"buffer":0,
			"byteLength":1200,
			"byteOffset":40524,
			"target":34963
		},
		{
			"buffer":0,
			"byteLength":2400,
			"byteOffset":41724,
			"target":34962
		},
		{
			"buffer":0,
			"byteLength":3600,
			"byteOffset":44124,
			"target":34962
		},
		{
			"buffer":0,
			"byteLength":3600,
			"byteOffset":47724,
			"target":34962
		},
		{
			"buffer":0,
			"byteLength":1200,
			"byteOffset":51324,
			"target":34962
		},
		{
			"buffer":0,
			"byteLength":4800,
			"byteOffset":52524,
			"target":34962
		},
		{
			"buffer":0,
			"byteLength":2184,
			"byteOffset":57324,
			"target":34963
		},
		{
			"buffer":0,
			"byteLength":1088,
			"byteOffset":59508
		}
	],
	"buffers":[
		{
			"byteLength":60596,
			"uri":"data:application/octet-stream;base64,"
		}
	]
}
