{
	"asset":{
		"generator":"Khronos glTF Blender I/O v3.5.30",
		"version":"2.0"
	},
	"scene":0,
	"scenes":[
		{
			"name":"Scene",
			"nodes":[
				26
			]
		}
	],
	"nodes":[
		{
			"name":"hand.r",
			"rotation":[
				-4.791232965928316e-10,
				-2.1891214174729612e-08,
				-0.007243492174893618,
				0.9999737739562988
			],
			"scale":[
				0.9999999403953552,
				1,
				1
			],
			"translation":[
				1.4901156752955558e-08,
				0.17478211224079132,
				0
			]
		},
		{
			"children":[
				0
			],
			"name":"wrist.r",
			"rotation":[
				-4.1227913444297215e-11,
				7.130577728275966e-08,
				-0.0003567245148587972,
				0.9999999403953552
			],
			"translation":[
				-7.450592143243284e-09,
				0.2152436077594757,
				3.552713678800501e-14
			]
		},
		{
			"children":[
				1
			],
			"name":"forearm.r",
			"rotation":[
				-9.140897760939737e-11,
				-1.7404686047939322e-07,
				-0.007131565827876329,
				0.9999746084213257
			],
			"translation":[
				-7.4505766001209395e-09,
				0.2076272815465927,
				-3.019806626980426e-14
			]
		},
		{
			"children":[
				2
			],
			"name":"upperarm.r",
			"rotation":[
				-1.9478852664178703e-07,
				-8.39400726704298e-08,
				0.7233618497848511,
				0.6904691457748413
			],
			"scale":[
				1.0000001192092896,
				1,
				1
			],
			"translation":[
				-7.078051567077637e-08,
				0.1259288638830185,
				-2.067790383364354e-14
			]
		},
		{
			"children":[
				3
			],
			"name":"shoulder.r",
			"rotation":[
				2.6278710762994706e-08,
				1.1038636671401036e-07,
				-0.17020781338214874,
				0.9854081869125366
			],
			"translation":[
				-1.9744038581848145e-07,
				0.1879420131444931,
				-5.218048215738236e-15
			]
		},
		{
			"children":[
				4
			],
			"name":"collar.r",
			"rotation":[
				-1.0547784512482394e-07,
				-6.458968471179105e-08,
				0.779231607913971,
				0.6267361640930176
			],
			"scale":[
				0.9999999403953552,
				0.9999999403953552,
				1
			],
			"translation":[
				0,
				0.5370568037033081,
				0
			]
		},
		{
			"name":"head",
			"rotation":[
				-8.745260515752307e-09,
				0,
				-2.0850325860386626e-15,
				1
			],
			"translation":[
				8.470329472543003e-22,
				0.309542179107666,
				-3.552713678800501e-15
			]
		},
		{
			"children":[
				6
			],
			"name":"neck",
			"rotation":[
				7.592467454742291e-08,
				0,
				1.8101853024345138e-14,
				1
			],
			"translation":[
				0,
				0.5370568037033081,
				0
			]
		},
		{
			"name":"hand.l",
			"rotation":[
				-4.791211871690848e-10,
				2.1891207069302254e-08,
				0.007243492174893618,
				0.9999737739562988
			],
			"scale":[
				0.9999999403953552,
				1,
				1
			],
			"translation":[
				-1.4901156752955558e-08,
				0.17478211224079132,
				-1.4210854715202004e-14
			]
		},
		{
			"children":[
				8
			],
			"name":"wrist.l",
			"rotation":[
				-4.122491584213073e-11,
				-7.13057701773323e-08,
				0.0003567245148587972,
				0.9999999403953552
			],
			"translation":[
				7.450592143243284e-09,
				0.2152436077594757,
				2.4868995751603507e-14
			]
		},
		{
			"children":[
				9
			],
			"name":"forearm.l",
			"rotation":[
				-9.140675716334812e-11,
				1.7404686047939322e-07,
				0.007131565827876329,
				0.9999746084213257
			],
			"translation":[
				7.4505766001209395e-09,
				0.2076272815465927,
				-1.5987211554602254e-14
			]
		},
		{
			"children":[
				10
			],
			"name":"upperarm.l",
			"rotation":[
				-1.9478848400922288e-07,
				8.39400726704298e-08,
				-0.7233618497848511,
				0.6904691457748413
			],
			"scale":[
				1.0000001192092896,
				1,
				1
			],
			"translation":[
				7.078051567077637e-08,
				0.1259288638830185,
				1.1296519275560968e-14
			]
		},
		{
			"children":[
				11
			],
			"name":"shoulder.l",
			"rotation":[
				2.6278703657567348e-08,
				-1.1038635250315565e-07,
				0.17020781338214874,
				0.9854081869125366
			],
			"translation":[
				1.9744038581848145e-07,
				0.1879420131444931,
				7.771561172376096e-16
			]
		},
		{
			"children":[
				12
			],
			"name":"collar.l",
			"rotation":[
				8.030544762505087e-08,
				-8.483585389740256e-08,
				-0.779231607913971,
				0.6267361640930176
			],
			"scale":[
				0.9999999403953552,
				0.9999999403953552,
				1
			],
			"translation":[
				0,
				0.5370568037033081,
				0
			]
		},
		{
			"children":[
				5,
				7,
				13
			],
			"name":"torso",
			"rotation":[
				0,
				1.1920928955078125e-07,
				0,
				1
			],
			"translation":[
				0,
				0.16774624586105347,
				0
			]
		},
		{
			"name":"foot.r",
			"rotation":[
				-0.006409869529306889,
				2.8715266608969614e-08,
				-6.67945643240131e-10,
				0.9999794960021973
			],
			"scale":[
				1,
				1,
				0.9999999403953552
			],
			"translation":[
				4.440892098500626e-15,
				0.1428656131029129,
				-7.450565941979903e-09
			]
		},
		{
			"children":[
				15
			],
			"name":"ankle.r",
			"rotation":[
				-1.0824291604733338e-16,
				-5.182780728429882e-16,
				-2.7780092137254242e-14,
				1
			],
			"translation":[
				7.993605777301127e-15,
				0.24177268147468567,
				-7.450565941979903e-09
			]
		},
		{
			"children":[
				16
			],
			"name":"lowerleg.r",
			"rotation":[
				-0.006328709423542023,
				1.0780937920173983e-08,
				-4.095611627619178e-10,
				0.9999799728393555
			],
			"scale":[
				1,
				0.9999999403953552,
				1
			],
			"translation":[
				-4.440892098500626e-16,
				0.28941771388053894,
				-4.656550145476501e-10
			]
		},
		{
			"children":[
				17
			],
			"name":"thigh.r",
			"rotation":[
				-0.22358891367912292,
				-8.670176754321801e-08,
				-4.773166040195065e-08,
				0.9746835827827454
			],
			"translation":[
				1.7763568394002505e-15,
				0.2335478514432907,
				1.4901164746561335e-08
			]
		},
		{
			"children":[
				18
			],
			"name":"pelvic.r",
			"rotation":[
				-0.6881910562515259,
				0.1624598205089569,
				0.6881908178329468,
				0.16245988011360168
			],
			"scale":[
				1.0000001192092896,
				0.9999999403953552,
				1
			],
			"translation":[
				0,
				0.16774624586105347,
				0
			]
		},
		{
			"name":"foot.l",
			"rotation":[
				-0.006409869529306889,
				-2.8715266608969614e-08,
				6.67945643240131e-10,
				0.9999794960021973
			],
			"scale":[
				1,
				1,
				0.9999999403953552
			],
			"translation":[
				-4.440892098500626e-15,
				0.1428656131029129,
				-7.450565941979903e-09
			]
		},
		{
			"children":[
				20
			],
			"name":"ankle.l",
			"rotation":[
				-1.0824291604733338e-16,
				5.182780728429882e-16,
				2.7780092137254242e-14,
				1
			],
			"translation":[
				-7.993605777301127e-15,
				0.24177268147468567,
				-7.450565941979903e-09
			]
		},
		{
			"children":[
				21
			],
			"name":"lowerleg.l",
			"rotation":[
				-0.006328709423542023,
				-1.0780937920173983e-08,
				4.095611627619178e-10,
				0.9999799728393555
			],
			"scale":[
				1,
				0.9999999403953552,
				1
			],
			"translation":[
				4.440892098500626e-16,
				0.28941771388053894,
				-4.656550145476501e-10
			]
		},
		{
			"children":[
				22
			],
			"name":"thigh.l",
			"rotation":[
				-0.22358891367912292,
				8.670176754321801e-08,
				4.773166040195065e-08,
				0.9746835827827454
			],
			"translation":[
				-1.7763568394002505e-15,
				0.2335478514432907,
				1.4901164746561335e-08
			]
		},
		{
			"children":[
				23
			],
			"name":"pelvic.l",
			"rotation":[
				-0.6881910562515259,
				-0.1624598205089569,
				-0.6881908178329468,
				0.16245988011360168
			],
			"scale":[
				1.0000001192092896,
				0.9999999403953552,
				1
			],
			"translation":[
				0,
				0.16774624586105347,
				0
			]
		},
		{
			"mesh":0,
			"name":"human_male",
			"skin":0
		},
		{
			"children":[
				25,
				14,
				19,
				24
			],
			"name":"Armature",
			"translation":[
				0,
				0.7311205267906189,
				0
			]
		}
	],
	"materials":[
		{
			"doubleSided":true,
			"name":"skin",
			"pbrMetallicRoughness":{
				"baseColorFactor":[
					1,
					0.8523243069648743,
					0,
					1
				],
				"metallicFactor":0,
				"roughnessFactor":0.5
			}
		},
		{
			"doubleSided":true,
			"name":"shirt_cloth",
			"pbrMetallicRoughness":{
				"baseColorFactor":[
					0.05729574337601662,
					0.22025775909423828,
					0.02381632663309574,
					1
				],
				"metallicFactor":0,
				"roughnessFactor":0.5
			}
		},
		{
			"doubleSided":true,
			"name":"pant_cloth",
			"pbrMetallicRoughness":{
				"baseColorFactor":[
					0.039128854870796204,
					0.019433744251728058,
					0.8000000715255737,
					1
				],
				"metallicFactor":0,
				"roughnessFactor":0.5
			}
		},
		{
			"doubleSided":true,
			"name":"shoe",
			"pbrMetallicRoughness":{
				"baseColorFactor":[
					0.0063702864572405815,
					0.0063702864572405815,
					0.0063702864572405815,
					1
				],
				"metallicFactor":0,
				"roughnessFactor":0.5
			}
		}
	],
	"meshes":[
		{
			"name":"head",
			"primitives":[
				{
					"attributes":{
						"COLOR_0":0,
						"POSITION":1,
						"NORMAL":2,
						"JOINTS_0":3,
						"WEIGHTS_0":4
					},
					"indices":5,
					"material":0
				},
				{
					"attributes":{
						"COLOR_0":6,
						"POSITION":7,
						"NORMAL":8,
						"JOINTS_0":9,
						"WEIGHTS_0":10
					},
					"indices":11,
					"material":1
				},
				{
					"attributes":{
						"COLOR_0":12,
						"POSITION":13,
						"NORMAL":14,
						"JOINTS_0":15,
						"WEIGHTS_0":16
					},
					"indices":17,
					"material":2
				},
				{
					"attributes":{
						"COLOR_0":18,
						"POSITION":19,
						"NORMAL":20,
						"JOINTS_0":21,
						"WEIGHTS_0":22
					},
					"indices":23,
					"material":3
				}
			]
		}
	],
	"skins":[
		{
			"inverseBindMatrices":24,
			"joints":[
				14,
				5,
				4,
				3,
				2,
				1,
				0,
				7,
				6,
				13,
				12,
				11,
				10,
				9,
				8,
				19,
				18,
				17,
				16,
				15,
				24,
				23,
				22,
				21,
				20
			],
			"name":"Armature"
		}
	],
	"accessors":[
		{
			"bufferView":0,
			"componentType":5123,
			"count":300,
			"normalized":true,
			"type":"VEC4"
		},
		{
			"bufferView":1,
			"componentType":5126,
			"count":300,
			"max":[
				0.47589173913002014,
				1.8081965446472168,
				0.18956273794174194
			],
			"min":[
				-0.46169817447662354,
				0.7767922282218933,
				-0.18543727695941925
			],
			"type":"VEC3"
		},
		{
			"bufferView":2,
			"componentType":5126,
			"count":300,
			"type":"VEC3"
		},
		{
			"bufferView":3,
			"componentType":5121,
			"count":300,
			"type":"VEC4"
		},
		{
			"bufferView":4,
			"componentType":5126,
			"count":300,
			"type":"VEC4"
		},
		{
			"bufferView":5,
			"componentType":5123,
			"count":1092,
			"type":"SCALAR"
		},
		{
			"bufferView":6,
			"componentType":5123,
			"count":390,
			"normalized":true,
			"type":"VEC4"
		},
		{
			"bufferView":7,
			"componentType":5126,
			"count":390,
			"max":[
				0.46527737379074097,
				1.4523624181747437,
				0.10000000894069672
			],
			"min":[
				-0.453518271446228,
				0.6838164329528809,
				-0.10000000149011612
			],
			"type":"VEC3"
		},
		{
			"bufferView":8,
			"componentType":5126,
			"count":390,
			"type":"VEC3"
		},
		{
			"bufferView":9,
			"componentType":5121,
			"count":390,
			"type":"VEC4"
		},
		{
			"bufferView":10,
			"componentType":5126,
			"count":390,
			"type":"VEC4"
		},
		{
			"bufferView":11,
			"componentType":5123,
			"count":1584,
			"type":"SCALAR"
		},
		{
			"bufferView":12,
			"componentType":5123,
			"count":204,
			"normalized":true,
			"type":"VEC4"
		},
		{
			"bufferView":13,
			"componentType":5126,
			"count":204,
			"max":[
				0.20978695154190063,
				0.6846398711204529,
				0.10000000894069672
			],
			"min":[
				-0.2102815955877304,
				0.0846397876739502,
				-0.10000000149011612
			],
			"type":"VEC3"
		},
		{
			"bufferView":14,
			"componentType":5126,
			"count":204,
			"type":"VEC3"
		},
		{
			"bufferView":15,
			"componentType":5121,
			"count":204,
			"type":"VEC4"
		},
		{
			"bufferView":16,
			"componentType":5126,
			"count":204,
			"type":"VEC4"
		},
		{
			"bufferView":17,
			"componentType":5123,
			"count":672,
			"type":"SCALAR"
		},
		{
			"bufferView":18,
			"componentType":5123,
			"count":84,
			"normalized":true,
			"type":"VEC4"
		},
		{
			"bufferView":19,
			"componentType":5126,
			"count":84,
			"max":[
				0.20936059951782227,
				0.08681228756904602,
				0.10000000894069672
			],
			"min":[
				-0.21064287424087524,
				-0.013187706470489502,
				-0.10000000149011612
			],
			"type":"VEC3"
		},
		{
			"bufferView":20,
			"componentType":5126,
			"count":84,
			"type":"VEC3"
		},
		{
			"bufferView":21,
			"componentType":5121,
			"count":84,
			"type":"VEC4"
		},
		{
			"bufferView":22,
			"componentType":5126,
			"count":84,
			"type":"VEC4"
		},
		{
			"bufferView":23,
			"componentType":5123,
			"count":192,
			"type":"SCALAR"
		},
		{
			"bufferView":24,
			"componentType":5126,
			"count":25,
			"type":"MAT4"
		}
	],
	"bufferViews":[
		{
			"buffer":0,
			"byteLength":2400,
			"byteOffset":0,
			"target":34962
		},
		{
			"buffer":0,
			"byteLength":3600,
			"byteOffset":2400,
			"target":34962
		},
		{
			"buffer":0,
			"byteLength":3600,
			"byteOffset":6000,
			"target":34962
		},
		{
			"buffer":0,
			"byteLength":1200,
			"byteOffset":9600,
			"target":34962
		},
		{
			"buffer":0,
			"byteLength":4800,
			"byteOffset":10800,
			"target":34962
		},
		{
			"buffer":0,
			"byteLength":2184,
			"byteOffset":15600,
			"target":34963
		},
		{
			"buffer":0,
			"byteLength":3120,
			"byteOffset":17784,
			"target":34962
		},
		{
			"buffer":0,
			"byteLength":4680,
			"byteOffset":20904,
			"target":34962
		},
		{
			"buffer":0,
			"byteLength":4680,
			"byteOffset":25584,
			"target":34962
		},
		{
			"buffer":0,
			"byteLength":1560,
			"byteOffset":30264,
			"target":34962
		},
		{
			"buffer":0,
			"byteLength":6240,
			"byteOffset":31824,
			"target":34962
		},
		{
			"buffer":0,
			"byteLength":3168,
			"byteOffset":38064,
			"target":34963
		},
		{
			"buffer":0,
			"byteLength":1632,
			"byteOffset":41232,
			"target":34962
		},
		{
			"buffer":0,
			"byteLength":2448,
			"byteOffset":42864,
			"target":34962
		},
		{
			"buffer":0,
			"byteLength":2448,
			"byteOffset":45312,
			"target":34962
		},
		{
			"buffer":0,
			"byteLength":816,
			"byteOffset":47760,
			"target":34962
		},
		{
			"buffer":0,
			"byteLength":3264,
			"byteOffset":48576,
			"target":34962
		},
		{
			"buffer":0,
			"byteLength":1344,
			"byteOffset":51840,
			"target":34963
		},
		{
			"buffer":0,
			"byteLength":672,
			"byteOffset":53184,
			"target":34962
		},
		{
			"buffer":0,
			"byteLength":1008,
			"byteOffset":53856,
			"target":34962
		},
		{
			"buffer":0,
			"byteLength":1008,
			"byteOffset":54864,
			"target":34962
		},
		{
			"buffer":0,
			"byteLength":336,
			"byteOffset":55872,
			"target":34962
		},
		{
			"buffer":0,
			"byteLength":1344,
			"byteOffset":56208,
			"target":34962
		},
		{
			"buffer":0,
			"byteLength":384,
			"byteOffset":57552,
			"target":34963
		},
		{
			"buffer":0,
			"byteLength":1600,
			"byteOffset":57936
		}
	],
	"buffers":[
		{
			"byteLength":59536,
			"uri":"data:application/octet-stream;base64,"
		}
	]
}
