{
	"asset":{
		"generator":"Khronos glTF Blender I/O v3.5.30",
		"version":"2.0"
	},
	"scene":0,
	"scenes":[
		{
			"name":"Scene",
			"nodes":[
				20
			]
		}
	],
	"nodes":[
		{
			"name":"headleaf",
			"rotation":[
				2.00504146619096e-09,
				-6.432200194694815e-08,
				-0.0003525654610712081,
				0.9999999403953552
			],
			"scale":[
				1,
				0.9999999403953552,
				1
			],
			"translation":[
				-4.778215600964586e-10,
				0.3604678213596344,
				5.123864887934815e-09
			]
		},
		{
			"children":[
				0
			],
			"name":"neck",
			"rotation":[
				6.727992030164387e-08,
				3.434334061580557e-08,
				-0.003048738231882453,
				0.9999953508377075
			],
			"translation":[
				0,
				0.7186645269393921,
				0
			]
		},
		{
			"name":"handleaf.r",
			"rotation":[
				2.0330137573409957e-10,
				-2.9182139371641824e-08,
				-0.0058136279694736,
				0.9999831318855286
			],
			"translation":[
				1.1828232615584966e-08,
				0.15605327486991882,
				-1.39318601100058e-09
			]
		},
		{
			"children":[
				2
			],
			"name":"hand.r",
			"rotation":[
				-8.903113801750351e-10,
				-8.147477359443656e-08,
				0.004098235629498959,
				0.9999915957450867
			],
			"scale":[
				0.9999999403953552,
				1.0000001192092896,
				1
			],
			"translation":[
				-2.564015844086498e-08,
				0.26815691590309143,
				-8.929248451750027e-10
			]
		},
		{
			"children":[
				3
			],
			"name":"forearm.r",
			"rotation":[
				-7.010600455714666e-08,
				-6.981325384458614e-08,
				-0.004098235163837671,
				0.9999916553497314
			],
			"scale":[
				0.9999999403953552,
				0.9999999403953552,
				1
			],
			"translation":[
				-4.035147327385857e-09,
				0.22418922185897827,
				9.36069000090356e-11
			]
		},
		{
			"children":[
				4
			],
			"name":"upperarm.r",
			"rotation":[
				-4.371138828673793e-08,
				0,
				-1,
				5.810720557063859e-15
			],
			"translation":[
				-0.389034241437912,
				0.7230603694915771,
				0
			]
		},
		{
			"name":"handleaf.l",
			"rotation":[
				1.5135555031520198e-08,
				-1.9896076253189676e-07,
				-0.019429704174399376,
				0.9998112320899963
			],
			"translation":[
				5.194536356611934e-09,
				0.15606406331062317,
				-1.418491990534676e-10
			]
		},
		{
			"children":[
				6
			],
			"name":"hand.l",
			"rotation":[
				-4.589144619870922e-09,
				3.7234696037558024e-07,
				0.005185209214687347,
				0.9999865889549255
			],
			"scale":[
				0.9999999403953552,
				0.9999999403953552,
				1
			],
			"translation":[
				-6.661473150870734e-09,
				0.2681480646133423,
				3.4071589993800444e-10
			]
		},
		{
			"children":[
				7
			],
			"name":"forearm.l",
			"rotation":[
				-6.952654274527958e-08,
				5.144172643412048e-09,
				0.0006830745260231197,
				0.9999997615814209
			],
			"scale":[
				0.9999999403953552,
				1.0000001192092896,
				1
			],
			"translation":[
				4.035147327385857e-09,
				0.22418922185897827,
				-7.070148910770513e-10
			]
		},
		{
			"children":[
				8
			],
			"name":"upperarm.l",
			"rotation":[
				-4.371138828673793e-08,
				0,
				1,
				5.810720557063859e-15
			],
			"translation":[
				0.3850046992301941,
				0.7230603694915771,
				0
			]
		},
		{
			"children":[
				1,
				5,
				9
			],
			"name":"torso",
			"translation":[
				0.0065938010811805725,
				0.24177268147468567,
				-0.04615660756826401
			]
		},
		{
			"name":"footleaf.r",
			"rotation":[
				-0.012304459698498249,
				-1.347663101114449e-07,
				1.9303809661863625e-09,
				0.9999243021011353
			],
			"scale":[
				1,
				0.9999999403953552,
				0.9999999403953552
			],
			"translation":[
				-4.255822361187711e-10,
				0.20881527662277222,
				1.227231871681056e-09
			]
		},
		{
			"children":[
				11
			],
			"name":"ankle.r",
			"rotation":[
				0.002622993430122733,
				-9.390988964241842e-08,
				-2.891034300844808e-09,
				0.999996542930603
			],
			"scale":[
				1,
				0.9999999403953552,
				0.9999999403953552
			],
			"translation":[
				3.166004347576745e-09,
				0.38159090280532837,
				-4.7380992462819904e-09
			]
		},
		{
			"children":[
				12
			],
			"name":"foreleg.r",
			"rotation":[
				0.002639970974996686,
				3.487312483230198e-08,
				6.651619255393371e-10,
				0.999996542930603
			],
			"translation":[
				-3.531575032411638e-11,
				0.2439705729484558,
				3.4847291718875795e-09
			]
		},
		{
			"children":[
				13
			],
			"name":"thigh.r",
			"rotation":[
				-0.7071068286895752,
				-4.85870046418313e-08,
				0.7071067094802856,
				4.214684778958144e-08
			],
			"translation":[
				-0.11649048328399658,
				0.1450636237859726,
				-0.0461566187441349
			]
		},
		{
			"name":"footleaf.l",
			"rotation":[
				-0.012304459698498249,
				1.347663101114449e-07,
				-1.9303809661863625e-09,
				0.9999243021011353
			],
			"scale":[
				1,
				0.9999999403953552,
				0.9999999403953552
			],
			"translation":[
				4.255822361187711e-10,
				0.20881527662277222,
				1.227231871681056e-09
			]
		},
		{
			"children":[
				15
			],
			"name":"ankle.l",
			"rotation":[
				0.002622993430122733,
				9.390988964241842e-08,
				2.891034300844808e-09,
				0.999996542930603
			],
			"scale":[
				1,
				0.9999999403953552,
				0.9999999403953552
			],
			"translation":[
				-3.166004347576745e-09,
				0.38159090280532837,
				-4.7380992462819904e-09
			]
		},
		{
			"children":[
				16
			],
			"name":"foreleg.l",
			"rotation":[
				0.002639970974996686,
				-3.487312483230198e-08,
				-6.651619255393371e-10,
				0.999996542930603
			],
			"translation":[
				3.531575032411638e-11,
				0.2439705729484558,
				3.4847291718875795e-09
			]
		},
		{
			"children":[
				17
			],
			"name":"thigh.l",
			"rotation":[
				-0.7071068286895752,
				4.85870046418313e-08,
				-0.7071067094802856,
				4.214684778958144e-08
			],
			"translation":[
				0.11649048328399658,
				0.1450636237859726,
				-0.0461566187441349
			]
		},
		{
			"mesh":0,
			"name":"human_01",
			"skin":0
		},
		{
			"children":[
				19,
				10,
				14,
				18
			],
			"name":"Armature"
		}
	],
	"materials":[
		{
			"doubleSided":true,
			"name":"shoe.001",
			"pbrMetallicRoughness":{
				"baseColorFactor":[
					0.16794857382774353,
					0.04833842068910599,
					0.0031000536400824785,
					1
				],
				"metallicFactor":0,
				"roughnessFactor":0.5
			}
		},
		{
			"doubleSided":true,
			"name":"cloth_01",
			"pbrMetallicRoughness":{
				"baseColorFactor":[
					0.009350399486720562,
					0.006839071866124868,
					0.37574923038482666,
					1
				],
				"metallicFactor":0,
				"roughnessFactor":0.5
			}
		},
		{
			"doubleSided":true,
			"name":"skin",
			"pbrMetallicRoughness":{
				"baseColorFactor":[
					1,
					0.8900754451751709,
					0.544771671295166,
					1
				],
				"metallicFactor":0,
				"roughnessFactor":0.5
			}
		},
		{
			"doubleSided":true,
			"name":"skin.001",
			"pbrMetallicRoughness":{
				"baseColorFactor":[
					1,
					0.8900754451751709,
					0.544771671295166,
					1
				],
				"metallicFactor":0,
				"roughnessFactor":0.5
			}
		},
		{
			"doubleSided":true,
			"name":"cloth_02",
			"pbrMetallicRoughness":{
				"baseColorFactor":[
					0.02378382906317711,
					0.5277189016342163,
					0.006172253284603357,
					1
				],
				"metallicFactor":0,
				"roughnessFactor":0.5
			}
		},
		{
			"doubleSided":true,
			"name":"cloth_02.001",
			"pbrMetallicRoughness":{
				"baseColorFactor":[
					0.02378382906317711,
					0.5277189016342163,
					0.006172253284603357,
					1
				],
				"metallicFactor":0,
				"roughnessFactor":0.5
			}
		},
		{
			"doubleSided":true,
			"name":"shoe",
			"pbrMetallicRoughness":{
				"baseColorFactor":[
					0.16794857382774353,
					0.04833842068910599,
					0.0031000536400824785,
					1
				],
				"metallicFactor":0,
				"roughnessFactor":0.5
			}
		}
	],
	"meshes":[
		{
			"name":"foot and hand.003",
			"primitives":[
				{
					"attributes":{
						"COLOR_0":0,
						"POSITION":1,
						"NORMAL":2,
						"JOINTS_0":3,
						"WEIGHTS_0":4
					},
					"indices":5,
					"material":0
				},
				{
					"attributes":{
						"COLOR_0":6,
						"POSITION":7,
						"NORMAL":8,
						"JOINTS_0":9,
						"WEIGHTS_0":10
					},
					"indices":11,
					"material":1
				},
				{
					"attributes":{
						"COLOR_0":12,
						"POSITION":13,
						"NORMAL":14,
						"JOINTS_0":15,
						"WEIGHTS_0":16
					},
					"indices":17,
					"material":2
				},
				{
					"attributes":{
						"COLOR_0":18,
						"POSITION":19,
						"NORMAL":20,
						"JOINTS_0":21,
						"WEIGHTS_0":22
					},
					"indices":23,
					"material":3
				},
				{
					"attributes":{
						"COLOR_0":24,
						"POSITION":25,
						"NORMAL":26,
						"JOINTS_0":27,
						"WEIGHTS_0":28
					},
					"indices":29,
					"material":4
				},
				{
					"attributes":{
						"COLOR_0":30,
						"POSITION":31,
						"NORMAL":32,
						"JOINTS_0":33,
						"WEIGHTS_0":34
					},
					"indices":35,
					"material":5
				},
				{
					"attributes":{
						"COLOR_0":36,
						"POSITION":37,
						"NORMAL":38,
						"JOINTS_0":39,
						"WEIGHTS_0":40
					},
					"indices":41,
					"material":6
				}
			]
		}
	],
	"skins":[
		{
			"inverseBindMatrices":42,
			"joints":[
				10,
				1,
				0,
				5,
				4,
				3,
				2,
				9,
				8,
				7,
				6,
				14,
				13,
				12,
				11,
				18,
				17,
				16,
				15
			],
			"name":"Armature"
		}
	],
	"accessors":[
		{
			"bufferView":0,
			"componentType":5123,
			"count":80,
			"normalized":true,
			"type":"VEC4"
		},
		{
			"bufferView":1,
			"componentType":5126,
			"count":80,
			"max":[
				-0.001827470026910305,
				-0.5353277921676636,
				0.08500000089406967
			],
			"min":[
				-0.24182747304439545,
				-0.7153277397155762,
				-0.17000000178813934
			],
			"type":"VEC3"
		},
		{
			"bufferView":2,
			"componentType":5126,
			"count":80,
			"type":"VEC3"
		},
		{
			"bufferView":3,
			"componentType":5121,
			"count":80,
			"type":"VEC4"
		},
		{
			"bufferView":4,
			"componentType":5126,
			"count":80,
			"type":"VEC4"
		},
		{
			"bufferView":5,
			"componentType":5123,
			"count":252,
			"type":"SCALAR"
		},
		{
			"bufferView":6,
			"componentType":5123,
			"count":620,
			"normalized":true,
			"type":"VEC4"
		},
		{
			"bufferView":7,
			"componentType":5126,
			"count":620,
			"max":[
				0.5239838361740112,
				0.9999821782112122,
				0.09999999403953552
			],
			"min":[
				-0.5125028491020203,
				0.19681106507778168,
				-0.19999998807907104
			],
			"type":"VEC3"
		},
		{
			"bufferView":8,
			"componentType":5126,
			"count":620,
			"type":"VEC3"
		},
		{
			"bufferView":9,
			"componentType":5121,
			"count":620,
			"type":"VEC4"
		},
		{
			"bufferView":10,
			"componentType":5126,
			"count":620,
			"type":"VEC4"
		},
		{
			"bufferView":11,
			"componentType":5123,
			"count":2508,
			"type":"SCALAR"
		},
		{
			"bufferView":12,
			"componentType":5123,
			"count":332,
			"normalized":true,
			"type":"VEC4"
		},
		{
			"bufferView":13,
			"componentType":5126,
			"count":332,
			"max":[
				0.20201976597309113,
				1.4154086112976074,
				0.1599999964237213
			],
			"min":[
				-0.5123758912086487,
				0.3034725785255432,
				-0.23999999463558197
			],
			"type":"VEC3"
		},
		{
			"bufferView":14,
			"componentType":5126,
			"count":332,
			"type":"VEC3"
		},
		{
			"bufferView":15,
			"componentType":5121,
			"count":332,
			"type":"VEC4"
		},
		{
			"bufferView":16,
			"componentType":5126,
			"count":332,
			"type":"VEC4"
		},
		{
			"bufferView":17,
			"componentType":5123,
			"count":1152,
			"type":"SCALAR"
		},
		{
			"bufferView":18,
			"componentType":5123,
			"count":80,
			"normalized":true,
			"type":"VEC4"
		},
		{
			"bufferView":19,
			"componentType":5126,
			"count":80,
			"max":[
				0.5248515009880066,
				0.4434725344181061,
				0.08500000089406967
			],
			"min":[
				0.2698515057563782,
				0.3034725785255432,
				-0.17000000178813934
			],
			"type":"VEC3"
		},
		{
			"bufferView":20,
			"componentType":5126,
			"count":80,
			"type":"VEC3"
		},
		{
			"bufferView":21,
			"componentType":5121,
			"count":80,
			"type":"VEC4"
		},
		{
			"bufferView":22,
			"componentType":5126,
			"count":80,
			"type":"VEC4"
		},
		{
			"bufferView":23,
			"componentType":5123,
			"count":252,
			"type":"SCALAR"
		},
		{
			"bufferView":24,
			"componentType":5123,
			"count":192,
			"normalized":true,
			"type":"VEC4"
		},
		{
			"bufferView":25,
			"componentType":5126,
			"count":192,
			"max":[
				-0.0023234880063682795,
				0.18564867973327637,
				0.08500000089406967
			],
			"min":[
				-0.24232348799705505,
				-0.5343513488769531,
				-0.17000000178813934
			],
			"type":"VEC3"
		},
		{
			"bufferView":26,
			"componentType":5126,
			"count":192,
			"type":"VEC3"
		},
		{
			"bufferView":27,
			"componentType":5121,
			"count":192,
			"type":"VEC4"
		},
		{
			"bufferView":28,
			"componentType":5126,
			"count":192,
			"type":"VEC4"
		},
		{
			"bufferView":29,
			"componentType":5123,
			"count":756,
			"type":"SCALAR"
		},
		{
			"bufferView":30,
			"componentType":5123,
			"count":192,
			"normalized":true,
			"type":"VEC4"
		},
		{
			"bufferView":31,
			"componentType":5126,
			"count":192,
			"max":[
				0.2556851804256439,
				0.18483033776283264,
				0.08500000089406967
			],
			"min":[
				0.015685172751545906,
				-0.5351696610450745,
				-0.17000000178813934
			],
			"type":"VEC3"
		},
		{
			"bufferView":32,
			"componentType":5126,
			"count":192,
			"type":"VEC3"
		},
		{
			"bufferView":33,
			"componentType":5121,
			"count":192,
			"type":"VEC4"
		},
		{
			"bufferView":34,
			"componentType":5126,
			"count":192,
			"type":"VEC4"
		},
		{
			"bufferView":35,
			"componentType":5123,
			"count":756,
			"type":"SCALAR"
		},
		{
			"bufferView":36,
			"componentType":5123,
			"count":80,
			"normalized":true,
			"type":"VEC4"
		},
		{
			"bufferView":37,
			"componentType":5126,
			"count":80,
			"max":[
				0.2561289668083191,
				-0.5361050963401794,
				0.08500000089406967
			],
			"min":[
				0.016128988936543465,
				-0.7161051034927368,
				-0.17000000178813934
			],
			"type":"VEC3"
		},
		{
			"bufferView":38,
			"componentType":5126,
			"count":80,
			"type":"VEC3"
		},
		{
			"bufferView":39,
			"componentType":5121,
			"count":80,
			"type":"VEC4"
		},
		{
			"bufferView":40,
			"componentType":5126,
			"count":80,
			"type":"VEC4"
		},
		{
			"bufferView":41,
			"componentType":5123,
			"count":252,
			"type":"SCALAR"
		},
		{
			"bufferView":42,
			"componentType":5126,
			"count":19,
			"type":"MAT4"
		}
	],
	"bufferViews":[
		{
			"buffer":0,
			"byteLength":640,
			"byteOffset":0,
			"target":34962
		},
		{
			"buffer":0,
			"byteLength":960,
			"byteOffset":640,
			"target":34962
		},
		{
			"buffer":0,
			"byteLength":960,
			"byteOffset":1600,
			"target":34962
		},
		{
			"buffer":0,
			"byteLength":320,
			"byteOffset":2560,
			"target":34962
		},
		{
			"buffer":0,
			"byteLength":1280,
			"byteOffset":2880,
			"target":34962
		},
		{
			"buffer":0,
			"byteLength":504,
			"byteOffset":4160,
			"target":34963
		},
		{
			"buffer":0,
			"byteLength":4960,
			"byteOffset":4664,
			"target":34962
		},
		{
			"buffer":0,
			"byteLength":7440,
			"byteOffset":9624,
			"target":34962
		},
		{
			"buffer":0,
			"byteLength":7440,
			"byteOffset":17064,
			"target":34962
		},
		{
			"buffer":0,
			"byteLength":2480,
			"byteOffset":24504,
			"target":34962
		},
		{
			"buffer":0,
			"byteLength":9920,
			"byteOffset":26984,
			"target":34962
		},
		{
			"buffer":0,
			"byteLength":5016,
			"byteOffset":36904,
			"target":34963
		},
		{
			"buffer":0,
			"byteLength":2656,
			"byteOffset":41920,
			"target":34962
		},
		{
			"buffer":0,
			"byteLength":3984,
			"byteOffset":44576,
			"target":34962
		},
		{
			"buffer":0,
			"byteLength":3984,
			"byteOffset":48560,
			"target":34962
		},
		{
			"buffer":0,
			"byteLength":1328,
			"byteOffset":52544,
			"target":34962
		},
		{
			"buffer":0,
			"byteLength":5312,
			"byteOffset":53872,
			"target":34962
		},
		{
			"buffer":0,
			"byteLength":2304,
			"byteOffset":59184,
			"target":34963
		},
		{
			"buffer":0,
			"byteLength":640,
			"byteOffset":61488,
			"target":34962
		},
		{
			"buffer":0,
			"byteLength":960,
			"byteOffset":62128,
			"target":34962
		},
		{
			"buffer":0,
			"byteLength":960,
			"byteOffset":63088,
			"target":34962
		},
		{
			"buffer":0,
			"byteLength":320,
			"byteOffset":64048,
			"target":34962
		},
		{
			"buffer":0,
			"byteLength":1280,
			"byteOffset":64368,
			"target":34962
		},
		{
			"buffer":0,
			"byteLength":504,
			"byteOffset":65648,
			"target":34963
		},
		{
			"buffer":0,
			"byteLength":1536,
			"byteOffset":66152,
			"target":34962
		},
		{
			"buffer":0,
			"byteLength":2304,
			"byteOffset":67688,
			"target":34962
		},
		{
			"buffer":0,
			"byteLength":2304,
			"byteOffset":69992,
			"target":34962
		},
		{
			"buffer":0,
			"byteLength":768,
			"byteOffset":72296,
			"target":34962
		},
		{
			"buffer":0,
			"byteLength":3072,
			"byteOffset":73064,
			"target":34962
		},
		{
			"buffer":0,
			"byteLength":1512,
			"byteOffset":76136,
			"target":34963
		},
		{
			"buffer":0,
			"byteLength":1536,
			"byteOffset":77648,
			"target":34962
		},
		{
			"buffer":0,
			"byteLength":2304,
			"byteOffset":79184,
			"target":34962
		},
		{
			"buffer":0,
			"byteLength":2304,
			"byteOffset":81488,
			"target":34962
		},
		{
			"buffer":0,
			"byteLength":768,
			"byteOffset":83792,
			"target":34962
		},
		{
			"buffer":0,
			"byteLength":3072,
			"byteOffset":84560,
			"target":34962
		},
		{
			"buffer":0,
			"byteLength":1512,
			"byteOffset":87632,
			"target":34963
		},
		{
			"buffer":0,
			"byteLength":640,
			"byteOffset":89144,
			"target":34962
		},
		{
			"buffer":0,
			"byteLength":960,
			"byteOffset":89784,
			"target":34962
		},
		{
			"buffer":0,
			"byteLength":960,
			"byteOffset":90744,
			"target":34962
		},
		{
			"buffer":0,
			"byteLength":320,
			"byteOffset":91704,
			"target":34962
		},
		{
			"buffer":0,
			"byteLength":1280,
			"byteOffset":92024,
			"target":34962
		},
		{
			"buffer":0,
			"byteLength":504,
			"byteOffset":93304,
			"target":34963
		},
		{
			"buffer":0,
			"byteLength":1216,
			"byteOffset":93808
		}
	],
	"buffers":[
		{
			"byteLength":95024,
			"uri":"data:application/octet-stream;base64,"
		}
	]
}
