# Blender 3.5.1
# www.blender.org
mtllib stock.mtl
o Untitled
v -0.150000 -0.242857 0.057142
v -0.150000 -0.242857 -0.542858
v -0.150000 -0.142857 0.257142
v -0.150000 -0.142857 0.057142
v -0.150000 -0.042857 0.457142
v -0.150000 -0.042857 0.257142
v -0.150000 0.057143 0.157142
v -0.150000 0.057143 0.057142
v -0.150000 0.057143 -0.442858
v -0.150000 0.057143 -0.542858
v -0.150000 0.157143 0.457142
v -0.150000 0.157143 0.157142
v -0.150000 0.157143 0.057142
v -0.150000 0.157143 -0.442858
v 0.150000 -0.242857 0.057142
v 0.150000 -0.242857 -0.542858
v 0.150000 -0.142857 0.257142
v 0.150000 -0.142857 0.057142
v 0.150000 -0.042857 0.457142
v 0.150000 -0.042857 0.257142
v 0.150000 0.057143 0.157142
v 0.150000 0.057143 0.057142
v 0.150000 0.057143 -0.442858
v 0.150000 0.057143 -0.542858
v 0.150000 0.157143 0.457142
v 0.150000 0.157143 0.157142
v 0.150000 0.157143 0.057142
v 0.150000 0.157143 -0.442858
v -0.150000 -0.042857 0.457142
v -0.150000 0.157143 0.457142
v 0.150000 -0.042857 0.457142
v 0.150000 0.157143 0.457142
v -0.150000 -0.142857 0.257142
v -0.150000 -0.042857 0.257142
v 0.150000 -0.142857 0.257142
v 0.150000 -0.042857 0.257142
v -0.150000 -0.242857 0.057142
v -0.150000 -0.142857 0.057142
v -0.150000 0.057143 0.057142
v -0.150000 0.157143 0.057142
v 0.150000 -0.242857 0.057142
v 0.150000 -0.142857 0.057142
v 0.150000 0.057143 0.057142
v 0.150000 0.157143 0.057142
v -0.150000 0.057143 0.157142
v -0.150000 0.157143 0.157142
v 0.150000 0.057143 0.157142
v 0.150000 0.157143 0.157142
v -0.150000 0.057143 -0.442858
v -0.150000 0.157143 -0.442858
v 0.150000 0.057143 -0.442858
v 0.150000 0.157143 -0.442858
v -0.150000 -0.242857 -0.542858
v -0.150000 0.057143 -0.542858
v 0.150000 -0.242857 -0.542858
v 0.150000 0.057143 -0.542858
v -0.150000 -0.242857 0.057142
v 0.150000 -0.242857 0.057142
v -0.150000 -0.242857 -0.542858
v 0.150000 -0.242857 -0.542858
v -0.150000 -0.142857 0.257142
v 0.150000 -0.142857 0.257142
v -0.150000 -0.142857 0.057142
v 0.150000 -0.142857 0.057142
v -0.150000 -0.042857 0.457142
v 0.150000 -0.042857 0.457142
v -0.150000 -0.042857 0.257142
v 0.150000 -0.042857 0.257142
v -0.150000 0.057143 0.157142
v 0.150000 0.057143 0.157142
v -0.150000 0.057143 0.057142
v 0.150000 0.057143 0.057142
v -0.150000 0.057143 -0.442858
v 0.150000 0.057143 -0.442858
v -0.150000 0.057143 -0.542858
v 0.150000 0.057143 -0.542858
v -0.150000 0.157143 0.457142
v 0.150000 0.157143 0.457142
v -0.150000 0.157143 0.157142
v 0.150000 0.157143 0.157142
v -0.150000 0.157143 0.057142
v 0.150000 0.157143 0.057142
v -0.150000 0.157143 -0.442858
v 0.150000 0.157143 -0.442858
vn -1.0000 -0.0000 -0.0000
vn 1.0000 -0.0000 -0.0000
vn -0.0000 -0.0000 1.0000
vn -0.0000 -0.0000 -1.0000
vn -0.0000 -1.0000 -0.0000
vn -0.0000 1.0000 -0.0000
vt 0.373047 0.500000
vt 0.373047 0.500000
vt 0.373047 0.500000
vt 0.373047 0.500000
vt 0.373047 0.500000
vt 0.373047 0.500000
vt 0.373047 0.500000
vt 0.373047 0.500000
vt 0.373047 0.500000
vt 0.373047 0.500000
vt 0.373047 0.500000
vt 0.373047 0.500000
vt 0.373047 0.500000
vt 0.373047 0.500000
vt 0.373047 0.500000
vt 0.373047 0.500000
vt 0.373047 0.500000
vt 0.373047 0.500000
vt 0.373047 0.500000
vt 0.373047 0.500000
vt 0.373047 0.500000
vt 0.373047 0.500000
vt 0.373047 0.500000
vt 0.373047 0.500000
vt 0.373047 0.500000
vt 0.373047 0.500000
vt 0.373047 0.500000
vt 0.373047 0.500000
vt 0.373047 0.500000
vt 0.373047 0.500000
vt 0.373047 0.500000
vt 0.373047 0.500000
vt 0.373047 0.500000
vt 0.373047 0.500000
vt 0.373047 0.500000
vt 0.373047 0.500000
vt 0.373047 0.500000
vt 0.373047 0.500000
vt 0.373047 0.500000
vt 0.373047 0.500000
vt 0.373047 0.500000
vt 0.373047 0.500000
vt 0.373047 0.500000
vt 0.373047 0.500000
vt 0.373047 0.500000
vt 0.373047 0.500000
vt 0.373047 0.500000
vt 0.373047 0.500000
vt 0.373047 0.500000
vt 0.373047 0.500000
vt 0.373047 0.500000
vt 0.373047 0.500000
vt 0.373047 0.500000
vt 0.373047 0.500000
vt 0.373047 0.500000
vt 0.373047 0.500000
vt 0.373047 0.500000
vt 0.373047 0.500000
vt 0.373047 0.500000
vt 0.373047 0.500000
vt 0.373047 0.500000
vt 0.373047 0.500000
vt 0.373047 0.500000
vt 0.373047 0.500000
vt 0.373047 0.500000
vt 0.373047 0.500000
vt 0.373047 0.500000
vt 0.373047 0.500000
vt 0.373047 0.500000
vt 0.373047 0.500000
vt 0.373047 0.500000
vt 0.373047 0.500000
vt 0.373047 0.500000
vt 0.373047 0.500000
vt 0.373047 0.500000
vt 0.373047 0.500000
vt 0.373047 0.500000
vt 0.373047 0.500000
vt 0.373047 0.500000
vt 0.373047 0.500000
vt 0.373047 0.500000
vt 0.373047 0.500000
vt 0.373047 0.500000
vt 0.373047 0.500000
s 0
usemtl palette
f 4/4/1 2/2/1 1/1/1
f 6/6/1 4/4/1 3/3/1
f 7/7/1 4/4/1 6/6/1
f 7/7/1 6/6/1 5/5/1
f 8/8/1 2/2/1 4/4/1
f 8/8/1 4/4/1 7/7/1
f 9/9/1 2/2/1 8/8/1
f 10/10/1 2/2/1 9/9/1
f 11/11/1 7/7/1 5/5/1
f 12/12/1 7/7/1 11/11/1
f 13/13/1 9/9/1 8/8/1
f 14/14/1 9/9/1 13/13/1
f 15/15/2 16/16/2 18/18/2
f 17/17/2 18/18/2 20/20/2
f 20/20/2 18/18/2 21/21/2
f 19/19/2 20/20/2 21/21/2
f 18/18/2 16/16/2 22/22/2
f 21/21/2 18/18/2 22/22/2
f 22/22/2 16/16/2 23/23/2
f 23/23/2 16/16/2 24/24/2
f 19/19/2 21/21/2 25/25/2
f 25/25/2 21/21/2 26/26/2
f 22/22/2 23/23/2 27/27/2
f 27/27/2 23/23/2 28/28/2
f 31/31/3 30/30/3 29/29/3
f 32/32/3 30/30/3 31/31/3
f 35/35/3 34/34/3 33/33/3
f 36/36/3 34/34/3 35/35/3
f 41/41/3 38/38/3 37/37/3
f 42/42/3 38/38/3 41/41/3
f 43/43/3 40/40/3 39/39/3
f 44/44/3 40/40/3 43/43/3
f 45/45/4 46/46/4 47/47/4
f 47/47/4 46/46/4 48/48/4
f 49/49/4 50/50/4 51/51/4
f 51/51/4 50/50/4 52/52/4
f 53/53/4 54/54/4 55/55/4
f 55/55/4 54/54/4 56/56/4
f 59/59/5 58/58/5 57/57/5
f 60/60/5 58/58/5 59/59/5
f 63/63/5 62/62/5 61/61/5
f 64/64/5 62/62/5 63/63/5
f 67/67/5 66/66/5 65/65/5
f 68/68/5 66/66/5 67/67/5
f 69/69/6 70/70/6 71/71/6
f 71/71/6 70/70/6 72/72/6
f 73/73/6 74/74/6 75/75/6
f 75/75/6 74/74/6 76/76/6
f 77/77/6 78/78/6 79/79/6
f 79/79/6 78/78/6 80/80/6
f 81/81/6 82/82/6 83/83/6
f 83/83/6 82/82/6 84/84/6
