{
	"asset":{
		"generator":"Khronos glTF Blender I/O v3.5.30",
		"version":"2.0"
	},
	"extensionsUsed":[
		"KHR_materials_specular",
		"KHR_materials_ior"
	],
	"scene":0,
	"scenes":[
		{
			"name":"Scene",
			"nodes":[
				27
			]
		}
	],
	"nodes":[
		{
			"mesh":0,
			"name":"thigh.l",
			"translation":[
				0.23745086789131165,
				-0.8613917827606201,
				-0.09281553328037262
			]
		},
		{
			"mesh":1,
			"name":"thigh.r",
			"translation":[
				-0.36963462829589844,
				-0.8634940385818481,
				-0.10311883687973022
			]
		},
		{
			"mesh":2,
			"name":"shoe.l",
			"translation":[
				-0.0059923529624938965,
				-0.4892352819442749,
				0.08697956800460815
			]
		},
		{
			"children":[
				2
			],
			"mesh":3,
			"name":"ankle.l",
			"translation":[
				0.3356545567512512,
				-1.5584169626235962,
				-0.08697956800460815
			]
		},
		{
			"mesh":4,
			"name":"shoe.r",
			"translation":[
				0.0030095279216766357,
				-0.49730682373046875,
				0.0912104919552803
			]
		},
		{
			"children":[
				4
			],
			"mesh":5,
			"name":"ankle.r",
			"translation":[
				-0.3639739453792572,
				-1.550345540046692,
				-0.0912105068564415
			]
		},
		{
			"mesh":6,
			"name":"hand.l",
			"rotation":[
				-0.00335200154222548,
				0.023520972579717636,
				0.003980288282036781,
				0.9997097849845886
			],
			"translation":[
				1.7394249439239502,
				0.9321855902671814,
				-0.15076783299446106
			]
		},
		{
			"mesh":7,
			"name":"hand.r",
			"rotation":[
				-1.4359523447637912e-05,
				0.01203626487404108,
				-0.0011928931344300508,
				0.9999268651008606
			],
			"translation":[
				-1.7529243230819702,
				0.938859224319458,
				-0.053796056658029556
			]
		},
		{
			"mesh":8,
			"name":"head",
			"rotation":[
				0,
				0.012036274187266827,
				0,
				0.9999275803565979
			],
			"translation":[
				-0.057911429554224014,
				1.8352651596069336,
				-0.08518465608358383
			]
		},
		{
			"name":"hand.r",
			"rotation":[
				2.5408060100318153e-09,
				9.278647850052835e-10,
				-0.01406182162463665,
				0.9999011158943176
			],
			"translation":[
				2.716339331243489e-08,
				0.49224478006362915,
				1.7654393502652965e-08
			]
		},
		{
			"children":[
				9
			],
			"name":"wrist.r",
			"rotation":[
				-8.948292662402935e-10,
				-1.352964673628776e-08,
				0.004629462957382202,
				0.9999892711639404
			],
			"translation":[
				1.0405322825590702e-08,
				0.5114383697509766,
				-1.7963941445486853e-09
			]
		},
		{
			"children":[
				10
			],
			"name":"upperarm.r",
			"rotation":[
				0.0060881273820996284,
				-4.35312230706586e-10,
				4.5501519219115494e-10,
				0.9999814629554749
			],
			"scale":[
				1,
				1,
				0.9999999403953552
			],
			"translation":[
				9.994748140229603e-09,
				0.578861653804779,
				-1.0277574347128393e-09
			]
		},
		{
			"children":[
				11
			],
			"name":"shoulder.r",
			"rotation":[
				-0.008081388659775257,
				-0.0005285680526867509,
				0.7071065902709961,
				0.7070606350898743
			],
			"scale":[
				0.9999999403953552,
				0.9999999403953552,
				0.9999999403953552
			],
			"translation":[
				8.88191125194334e-16,
				1.0000569820404053,
				-9.313225746154785e-10
			]
		},
		{
			"name":"head",
			"rotation":[
				0.011885021813213825,
				0.00025524283410049975,
				-0.02147386223077774,
				0.9996987581253052
			],
			"scale":[
				1.0000001192092896,
				0.9999999403953552,
				1
			],
			"translation":[
				8.387153194178154e-10,
				0.29646962881088257,
				1.1559222912183031e-08
			]
		},
		{
			"children":[
				13
			],
			"name":"neck",
			"rotation":[
				-0.01722576841711998,
				-0.0001008258550427854,
				0.015378830954432487,
				0.9997333288192749
			],
			"scale":[
				1,
				1,
				1.0000001192092896
			],
			"translation":[
				8.88191125194334e-16,
				1.0000569820404053,
				-9.313225746154785e-10
			]
		},
		{
			"name":"hand.l",
			"rotation":[
				-0.005847753491252661,
				-0.015184406191110611,
				-0.013477268628776073,
				0.9997768402099609
			],
			"scale":[
				0.9999999403953552,
				0.9999999403953552,
				0.9999999403953552
			],
			"translation":[
				-3.4691765904426575e-08,
				0.5188856720924377,
				5.3551048040390015e-09
			]
		},
		{
			"children":[
				15
			],
			"name":"wrist.l",
			"rotation":[
				-0.014707253314554691,
				-0.0005935178487561643,
				0.008000968024134636,
				0.9998596906661987
			],
			"scale":[
				1,
				1.0000001192092896,
				0.9999999403953552
			],
			"translation":[
				5.547917680814862e-08,
				0.4819592237472534,
				7.392372936010361e-09
			]
		},
		{
			"children":[
				16
			],
			"name":"upperarm.l",
			"rotation":[
				0.0219211857765913,
				-0.00035649247001856565,
				-0.0043810103088617325,
				0.999750018119812
			],
			"scale":[
				0.9999999403953552,
				0.9999999403953552,
				1
			],
			"translation":[
				-9.99455007644201e-09,
				0.5674683451652527,
				4.2955008439093945e-09
			]
		},
		{
			"children":[
				17
			],
			"name":"shoulder.l",
			"rotation":[
				-0.008167650550603867,
				0.0006148354732431471,
				-0.7071065306663513,
				0.7070596218109131
			],
			"translation":[
				8.88191125194334e-16,
				1.0000569820404053,
				-9.313225746154785e-10
			]
		},
		{
			"children":[
				12,
				14,
				18
			],
			"name":"chest",
			"rotation":[
				0.005340679083019495,
				1.1920761977535221e-07,
				6.366546179137345e-10,
				0.9999857544898987
			],
			"translation":[
				0,
				0,
				-0.14145618677139282
			]
		},
		{
			"name":"ankle.r",
			"rotation":[
				0.012818841263651848,
				9.790785782115563e-08,
				0.006065224763005972,
				0.9998994469642639
			],
			"scale":[
				1,
				1,
				0.9999998807907104
			],
			"translation":[
				-5.820766091346741e-09,
				0.7416919469833374,
				-1.3504177331924438e-08
			]
		},
		{
			"children":[
				20
			],
			"name":"thigh.r",
			"rotation":[
				-0.2977561354637146,
				2.496308979971218e-06,
				-0.1378406584262848,
				0.9446381330490112
			],
			"scale":[
				1,
				1,
				1.0000001192092896
			],
			"translation":[
				-7.450580596923828e-09,
				0.5799246430397034,
				0
			]
		},
		{
			"children":[
				21
			],
			"name":"pelvic.r",
			"rotation":[
				-0.79896080493927,
				0.2732871472835541,
				0.5058656334877014,
				0.17628316581249237
			],
			"scale":[
				1,
				1,
				1.0000001192092896
			],
			"translation":[
				0,
				0,
				-0.1414165198802948
			]
		},
		{
			"name":"ankle.l",
			"rotation":[
				-0.003957146313041449,
				-1.4125146208243677e-07,
				0.0023088068701326847,
				0.9999895095825195
			],
			"scale":[
				0.9999999403953552,
				0.9999999403953552,
				1
			],
			"translation":[
				5.122274160385132e-09,
				0.7461152076721191,
				6.51925802230835e-08
			]
		},
		{
			"children":[
				23
			],
			"name":"thigh.l",
			"rotation":[
				-0.2699693739414215,
				-9.605521000821682e-08,
				0.1558106541633606,
				0.9501787424087524
			],
			"scale":[
				0.9999999403953552,
				1.0000001192092896,
				0.9999999403953552
			],
			"translation":[
				1.4901161193847656e-08,
				0.573314368724823,
				-7.450580596923828e-09
			]
		},
		{
			"children":[
				24
			],
			"name":"pelvic.l",
			"rotation":[
				-0.8227180242538452,
				-0.2733360230922699,
				-0.4724870026111603,
				0.15867744386196136
			],
			"scale":[
				0.9999999403953552,
				0.9999998807907104,
				0.9999999403953552
			],
			"translation":[
				0,
				0,
				-0.13665582239627838
			]
		},
		{
			"children":[
				3,
				5,
				6,
				7,
				8
			],
			"mesh":9,
			"name":"top",
			"skin":0
		},
		{
			"children":[
				0,
				1,
				26,
				19,
				22,
				25
			],
			"name":"Armature"
		}
	],
	"materials":[
		{
			"doubleSided":true,
			"extensions":{
				"KHR_materials_specular":{
					"specularColorFactor":[
						0.38296310534776207,
						0.38745444783690647,
						0.6342392617482192
					]
				},
				"KHR_materials_ior":{
					"ior":1.4500000476837158
				}
			},
			"name":"cloth_blue",
			"pbrMetallicRoughness":{
				"baseColorFactor":[
					0.008264330215752125,
					0.009485353715717793,
					0.07657666504383087,
					1
				],
				"metallicFactor":0
			}
		},
		{
			"doubleSided":true,
			"extensions":{
				"KHR_materials_specular":{
					"specularColorFactor":[
						0.5747799336284506,
						0.44053588750834655,
						0.30047156841635053
					]
				},
				"KHR_materials_ior":{
					"ior":1.4500000476837158
				}
			},
			"name":"shoe_01.001",
			"pbrMetallicRoughness":{
				"baseColorFactor":[
					0.09461773186922073,
					0.0499567911028862,
					0.0033595345448702574,
					1
				],
				"metallicFactor":0
			}
		},
		{
			"doubleSided":true,
			"extensions":{
				"KHR_materials_specular":{
					"specularColorFactor":[
						0.5747799336284506,
						0.44053588750834655,
						0.30047156841635053
					]
				},
				"KHR_materials_ior":{
					"ior":1.4500000476837158
				}
			},
			"name":"shoe_01",
			"pbrMetallicRoughness":{
				"baseColorFactor":[
					0.09461773186922073,
					0.0499567911028862,
					0.0033595345448702574,
					1
				],
				"metallicFactor":0
			}
		},
		{
			"doubleSided":true,
			"extensions":{
				"KHR_materials_specular":{
					"specularColorFactor":[
						0.4338829554963645,
						0.40275458161690614,
						0.38967890862241367
					]
				},
				"KHR_materials_ior":{
					"ior":1.4500000476837158
				}
			},
			"name":"skin_01",
			"pbrMetallicRoughness":{
				"baseColorFactor":[
					1,
					0.6172060966491699,
					0.45641106367111206,
					1
				],
				"metallicFactor":0,
				"roughnessFactor":0
			}
		},
		{
			"doubleSided":true,
			"extensions":{
				"KHR_materials_specular":{
					"specularColorFactor":[
						0.35311301683974583,
						0.4493253575060089,
						0.3525640692576534
					]
				},
				"KHR_materials_ior":{
					"ior":1.4500000476837158
				}
			},
			"name":"cloth_green",
			"pbrMetallicRoughness":{
				"baseColorFactor":[
					0.00041544262785464525,
					0.07322878390550613,
					0,
					1
				],
				"metallicFactor":0
			}
		}
	],
	"meshes":[
		{
			"name":"thigh.l.001",
			"primitives":[
				{
					"attributes":{
						"COLOR_0":0,
						"POSITION":1,
						"NORMAL":2
					},
					"indices":3,
					"material":0
				}
			]
		},
		{
			"name":"thigh.r.002",
			"primitives":[
				{
					"attributes":{
						"COLOR_0":4,
						"POSITION":5,
						"NORMAL":6
					},
					"indices":7,
					"material":0
				}
			]
		},
		{
			"name":"shoe.001",
			"primitives":[
				{
					"attributes":{
						"COLOR_0":8,
						"POSITION":9,
						"NORMAL":10
					},
					"indices":11,
					"material":1
				}
			]
		},
		{
			"name":"ankle.001",
			"primitives":[
				{
					"attributes":{
						"COLOR_0":12,
						"POSITION":13,
						"NORMAL":14
					},
					"indices":15,
					"material":0
				}
			]
		},
		{
			"name":"shoe",
			"primitives":[
				{
					"attributes":{
						"COLOR_0":16,
						"POSITION":17,
						"NORMAL":18
					},
					"indices":11,
					"material":2
				}
			]
		},
		{
			"name":"ankle",
			"primitives":[
				{
					"attributes":{
						"COLOR_0":19,
						"POSITION":20,
						"NORMAL":21
					},
					"indices":15,
					"material":0
				}
			]
		},
		{
			"name":"hand",
			"primitives":[
				{
					"attributes":{
						"COLOR_0":22,
						"POSITION":23,
						"NORMAL":24
					},
					"indices":25,
					"material":3
				}
			]
		},
		{
			"name":"hand.001",
			"primitives":[
				{
					"attributes":{
						"COLOR_0":26,
						"POSITION":27,
						"NORMAL":28
					},
					"indices":29,
					"material":3
				}
			]
		},
		{
			"name":"head.002",
			"primitives":[
				{
					"attributes":{
						"COLOR_0":30,
						"POSITION":31,
						"NORMAL":32
					},
					"indices":33,
					"material":3
				}
			]
		},
		{
			"name":"top",
			"primitives":[
				{
					"attributes":{
						"COLOR_0":34,
						"POSITION":35,
						"NORMAL":36,
						"JOINTS_0":37,
						"WEIGHTS_0":38
					},
					"indices":39,
					"material":4
				}
			]
		}
	],
	"skins":[
		{
			"inverseBindMatrices":40,
			"joints":[
				19,
				12,
				11,
				10,
				9,
				14,
				13,
				18,
				17,
				16,
				15,
				22,
				21,
				20,
				25,
				24,
				23
			],
			"name":"Armature"
		}
	],
	"accessors":[
		{
			"bufferView":0,
			"componentType":5123,
			"count":1064,
			"normalized":true,
			"type":"VEC4"
		},
		{
			"bufferView":1,
			"componentType":5126,
			"count":1064,
			"max":[
				0.4000000059604645,
				0.5,
				0.20000000298023224
			],
			"min":[
				-0.30000001192092896,
				-0.4000000059604645,
				-0.30000001192092896
			],
			"type":"VEC3"
		},
		{
			"bufferView":2,
			"componentType":5126,
			"count":1064,
			"type":"VEC3"
		},
		{
			"bufferView":3,
			"componentType":5123,
			"count":1596,
			"type":"SCALAR"
		},
		{
			"bufferView":4,
			"componentType":5123,
			"count":1080,
			"normalized":true,
			"type":"VEC4"
		},
		{
			"bufferView":5,
			"componentType":5126,
			"count":1080,
			"max":[
				0.4000000059604645,
				0.5,
				0.20000000298023224
			],
			"min":[
				-0.30000001192092896,
				-0.4000000059604645,
				-0.30000001192092896
			],
			"type":"VEC3"
		},
		{
			"bufferView":6,
			"componentType":5126,
			"count":1080,
			"type":"VEC3"
		},
		{
			"bufferView":7,
			"componentType":5123,
			"count":1620,
			"type":"SCALAR"
		},
		{
			"bufferView":8,
			"componentType":5123,
			"count":1056,
			"normalized":true,
			"type":"VEC4"
		},
		{
			"bufferView":9,
			"componentType":5126,
			"count":1056,
			"max":[
				0.20000000298023224,
				0.30000001192092896,
				0.4000000059604645
			],
			"min":[
				-0.20000000298023224,
				-0.20000000298023224,
				-0.5
			],
			"type":"VEC3"
		},
		{
			"bufferView":10,
			"componentType":5126,
			"count":1056,
			"type":"VEC3"
		},
		{
			"bufferView":11,
			"componentType":5123,
			"count":1584,
			"type":"SCALAR"
		},
		{
			"bufferView":12,
			"componentType":5123,
			"count":648,
			"normalized":true,
			"type":"VEC4"
		},
		{
			"bufferView":13,
			"componentType":5126,
			"count":648,
			"max":[
				0.30000001192092896,
				0.30000001192092896,
				0.20000000298023224
			],
			"min":[
				-0.30000001192092896,
				-0.20000000298023224,
				-0.30000001192092896
			],
			"type":"VEC3"
		},
		{
			"bufferView":14,
			"componentType":5126,
			"count":648,
			"type":"VEC3"
		},
		{
			"bufferView":15,
			"componentType":5123,
			"count":972,
			"type":"SCALAR"
		},
		{
			"bufferView":16,
			"componentType":5123,
			"count":1056,
			"normalized":true,
			"type":"VEC4"
		},
		{
			"bufferView":17,
			"componentType":5126,
			"count":1056,
			"max":[
				0.20000000298023224,
				0.30000001192092896,
				0.4000000059604645
			],
			"min":[
				-0.20000000298023224,
				-0.20000000298023224,
				-0.5
			],
			"type":"VEC3"
		},
		{
			"bufferView":18,
			"componentType":5126,
			"count":1056,
			"type":"VEC3"
		},
		{
			"bufferView":19,
			"componentType":5123,
			"count":648,
			"normalized":true,
			"type":"VEC4"
		},
		{
			"bufferView":20,
			"componentType":5126,
			"count":648,
			"max":[
				0.30000001192092896,
				0.30000001192092896,
				0.20000000298023224
			],
			"min":[
				-0.30000001192092896,
				-0.20000000298023224,
				-0.30000001192092896
			],
			"type":"VEC3"
		},
		{
			"bufferView":21,
			"componentType":5126,
			"count":648,
			"type":"VEC3"
		},
		{
			"bufferView":22,
			"componentType":5123,
			"count":80,
			"normalized":true,
			"type":"VEC4"
		},
		{
			"bufferView":23,
			"componentType":5126,
			"count":80,
			"max":[
				0.10000000149011612,
				0.20000000298023224,
				0.10000000149011612
			],
			"min":[
				-0.10000000149011612,
				-0.10000000149011612,
				-0.20000000298023224
			],
			"type":"VEC3"
		},
		{
			"bufferView":24,
			"componentType":5126,
			"count":80,
			"type":"VEC3"
		},
		{
			"bufferView":25,
			"componentType":5123,
			"count":252,
			"type":"SCALAR"
		},
		{
			"bufferView":26,
			"componentType":5123,
			"count":168,
			"normalized":true,
			"type":"VEC4"
		},
		{
			"bufferView":27,
			"componentType":5126,
			"count":168,
			"max":[
				0.10000000149011612,
				0.20000000298023224,
				0.10000000149011612
			],
			"min":[
				-0.10000000149011612,
				-0.10000000149011612,
				-0.20000000298023224
			],
			"type":"VEC3"
		},
		{
			"bufferView":28,
			"componentType":5126,
			"count":168,
			"type":"VEC3"
		},
		{
			"bufferView":29,
			"componentType":5123,
			"count":252,
			"type":"SCALAR"
		},
		{
			"bufferView":30,
			"componentType":5123,
			"count":2088,
			"normalized":true,
			"type":"VEC4"
		},
		{
			"bufferView":31,
			"componentType":5126,
			"count":2088,
			"max":[
				0.5,
				0.6000000238418579,
				0.4000000059604645
			],
			"min":[
				-0.4000000059604645,
				-0.5,
				-0.5
			],
			"type":"VEC3"
		},
		{
			"bufferView":32,
			"componentType":5126,
			"count":2088,
			"type":"VEC3"
		},
		{
			"bufferView":33,
			"componentType":5123,
			"count":3132,
			"type":"SCALAR"
		},
		{
			"bufferView":34,
			"componentType":5123,
			"count":3159,
			"normalized":true,
			"type":"VEC4"
		},
		{
			"bufferView":35,
			"componentType":5126,
			"count":3159,
			"max":[
				1.6398394107818604,
				1.3375321626663208,
				0.30000001192092896
			],
			"min":[
				-1.6601606607437134,
				-0.4624677896499634,
				-0.4000000059604645
			],
			"type":"VEC3"
		},
		{
			"bufferView":36,
			"componentType":5126,
			"count":3159,
			"type":"VEC3"
		},
		{
			"bufferView":37,
			"componentType":5121,
			"count":3159,
			"type":"VEC4"
		},
		{
			"bufferView":38,
			"componentType":5126,
			"count":3159,
			"type":"VEC4"
		},
		{
			"bufferView":39,
			"componentType":5123,
			"count":12132,
			"type":"SCALAR"
		},
		{
			"bufferView":40,
			"componentType":5126,
			"count":17,
			"type":"MAT4"
		}
	],
	"bufferViews":[
		{
			"buffer":0,
			"byteLength":8512,
			"byteOffset":0,
			"target":34962
		},
		{
			"buffer":0,
			"byteLength":12768,
			"byteOffset":8512,
			"target":34962
		},
		{
			"buffer":0,
			"byteLength":12768,
			"byteOffset":21280,
			"target":34962
		},
		{
			"buffer":0,
			"byteLength":3192,
			"byteOffset":34048,
			"target":34963
		},
		{
			"buffer":0,
			"byteLength":8640,
			"byteOffset":37240,
			"target":34962
		},
		{
			"buffer":0,
			"byteLength":12960,
			"byteOffset":45880,
			"target":34962
		},
		{
			"buffer":0,
			"byteLength":12960,
			"byteOffset":58840,
			"target":34962
		},
		{
			"buffer":0,
			"byteLength":3240,
			"byteOffset":71800,
			"target":34963
		},
		{
			"buffer":0,
			"byteLength":8448,
			"byteOffset":75040,
			"target":34962
		},
		{
			"buffer":0,
			"byteLength":12672,
			"byteOffset":83488,
			"target":34962
		},
		{
			"buffer":0,
			"byteLength":12672,
			"byteOffset":96160,
			"target":34962
		},
		{
			"buffer":0,
			"byteLength":3168,
			"byteOffset":108832,
			"target":34963
		},
		{
			"buffer":0,
			"byteLength":5184,
			"byteOffset":112000,
			"target":34962
		},
		{
			"buffer":0,
			"byteLength":7776,
			"byteOffset":117184,
			"target":34962
		},
		{
			"buffer":0,
			"byteLength":7776,
			"byteOffset":124960,
			"target":34962
		},
		{
			"buffer":0,
			"byteLength":1944,
			"byteOffset":132736,
			"target":34963
		},
		{
			"buffer":0,
			"byteLength":8448,
			"byteOffset":134680,
			"target":34962
		},
		{
			"buffer":0,
			"byteLength":12672,
			"byteOffset":143128,
			"target":34962
		},
		{
			"buffer":0,
			"byteLength":12672,
			"byteOffset":155800,
			"target":34962
		},
		{
			"buffer":0,
			"byteLength":5184,
			"byteOffset":168472,
			"target":34962
		},
		{
			"buffer":0,
			"byteLength":7776,
			"byteOffset":173656,
			"target":34962
		},
		{
			"buffer":0,
			"byteLength":7776,
			"byteOffset":181432,
			"target":34962
		},
		{
			"buffer":0,
			"byteLength":640,
			"byteOffset":189208,
			"target":34962
		},
		{
			"buffer":0,
			"byteLength":960,
			"byteOffset":189848,
			"target":34962
		},
		{
			"buffer":0,
			"byteLength":960,
			"byteOffset":190808,
			"target":34962
		},
		{
			"buffer":0,
			"byteLength":504,
			"byteOffset":191768,
			"target":34963
		},
		{
			"buffer":0,
			"byteLength":1344,
			"byteOffset":192272,
			"target":34962
		},
		{
			"buffer":0,
			"byteLength":2016,
			"byteOffset":193616,
			"target":34962
		},
		{
			"buffer":0,
			"byteLength":2016,
			"byteOffset":195632,
			"target":34962
		},
		{
			"buffer":0,
			"byteLength":504,
			"byteOffset":197648,
			"target":34963
		},
		{
			"buffer":0,
			"byteLength":16704,
			"byteOffset":198152,
			"target":34962
		},
		{
			"buffer":0,
			"byteLength":25056,
			"byteOffset":214856,
			"target":34962
		},
		{
			"buffer":0,
			"byteLength":25056,
			"byteOffset":239912,
			"target":34962
		},
		{
			"buffer":0,
			"byteLength":6264,
			"byteOffset":264968,
			"target":34963
		},
		{
			"buffer":0,
			"byteLength":25272,
			"byteOffset":271232,
			"target":34962
		},
		{
			"buffer":0,
			"byteLength":37908,
			"byteOffset":296504,
			"target":34962
		},
		{
			"buffer":0,
			"byteLength":37908,
			"byteOffset":334412,
			"target":34962
		},
		{
			"buffer":0,
			"byteLength":12636,
			"byteOffset":372320,
			"target":34962
		},
		{
			"buffer":0,
			"byteLength":50544,
			"byteOffset":384956,
			"target":34962
		},
		{
			"buffer":0,
			"byteLength":24264,
			"byteOffset":435500,
			"target":34963
		},
		{
			"buffer":0,
			"byteLength":1088,
			"byteOffset":459764
		}
	],
	"buffers":[
		{
			"byteLength":460852,
			"uri":"data:application/octet-stream;base64,"
		}
	]
}
