{
	"asset":{
		"generator":"Khronos glTF Blender I/O v3.5.30",
		"version":"2.0"
	},
	"extensionsUsed":[
		"KHR_materials_specular",
		"KHR_materials_ior"
	],
	"scene":0,
	"scenes":[
		{
			"name":"Scene",
			"nodes":[
				20
			]
		}
	],
	"nodes":[
		{
			"name":"hand.r",
			"rotation":[
				-1.0236528291684976e-10,
				3.060113229480521e-08,
				0.010186468251049519,
				0.9999481439590454
			],
			"scale":[
				1,
				1.0000001192092896,
				1
			],
			"translation":[
				1.0320772503291664e-07,
				0.40173202753067017,
				-2.0851073756489313e-08
			]
		},
		{
			"children":[
				0
			],
			"name":"wrist.r",
			"rotation":[
				4.2105410824611056e-10,
				1.2199399179735337e-07,
				0.0029537680093199015,
				0.9999956488609314
			],
			"scale":[
				0.9999999403953552,
				1,
				1
			],
			"translation":[
				-8.696630970916885e-08,
				0.5749716758728027,
				3.142221771668119e-08
			]
		},
		{
			"children":[
				1
			],
			"name":"upperarm.r",
			"rotation":[
				1.4326767550087993e-09,
				-5.590039009462089e-08,
				0.006866702809929848,
				0.999976396560669
			],
			"translation":[
				-1.7945033903288277e-08,
				0.5730188488960266,
				-3.724419883610608e-09
			]
		},
		{
			"children":[
				2
			],
			"name":"shoulder.r",
			"rotation":[
				6.561970167240361e-08,
				-4.2360390750673105e-08,
				0.7064224481582642,
				0.7077904343605042
			],
			"translation":[
				0,
				0.9999812841415405,
				-2.9802549761370756e-08
			]
		},
		{
			"name":"head",
			"rotation":[
				2.6309555423154052e-08,
				1.6169510175245705e-08,
				-0.0017837111372500658,
				0.9999983906745911
			],
			"scale":[
				1,
				0.9999999403953552,
				1
			],
			"translation":[
				5.211124864956673e-10,
				0.28885528445243835,
				-4.3639751368118596e-08
			]
		},
		{
			"children":[
				4
			],
			"name":"neck",
			"rotation":[
				5.155991900096524e-08,
				2.3137697979791483e-08,
				-0.002737137721851468,
				0.9999962449073792
			],
			"scale":[
				1,
				0.9999999403953552,
				1
			],
			"translation":[
				0,
				0.9999812841415405,
				-2.9802549761370756e-08
			]
		},
		{
			"name":"hand.l",
			"rotation":[
				-1.0237789088707316e-10,
				-3.060153019873724e-08,
				-0.010186468251049519,
				0.9999481439590454
			],
			"scale":[
				1.0000001192092896,
				1.0000001192092896,
				1
			],
			"translation":[
				-4.1740417344726666e-08,
				0.40173202753067017,
				-2.0850237092417956e-08
			]
		},
		{
			"children":[
				6
			],
			"name":"wrist.l",
			"rotation":[
				4.2105199882236377e-10,
				-1.219941054841911e-07,
				-0.002953766845166683,
				0.9999956488609314
			],
			"translation":[
				2.736166493377823e-08,
				0.5749716758728027,
				1.6205019548465316e-09
			]
		},
		{
			"children":[
				7
			],
			"name":"upperarm.l",
			"rotation":[
				1.4326728692282131e-09,
				5.5900105877526585e-08,
				-0.006866703275591135,
				0.999976396560669
			],
			"scale":[
				1,
				0.9999999403953552,
				1
			],
			"translation":[
				1.8010524627243285e-08,
				0.5730188488960266,
				-3.724393460302622e-09
			]
		},
		{
			"children":[
				8
			],
			"name":"shoulder.l",
			"rotation":[
				4.235887018921858e-08,
				6.562205356885897e-08,
				-0.7077652812004089,
				0.7064477205276489
			],
			"scale":[
				1.0000001192092896,
				1.0000001192092896,
				1
			],
			"translation":[
				0.0037978619802743196,
				0.9999741315841675,
				-2.992803516121967e-08
			]
		},
		{
			"children":[
				3,
				5,
				9
			],
			"name":"Bone",
			"rotation":[
				7.46763717529575e-09,
				-1.6525849133586235e-08,
				0.0009494853438809514,
				0.9999995231628418
			],
			"translation":[
				0,
				0,
				0.2740704119205475
			]
		},
		{
			"name":"foot.r",
			"rotation":[
				-4.6563608524508027e-10,
				4.992809026052635e-15,
				6.713392508572724e-08,
				1
			],
			"translation":[
				-1.7172496313833108e-08,
				0.33865028619766235,
				1.2212781008713591e-08
			]
		},
		{
			"children":[
				11
			],
			"name":"thigh.r.001",
			"rotation":[
				-0.007811814546585083,
				8.480977697900016e-08,
				-8.38537488334623e-08,
				0.999969482421875
			],
			"scale":[
				1,
				0.9999999403953552,
				0.9999998807907104
			],
			"translation":[
				3.691123140470154e-08,
				1.0081979036331177,
				6.915769290571916e-09
			]
		},
		{
			"children":[
				12
			],
			"name":"thigh.r",
			"rotation":[
				-0.34508058428764343,
				-3.0325719535539974e-07,
				1.2987356967641972e-07,
				0.9385731220245361
			],
			"translation":[
				4.270293985086937e-08,
				0.5134254097938538,
				3.1086244689504383e-15
			]
		},
		{
			"children":[
				13
			],
			"name":"pelvic.r",
			"rotation":[
				-0.661745011806488,
				0.24918577075004578,
				0.6617449522018433,
				0.24918590486049652
			],
			"translation":[
				0,
				0,
				0.2740704119205475
			]
		},
		{
			"name":"foot.l",
			"rotation":[
				-4.6563608524508027e-10,
				-4.992809026052635e-15,
				-6.713392508572724e-08,
				1
			],
			"translation":[
				1.7172496313833108e-08,
				0.33865028619766235,
				1.2212781008713591e-08
			]
		},
		{
			"children":[
				15
			],
			"name":"thigh.l.001",
			"rotation":[
				-0.007811814546585083,
				-8.480977697900016e-08,
				8.38537488334623e-08,
				0.999969482421875
			],
			"scale":[
				1,
				0.9999999403953552,
				0.9999998807907104
			],
			"translation":[
				-3.691123140470154e-08,
				1.0081979036331177,
				6.915769290571916e-09
			]
		},
		{
			"children":[
				16
			],
			"name":"thigh.l",
			"rotation":[
				-0.34508058428764343,
				3.0325719535539974e-07,
				-1.2987356967641972e-07,
				0.9385731220245361
			],
			"translation":[
				-4.270293985086937e-08,
				0.5134254097938538,
				3.1086244689504383e-15
			]
		},
		{
			"children":[
				17
			],
			"name":"pelvic.l",
			"rotation":[
				-0.661745011806488,
				-0.24918577075004578,
				-0.6617449522018433,
				0.24918590486049652
			],
			"translation":[
				0,
				0,
				0.2740704119205475
			]
		},
		{
			"mesh":0,
			"name":"human_empty",
			"skin":0
		},
		{
			"children":[
				19,
				10,
				14,
				18
			],
			"name":"Armature"
		}
	],
	"materials":[
		{
			"doubleSided":true,
			"extensions":{
				"KHR_materials_specular":{
					"specularColorFactor":[
						0.38296310534776207,
						0.38745444783690647,
						0.6342392617482192
					]
				},
				"KHR_materials_ior":{
					"ior":1.4500000476837158
				}
			},
			"name":"cloth_blue",
			"pbrMetallicRoughness":{
				"baseColorFactor":[
					0.008264330215752125,
					0.009485353715717793,
					0.07657666504383087,
					1
				],
				"metallicFactor":0
			}
		},
		{
			"doubleSided":true,
			"extensions":{
				"KHR_materials_specular":{
					"specularColorFactor":[
						0.4338829554963645,
						0.40275458161690614,
						0.38967890862241367
					]
				},
				"KHR_materials_ior":{
					"ior":1.4500000476837158
				}
			},
			"name":"skin_01",
			"pbrMetallicRoughness":{
				"baseColorFactor":[
					1,
					0.6172060966491699,
					0.45641106367111206,
					1
				],
				"metallicFactor":0,
				"roughnessFactor":0
			}
		},
		{
			"doubleSided":true,
			"extensions":{
				"KHR_materials_specular":{
					"specularColorFactor":[
						0.35311301683974583,
						0.4493253575060089,
						0.3525640692576534
					]
				},
				"KHR_materials_ior":{
					"ior":1.4500000476837158
				}
			},
			"name":"cloth_green",
			"pbrMetallicRoughness":{
				"baseColorFactor":[
					0.00041544262785464525,
					0.07322878390550613,
					0,
					1
				],
				"metallicFactor":0
			}
		},
		{
			"doubleSided":true,
			"extensions":{
				"KHR_materials_specular":{
					"specularColorFactor":[
						0.5747799336284506,
						0.44053588750834655,
						0.30047156841635053
					]
				},
				"KHR_materials_ior":{
					"ior":1.4500000476837158
				}
			},
			"name":"shoe_01",
			"pbrMetallicRoughness":{
				"baseColorFactor":[
					0.09461773186922073,
					0.0499567911028862,
					0.0033595345448702574,
					1
				],
				"metallicFactor":0
			}
		}
	],
	"meshes":[
		{
			"name":"human_empty",
			"primitives":[
				{
					"attributes":{
						"COLOR_0":0,
						"POSITION":1,
						"NORMAL":2,
						"JOINTS_0":3,
						"WEIGHTS_0":4
					},
					"indices":5,
					"material":0
				},
				{
					"attributes":{
						"COLOR_0":6,
						"POSITION":7,
						"NORMAL":8,
						"JOINTS_0":9,
						"WEIGHTS_0":10
					},
					"indices":11,
					"material":1
				},
				{
					"attributes":{
						"COLOR_0":12,
						"POSITION":13,
						"NORMAL":14,
						"JOINTS_0":15,
						"WEIGHTS_0":16
					},
					"indices":17,
					"material":2
				},
				{
					"attributes":{
						"COLOR_0":18,
						"POSITION":19,
						"NORMAL":20,
						"JOINTS_0":21,
						"WEIGHTS_0":22
					},
					"indices":23,
					"material":3
				}
			]
		}
	],
	"skins":[
		{
			"inverseBindMatrices":24,
			"joints":[
				10,
				3,
				2,
				1,
				0,
				5,
				4,
				9,
				8,
				7,
				6,
				14,
				13,
				12,
				11,
				18,
				17,
				16,
				15
			],
			"name":"Armature"
		}
	],
	"accessors":[
		{
			"bufferView":0,
			"componentType":5123,
			"count":1502,
			"normalized":true,
			"type":"VEC4"
		},
		{
			"bufferView":1,
			"componentType":5126,
			"count":1502,
			"max":[
				0.6435762643814087,
				-0.42326390743255615,
				0.5106368064880371
			],
			"min":[
				-0.6564756631851196,
				-1.8178467750549316,
				0.008089512586593628
			],
			"type":"VEC3"
		},
		{
			"bufferView":2,
			"componentType":5126,
			"count":1502,
			"type":"VEC3"
		},
		{
			"bufferView":3,
			"componentType":5121,
			"count":1502,
			"type":"VEC4"
		},
		{
			"bufferView":4,
			"componentType":5126,
			"count":1502,
			"type":"VEC4"
		},
		{
			"bufferView":5,
			"componentType":5123,
			"count":5160,
			"type":"SCALAR"
		},
		{
			"bufferView":6,
			"componentType":5123,
			"count":942,
			"normalized":true,
			"type":"VEC4"
		},
		{
			"bufferView":7,
			"componentType":5126,
			"count":942,
			"max":[
				1.845451831817627,
				2.3805739879608154,
				0.7044785022735596
			],
			"min":[
				-1.8634129762649536,
				0.7933104038238525,
				-0.1955215036869049
			],
			"type":"VEC3"
		},
		{
			"bufferView":8,
			"componentType":5126,
			"count":942,
			"type":"VEC3"
		},
		{
			"bufferView":9,
			"componentType":5121,
			"count":942,
			"type":"VEC4"
		},
		{
			"bufferView":10,
			"componentType":5126,
			"count":942,
			"type":"VEC4"
		},
		{
			"bufferView":11,
			"componentType":5123,
			"count":3636,
			"type":"SCALAR"
		},
		{
			"bufferView":12,
			"componentType":5123,
			"count":3159,
			"normalized":true,
			"type":"VEC4"
		},
		{
			"bufferView":13,
			"componentType":5126,
			"count":3159,
			"max":[
				1.6497970819473267,
				1.2904274463653564,
				0.7015145421028137
			],
			"min":[
				-1.650202989578247,
				-0.5095726251602173,
				0.001514524221420288
			],
			"type":"VEC3"
		},
		{
			"bufferView":14,
			"componentType":5126,
			"count":3159,
			"type":"VEC3"
		},
		{
			"bufferView":15,
			"componentType":5121,
			"count":3159,
			"type":"VEC4"
		},
		{
			"bufferView":16,
			"componentType":5126,
			"count":3159,
			"type":"VEC4"
		},
		{
			"bufferView":17,
			"componentType":5123,
			"count":12132,
			"type":"SCALAR"
		},
		{
			"bufferView":18,
			"componentType":5123,
			"count":816,
			"normalized":true,
			"type":"VEC4"
		},
		{
			"bufferView":19,
			"componentType":5126,
			"count":816,
			"max":[
				0.5275015234947205,
				-1.8168864250183105,
				0.8015145063400269
			],
			"min":[
				-0.5576745271682739,
				-2.3168864250183105,
				-0.09848546981811523
			],
			"type":"VEC3"
		},
		{
			"bufferView":20,
			"componentType":5126,
			"count":816,
			"type":"VEC3"
		},
		{
			"bufferView":21,
			"componentType":5121,
			"count":816,
			"type":"VEC4"
		},
		{
			"bufferView":22,
			"componentType":5126,
			"count":816,
			"type":"VEC4"
		},
		{
			"bufferView":23,
			"componentType":5123,
			"count":3168,
			"type":"SCALAR"
		},
		{
			"bufferView":24,
			"componentType":5126,
			"count":19,
			"type":"MAT4"
		}
	],
	"bufferViews":[
		{
			"buffer":0,
			"byteLength":12016,
			"byteOffset":0,
			"target":34962
		},
		{
			"buffer":0,
			"byteLength":18024,
			"byteOffset":12016,
			"target":34962
		},
		{
			"buffer":0,
			"byteLength":18024,
			"byteOffset":30040,
			"target":34962
		},
		{
			"buffer":0,
			"byteLength":6008,
			"byteOffset":48064,
			"target":34962
		},
		{
			"buffer":0,
			"byteLength":24032,
			"byteOffset":54072,
			"target":34962
		},
		{
			"buffer":0,
			"byteLength":10320,
			"byteOffset":78104,
			"target":34963
		},
		{
			"buffer":0,
			"byteLength":7536,
			"byteOffset":88424,
			"target":34962
		},
		{
			"buffer":0,
			"byteLength":11304,
			"byteOffset":95960,
			"target":34962
		},
		{
			"buffer":0,
			"byteLength":11304,
			"byteOffset":107264,
			"target":34962
		},
		{
			"buffer":0,
			"byteLength":3768,
			"byteOffset":118568,
			"target":34962
		},
		{
			"buffer":0,
			"byteLength":15072,
			"byteOffset":122336,
			"target":34962
		},
		{
			"buffer":0,
			"byteLength":7272,
			"byteOffset":137408,
			"target":34963
		},
		{
			"buffer":0,
			"byteLength":25272,
			"byteOffset":144680,
			"target":34962
		},
		{
			"buffer":0,
			"byteLength":37908,
			"byteOffset":169952,
			"target":34962
		},
		{
			"buffer":0,
			"byteLength":37908,
			"byteOffset":207860,
			"target":34962
		},
		{
			"buffer":0,
			"byteLength":12636,
			"byteOffset":245768,
			"target":34962
		},
		{
			"buffer":0,
			"byteLength":50544,
			"byteOffset":258404,
			"target":34962
		},
		{
			"buffer":0,
			"byteLength":24264,
			"byteOffset":308948,
			"target":34963
		},
		{
			"buffer":0,
			"byteLength":6528,
			"byteOffset":333212,
			"target":34962
		},
		{
			"buffer":0,
			"byteLength":9792,
			"byteOffset":339740,
			"target":34962
		},
		{
			"buffer":0,
			"byteLength":9792,
			"byteOffset":349532,
			"target":34962
		},
		{
			"buffer":0,
			"byteLength":3264,
			"byteOffset":359324,
			"target":34962
		},
		{
			"buffer":0,
			"byteLength":13056,
			"byteOffset":362588,
			"target":34962
		},
		{
			"buffer":0,
			"byteLength":6336,
			"byteOffset":375644,
			"target":34963
		},
		{
			"buffer":0,
			"byteLength":1216,
			"byteOffset":381980
		}
	],
	"buffers":[
		{
			"byteLength":383196,
			"uri":"data:application/octet-stream;base64,"
		}
	]
}
