# MagicaVoxel @ Ephtracy

# group
o 

# material
mtllib main_body.mtl
usemtl palette

# normals
vn -1 0 0
vn 1 0 0
vn 0 0 1
vn 0 0 -1
vn 0 -1 0
vn 0 1 0

# texcoords
vt 0.978516 0.5
vt 0.982422 0.5
vt 0.986328 0.5

# verts
v -0.2 -0.1 -0.3
v -0.2 -0.1 -1.4
v -0.2 0 -0.4
v -0.2 0 -0.8
v -0.2 0.1 -0.4
v -0.2 0.1 -0.8
v -0.2 0.1 -1.3
v -0.2 0.1 -1.4
v -0.2 0.2 -0.2
v -0.2 0.2 -0.3
v -0.2 0.2 -1.2
v -0.2 0.2 -1.3
v -0.2 0.3 -0.2
v -0.2 0.3 -0.3
v -0.2 0.3 -0.5
v -0.2 0.3 -1.2
v -0.2 0.4 -0.3
v -0.2 0.4 -0.5
v -0.1 -0.3 -0.9
v -0.1 -0.3 -1.1
v -0.1 -0.2 -0.8
v -0.1 -0.2 -0.9
v -0.1 -0.2 -1
v -0.1 -0.2 -1.1
v -0.1 -0.2 -1.2
v -0.1 -0.1 -0.8
v -0.1 -0.1 -0.9
v -0.1 -0.1 -1
v -0.1 -0.1 -1.2
v -0.1 0 1.3
v -0.1 0 -0.3
v -0.1 0.1 1.3
v -0.1 0.1 1.2
v -0.1 0.1 1.1
v -0.1 0.1 0.8
v -0.1 0.1 0.6
v -0.1 0.1 -0.3
v -0.1 0.2 0.8
v -0.1 0.2 0.7
v -0.1 0.2 0.6
v -0.1 0.2 0.3
v -0.1 0.3 0.7
v -0.1 0.3 0.3
v -0.1 0.4 1.2
v -0.1 0.4 1.1
v 0 -0.1 -0.4
v 0 -0.1 -0.8
v 0 0 -0.8
v 0 0 -1
v 0 0 -1.1
v 0 0 -1.3
v 0 0.1 -0.8
v 0 0.1 -1
v 0 0.1 -1.1
v 0 0.1 -1.2
v 0 0.1 -1.3
v 0 0.2 -0.4
v 0 0.2 -0.8
v 0 0.3 -0.3
v 0 0.3 -0.5
v 0 0.4 -0.3
v 0 0.4 -0.5
v -0.1 -0.1 -0.4
v -0.1 -0.1 -0.8
v -0.1 0 -0.4
v -0.1 0 -0.8
v -0.1 0 -1.3
v -0.1 0.1 -0.4
v -0.1 0.1 -0.8
v -0.1 0.1 -1.2
v -0.1 0.1 -1.3
v -0.1 0.2 -0.4
v -0.1 0.2 -0.8
v -0.1 0.3 -0.3
v -0.1 0.3 -0.5
v -0.1 0.4 -0.3
v -0.1 0.4 -0.5
v 0 -0.3 -0.9
v 0 -0.3 -1.1
v 0 -0.2 -0.8
v 0 -0.2 -0.9
v 0 -0.2 -1
v 0 -0.2 -1.1
v 0 -0.2 -1.2
v 0 -0.1 -0.8
v 0 -0.1 -0.9
v 0 -0.1 -1
v 0 -0.1 -1.2
v 0 0 1.3
v 0 0 -0.3
v 0 0.1 1.3
v 0 0.1 1.2
v 0 0.1 1.1
v 0 0.1 0.8
v 0 0.1 0.6
v 0 0.1 -0.3
v 0 0.2 0.8
v 0 0.2 0.7
v 0 0.2 0.6
v 0 0.2 0.3
v 0 0.3 0.7
v 0 0.3 0.3
v 0 0.4 1.2
v 0 0.4 1.1
v 0.1 -0.1 -0.3
v 0.1 -0.1 -1.4
v 0.1 0 -0.7
v 0.1 0 -1
v 0.1 0 -1.1
v 0.1 0.1 -0.6
v 0.1 0.1 -0.7
v 0.1 0.1 -0.8
v 0.1 0.1 -0.9
v 0.1 0.1 -1
v 0.1 0.1 -1.1
v 0.1 0.1 -1.3
v 0.1 0.1 -1.4
v 0.1 0.2 -0.2
v 0.1 0.2 -0.3
v 0.1 0.2 -0.6
v 0.1 0.2 -0.7
v 0.1 0.2 -0.8
v 0.1 0.2 -0.9
v 0.1 0.2 -1
v 0.1 0.2 -1.1
v 0.1 0.2 -1.2
v 0.1 0.2 -1.3
v 0.1 0.3 -0.2
v 0.1 0.3 -0.3
v 0.1 0.3 -0.5
v 0.1 0.3 -1.2
v 0.1 0.4 -0.3
v 0.1 0.4 -0.5
v 0.2 0 -0.7
v 0.2 0 -1
v 0.2 0.1 -0.6
v 0.2 0.1 -0.7
v 0.2 0.1 -0.8
v 0.2 0.1 -0.9
v 0.2 0.1 -1
v 0.2 0.1 -1.1
v 0.2 0.2 -0.6
v 0.2 0.2 -0.7
v 0.2 0.2 -0.8
v 0.2 0.2 -0.9
v 0.2 0.2 -1
v 0.2 0.2 -1.1
v -0.1 0 1.3
v -0.1 0.1 1.3
v 0 0 1.3
v 0 0.1 1.3
v -0.1 0.1 1.2
v -0.1 0.4 1.2
v 0 0.1 1.2
v 0 0.4 1.2
v -0.1 0.1 0.8
v -0.1 0.2 0.8
v 0 0.1 0.8
v 0 0.2 0.8
v -0.1 0.2 0.7
v -0.1 0.3 0.7
v 0 0.2 0.7
v 0 0.3 0.7
v -0.2 0.2 -0.2
v -0.2 0.3 -0.2
v 0.1 0.2 -0.2
v 0.1 0.3 -0.2
v -0.2 -0.1 -0.3
v -0.2 0.2 -0.3
v -0.2 0.3 -0.3
v -0.2 0.4 -0.3
v -0.1 0 -0.3
v -0.1 0.1 -0.3
v -0.1 0.3 -0.3
v -0.1 0.4 -0.3
v 0 0 -0.3
v 0 0.1 -0.3
v 0 0.3 -0.3
v 0 0.4 -0.3
v 0.1 -0.1 -0.3
v 0.1 0.2 -0.3
v 0.1 0.3 -0.3
v 0.1 0.4 -0.3
v 0.1 0.1 -0.6
v 0.1 0.2 -0.6
v 0.2 0.1 -0.6
v 0.2 0.2 -0.6
v 0.1 0 -0.7
v 0.1 0.1 -0.7
v 0.2 0 -0.7
v 0.2 0.1 -0.7
v -0.2 0 -0.8
v -0.2 0.1 -0.8
v -0.1 -0.2 -0.8
v -0.1 -0.1 -0.8
v -0.1 0 -0.8
v -0.1 0.1 -0.8
v -0.1 0.2 -0.8
v 0 -0.2 -0.8
v 0 -0.1 -0.8
v 0 0 -0.8
v 0 0.1 -0.8
v 0 0.2 -0.8
v 0.1 0.1 -0.8
v 0.1 0.2 -0.8
v 0.2 0.1 -0.8
v 0.2 0.2 -0.8
v -0.1 -0.3 -0.9
v -0.1 -0.2 -0.9
v 0 -0.3 -0.9
v 0 -0.2 -0.9
v -0.1 -0.2 -1
v -0.1 -0.1 -1
v 0 -0.2 -1
v 0 -0.1 -1
v 0.1 0.1 -1
v 0.1 0.2 -1
v 0.2 0.1 -1
v 0.2 0.2 -1
v -0.1 0 -1.3
v -0.1 0.1 -1.3
v 0 0 -1.3
v 0 0.1 -1.3
v -0.1 0.1 1.1
v -0.1 0.4 1.1
v 0 0.1 1.1
v 0 0.4 1.1
v -0.1 0.1 0.6
v -0.1 0.2 0.6
v 0 0.1 0.6
v 0 0.2 0.6
v -0.1 0.2 0.3
v -0.1 0.3 0.3
v 0 0.2 0.3
v 0 0.3 0.3
v -0.2 0 -0.4
v -0.2 0.1 -0.4
v -0.1 -0.1 -0.4
v -0.1 0 -0.4
v -0.1 0.1 -0.4
v -0.1 0.2 -0.4
v 0 -0.1 -0.4
v 0 0.2 -0.4
v -0.2 0.3 -0.5
v -0.2 0.4 -0.5
v -0.1 0.3 -0.5
v -0.1 0.4 -0.5
v 0 0.3 -0.5
v 0 0.4 -0.5
v 0.1 0.3 -0.5
v 0.1 0.4 -0.5
v 0.1 0.1 -0.7
v 0.1 0.2 -0.7
v 0.2 0.1 -0.7
v 0.2 0.2 -0.7
v -0.1 -0.2 -0.9
v -0.1 -0.1 -0.9
v 0 -0.2 -0.9
v 0 -0.1 -0.9
v 0.1 0.1 -0.9
v 0.1 0.2 -0.9
v 0.2 0.1 -0.9
v 0.2 0.2 -0.9
v 0.1 0 -1
v 0.1 0.1 -1
v 0.2 0 -1
v 0.2 0.1 -1
v -0.1 -0.3 -1.1
v -0.1 -0.2 -1.1
v 0 -0.3 -1.1
v 0 -0.2 -1.1
v 0.1 0.1 -1.1
v 0.1 0.2 -1.1
v 0.2 0.1 -1.1
v 0.2 0.2 -1.1
v -0.2 0.2 -1.2
v -0.2 0.3 -1.2
v -0.1 -0.2 -1.2
v -0.1 -0.1 -1.2
v -0.1 0.2 -1.2
v 0 -0.2 -1.2
v 0 -0.1 -1.2
v 0 0.2 -1.2
v 0.1 0.2 -1.2
v 0.1 0.3 -1.2
v -0.2 0.1 -1.3
v -0.2 0.2 -1.3
v -0.1 0.1 -1.3
v -0.1 0.2 -1.3
v 0 0.1 -1.3
v 0 0.2 -1.3
v 0.1 0.1 -1.3
v 0.1 0.2 -1.3
v -0.2 -0.1 -1.4
v -0.2 0.1 -1.4
v 0.1 -0.1 -1.4
v 0.1 0.1 -1.4
v -0.1 -0.3 -0.9
v 0 -0.3 -0.9
v -0.1 -0.3 -1.1
v 0 -0.3 -1.1
v -0.1 -0.2 -0.8
v 0 -0.2 -0.8
v -0.1 -0.2 -0.9
v 0 -0.2 -0.9
v -0.1 -0.2 -1.1
v 0 -0.2 -1.1
v -0.1 -0.2 -1.2
v 0 -0.2 -1.2
v -0.2 -0.1 -0.3
v 0.1 -0.1 -0.3
v -0.1 -0.1 -0.4
v 0 -0.1 -0.4
v -0.1 -0.1 -0.8
v 0 -0.1 -0.8
v -0.1 -0.1 -0.9
v 0 -0.1 -0.9
v -0.1 -0.1 -1
v 0 -0.1 -1
v -0.1 -0.1 -1.2
v 0 -0.1 -1.2
v -0.2 -0.1 -1.4
v 0.1 -0.1 -1.4
v -0.1 0 1.3
v 0 0 1.3
v -0.1 0 -0.3
v 0 0 -0.3
v 0.1 0 -0.7
v 0.2 0 -0.7
v 0.1 0 -1
v 0.2 0 -1
v -0.2 0.1 -0.4
v -0.1 0.1 -0.4
v 0.1 0.1 -0.6
v 0.2 0.1 -0.6
v 0.1 0.1 -0.7
v 0.2 0.1 -0.7
v -0.2 0.1 -0.8
v -0.1 0.1 -0.8
v 0 0.1 -0.8
v 0 0.1 -1
v 0.1 0.1 -1
v 0.2 0.1 -1
v 0 0.1 -1.1
v 0.1 0.1 -1.1
v 0.2 0.1 -1.1
v -0.1 0.1 -1.2
v 0 0.1 -1.2
v -0.1 0.1 -1.3
v 0 0.1 -1.3
v -0.1 0.2 0.6
v 0 0.2 0.6
v -0.1 0.2 0.3
v 0 0.2 0.3
v -0.2 0.2 -0.2
v 0.1 0.2 -0.2
v -0.2 0.2 -0.3
v 0.1 0.2 -0.3
v -0.1 0.2 -0.4
v 0 0.2 -0.4
v -0.1 0.2 -0.8
v 0 0.2 -0.8
v -0.1 -0.2 -0.9
v 0 -0.2 -0.9
v -0.1 -0.2 -1
v 0 -0.2 -1
v -0.2 0 -0.4
v -0.1 0 -0.4
v -0.2 0 -0.8
v -0.1 0 -0.8
v 0 0 -0.8
v 0 0 -1
v 0 0 -1.1
v -0.1 0 -1.3
v 0 0 -1.3
v -0.1 0.1 1.3
v 0 0.1 1.3
v -0.1 0.1 1.2
v 0 0.1 1.2
v -0.1 0.1 1.1
v 0 0.1 1.1
v -0.1 0.1 0.8
v 0 0.1 0.8
v -0.1 0.1 0.6
v 0 0.1 0.6
v -0.1 0.1 -0.3
v 0 0.1 -0.3
v 0.1 0.1 -0.7
v 0.2 0.1 -0.7
v 0.1 0.1 -0.8
v 0.2 0.1 -0.8
v 0.1 0.1 -0.9
v 0.2 0.1 -0.9
v 0.1 0.1 -1
v 0.2 0.1 -1
v -0.2 0.1 -1.3
v -0.1 0.1 -1.3
v 0 0.1 -1.3
v 0.1 0.1 -1.3
v -0.2 0.1 -1.4
v 0.1 0.1 -1.4
v -0.1 0.2 0.8
v 0 0.2 0.8
v -0.1 0.2 0.7
v 0 0.2 0.7
v 0.1 0.2 -0.6
v 0.2 0.2 -0.6
v 0.1 0.2 -0.7
v 0.2 0.2 -0.7
v 0.1 0.2 -0.8
v 0.2 0.2 -0.8
v 0.1 0.2 -0.9
v 0.2 0.2 -0.9
v 0.1 0.2 -1
v 0.2 0.2 -1
v 0.1 0.2 -1.1
v 0.2 0.2 -1.1
v -0.2 0.2 -1.2
v -0.1 0.2 -1.2
v 0 0.2 -1.2
v 0.1 0.2 -1.2
v -0.2 0.2 -1.3
v -0.1 0.2 -1.3
v 0 0.2 -1.3
v 0.1 0.2 -1.3
v -0.1 0.3 0.7
v 0 0.3 0.7
v -0.1 0.3 0.3
v 0 0.3 0.3
v -0.2 0.3 -0.2
v 0.1 0.3 -0.2
v -0.2 0.3 -0.3
v -0.1 0.3 -0.3
v 0 0.3 -0.3
v 0.1 0.3 -0.3
v -0.2 0.3 -0.5
v -0.1 0.3 -0.5
v 0 0.3 -0.5
v 0.1 0.3 -0.5
v -0.2 0.3 -1.2
v 0.1 0.3 -1.2
v -0.1 0.4 1.2
v 0 0.4 1.2
v -0.1 0.4 1.1
v 0 0.4 1.1
v -0.2 0.4 -0.3
v -0.1 0.4 -0.3
v 0 0.4 -0.3
v 0.1 0.4 -0.3
v -0.2 0.4 -0.5
v -0.1 0.4 -0.5
v 0 0.4 -0.5
v 0.1 0.4 -0.5

# faces
f 3/2/1 2/2/1 1/2/1
f 4/2/1 2/2/1 3/2/1
f 5/2/1 3/2/1 1/2/1
f 6/2/1 2/2/1 4/2/1
f 7/2/1 2/2/1 6/2/1
f 8/2/1 2/2/1 7/2/1
f 10/2/1 5/2/1 1/2/1
f 10/2/1 6/2/1 5/2/1
f 10/2/1 7/2/1 6/2/1
f 11/2/1 7/2/1 10/2/1
f 12/2/1 7/2/1 11/2/1
f 13/2/1 10/2/1 9/2/1
f 13/2/1 11/2/1 10/2/1
f 14/2/1 11/2/1 13/2/1
f 15/2/1 11/2/1 14/2/1
f 16/2/1 11/2/1 15/2/1
f 17/2/1 15/2/1 14/2/1
f 18/2/1 15/2/1 17/2/1
f 22/2/1 20/2/1 19/2/1
f 23/2/1 20/2/1 22/2/1
f 24/2/1 20/2/1 23/2/1
f 26/2/1 22/2/1 21/2/1
f 27/2/1 22/2/1 26/2/1
f 28/2/1 25/2/1 24/2/1
f 28/2/1 24/2/1 23/2/1
f 29/2/1 25/2/1 28/2/1
f 32/1/1 31/1/1 30/1/1
f 33/1/1 31/1/1 32/1/1
f 34/1/1 31/1/1 33/1/1
f 35/1/1 31/1/1 34/1/1
f 36/1/1 31/1/1 35/1/1
f 37/1/1 31/1/1 36/1/1
f 38/1/1 36/1/1 35/1/1
f 39/1/1 36/1/1 38/1/1
f 40/1/1 36/1/1 39/1/1
f 42/1/1 41/1/1 40/1/1
f 42/1/1 40/1/1 39/1/1
f 43/1/1 41/1/1 42/1/1
f 44/1/1 34/1/1 33/1/1
f 45/1/1 34/1/1 44/1/1
f 48/2/1 47/2/1 46/2/1
f 52/2/1 48/2/1 46/2/1
f 52/2/1 49/2/1 48/2/1
f 53/3/1 50/3/1 49/3/1
f 53/2/1 49/2/1 52/2/1
f 54/2/1 51/2/1 50/2/1
f 54/3/1 50/3/1 53/3/1
f 55/2/1 51/2/1 54/2/1
f 56/2/1 51/2/1 55/2/1
f 57/2/1 52/2/1 46/2/1
f 58/2/1 52/2/1 57/2/1
f 61/2/1 60/2/1 59/2/1
f 62/2/1 60/2/1 61/2/1
f 63/2/2 64/2/2 65/2/2
f 65/2/2 64/2/2 66/2/2
f 66/2/2 67/2/2 69/2/2
f 69/2/2 67/2/2 70/2/2
f 70/2/2 67/2/2 71/2/2
f 68/2/2 69/2/2 72/2/2
f 72/2/2 69/2/2 73/2/2
f 74/2/2 75/2/2 76/2/2
f 76/2/2 75/2/2 77/2/2
f 78/2/2 79/2/2 81/2/2
f 81/2/2 79/2/2 82/2/2
f 82/2/2 79/2/2 83/2/2
f 80/2/2 81/2/2 85/2/2
f 85/2/2 81/2/2 86/2/2
f 83/2/2 84/2/2 87/2/2
f 82/2/2 83/2/2 87/2/2
f 87/2/2 84/2/2 88/2/2
f 89/1/2 90/1/2 91/1/2
f 91/1/2 90/1/2 92/1/2
f 92/1/2 90/1/2 93/1/2
f 93/1/2 90/1/2 94/1/2
f 94/1/2 90/1/2 95/1/2
f 95/1/2 90/1/2 96/1/2
f 94/1/2 95/1/2 97/1/2
f 97/1/2 95/1/2 98/1/2
f 98/1/2 95/1/2 99/1/2
f 99/1/2 100/1/2 101/1/2
f 98/1/2 99/1/2 101/1/2
f 101/1/2 100/1/2 102/1/2
f 92/1/2 93/1/2 103/1/2
f 103/1/2 93/1/2 104/1/2
f 105/2/2 106/2/2 107/2/2
f 107/2/2 106/2/2 108/2/2
f 108/2/2 106/2/2 109/2/2
f 105/2/2 107/2/2 110/2/2
f 110/2/2 107/2/2 111/2/2
f 108/3/2 109/3/2 114/3/2
f 109/2/2 106/2/2 115/2/2
f 114/3/2 109/3/2 115/3/2
f 115/2/2 106/2/2 116/2/2
f 116/2/2 106/2/2 117/2/2
f 105/2/2 110/2/2 119/2/2
f 119/2/2 110/2/2 120/2/2
f 111/2/2 112/2/2 121/2/2
f 121/2/2 112/2/2 122/2/2
f 113/3/2 114/3/2 123/3/2
f 123/3/2 114/3/2 124/3/2
f 115/2/2 116/2/2 125/2/2
f 125/2/2 116/2/2 126/2/2
f 126/2/2 116/2/2 127/2/2
f 121/2/2 122/2/2 128/2/2
f 119/2/2 120/2/2 128/2/2
f 125/2/2 126/2/2 128/2/2
f 124/2/2 125/2/2 128/2/2
f 123/2/2 124/2/2 128/2/2
f 122/2/2 123/2/2 128/2/2
f 118/2/2 119/2/2 128/2/2
f 120/2/2 121/2/2 128/2/2
f 128/2/2 126/2/2 129/2/2
f 129/2/2 126/2/2 130/2/2
f 130/2/2 126/2/2 131/2/2
f 129/2/2 130/2/2 132/2/2
f 132/2/2 130/2/2 133/2/2
f 134/3/2 135/3/2 137/3/2
f 137/3/2 135/3/2 138/3/2
f 138/3/2 135/3/2 139/3/2
f 139/3/2 135/3/2 140/3/2
f 136/3/2 137/3/2 142/3/2
f 142/3/2 137/3/2 143/3/2
f 138/3/2 139/3/2 144/3/2
f 144/3/2 139/3/2 145/3/2
f 140/3/2 141/3/2 146/3/2
f 146/3/2 141/3/2 147/3/2
f 150/1/3 149/1/3 148/1/3
f 151/1/3 149/1/3 150/1/3
f 154/1/3 153/1/3 152/1/3
f 155/1/3 153/1/3 154/1/3
f 158/1/3 157/1/3 156/1/3
f 159/1/3 157/1/3 158/1/3
f 162/1/3 161/1/3 160/1/3
f 163/1/3 161/1/3 162/1/3
f 166/2/3 165/2/3 164/2/3
f 167/2/3 165/2/3 166/2/3
f 172/2/3 169/2/3 168/2/3
f 173/2/3 169/2/3 172/2/3
f 174/2/3 171/2/3 170/2/3
f 175/2/3 171/2/3 174/2/3
f 176/2/3 172/2/3 168/2/3
f 177/2/3 169/2/3 173/2/3
f 180/2/3 176/2/3 168/2/3
f 180/2/3 177/2/3 176/2/3
f 181/2/3 169/2/3 177/2/3
f 181/2/3 177/2/3 180/2/3
f 182/2/3 179/2/3 178/2/3
f 183/2/3 179/2/3 182/2/3
f 186/3/3 185/3/3 184/3/3
f 187/3/3 185/3/3 186/3/3
f 190/3/3 189/3/3 188/3/3
f 191/3/3 189/3/3 190/3/3
f 196/2/3 193/2/3 192/2/3
f 197/2/3 193/2/3 196/2/3
f 199/2/3 195/2/3 194/2/3
f 199/2/3 196/2/3 195/2/3
f 200/2/3 196/2/3 199/2/3
f 201/2/3 196/2/3 200/2/3
f 202/1/3 198/1/3 197/1/3
f 203/1/3 198/1/3 202/1/3
f 206/3/3 205/3/3 204/3/3
f 207/3/3 205/3/3 206/3/3
f 210/2/3 209/2/3 208/2/3
f 211/2/3 209/2/3 210/2/3
f 214/2/3 213/2/3 212/2/3
f 215/2/3 213/2/3 214/2/3
f 218/3/3 217/3/3 216/3/3
f 219/3/3 217/3/3 218/3/3
f 222/2/3 221/2/3 220/2/3
f 223/2/3 221/2/3 222/2/3
f 224/1/4 225/1/4 226/1/4
f 226/1/4 225/1/4 227/1/4
f 228/1/4 229/1/4 230/1/4
f 230/1/4 229/1/4 231/1/4
f 232/1/4 233/1/4 234/1/4
f 234/1/4 233/1/4 235/1/4
f 236/2/4 237/2/4 239/2/4
f 239/2/4 237/2/4 240/2/4
f 238/2/4 239/2/4 242/2/4
f 240/2/4 241/2/4 242/2/4
f 239/2/4 240/2/4 242/2/4
f 242/2/4 241/2/4 243/2/4
f 244/2/4 245/2/4 246/2/4
f 246/2/4 245/2/4 247/2/4
f 248/2/4 249/2/4 250/2/4
f 250/2/4 249/2/4 251/2/4
f 252/3/4 253/3/4 254/3/4
f 254/3/4 253/3/4 255/3/4
f 256/2/4 257/2/4 258/2/4
f 258/2/4 257/2/4 259/2/4
f 260/3/4 261/3/4 262/3/4
f 262/3/4 261/3/4 263/3/4
f 264/3/4 265/3/4 266/3/4
f 266/3/4 265/3/4 267/3/4
f 268/2/4 269/2/4 270/2/4
f 270/2/4 269/2/4 271/2/4
f 272/3/4 273/3/4 274/3/4
f 274/3/4 273/3/4 275/3/4
f 276/2/4 277/2/4 280/2/4
f 278/2/4 279/2/4 281/2/4
f 281/2/4 279/2/4 282/2/4
f 280/2/4 277/2/4 283/2/4
f 283/2/4 277/2/4 284/2/4
f 284/2/4 277/2/4 285/2/4
f 286/2/4 287/2/4 288/2/4
f 288/2/4 287/2/4 289/2/4
f 288/3/4 289/3/4 290/3/4
f 290/3/4 289/3/4 291/3/4
f 290/2/4 291/2/4 292/2/4
f 292/2/4 291/2/4 293/2/4
f 294/2/4 295/2/4 296/2/4
f 296/2/4 295/2/4 297/2/4
f 300/2/5 299/2/5 298/2/5
f 301/2/5 299/2/5 300/2/5
f 304/2/5 303/2/5 302/2/5
f 305/2/5 303/2/5 304/2/5
f 308/2/5 307/2/5 306/2/5
f 309/2/5 307/2/5 308/2/5
f 312/2/5 311/2/5 310/2/5
f 313/2/5 311/2/5 312/2/5
f 314/2/5 312/2/5 310/2/5
f 315/2/5 311/2/5 313/2/5
f 316/2/5 314/2/5 310/2/5
f 317/2/5 311/2/5 315/2/5
f 318/2/5 316/2/5 310/2/5
f 318/2/5 317/2/5 316/2/5
f 319/2/5 311/2/5 317/2/5
f 319/2/5 317/2/5 318/2/5
f 320/2/5 318/2/5 310/2/5
f 321/2/5 311/2/5 319/2/5
f 322/2/5 320/2/5 310/2/5
f 322/2/5 321/2/5 320/2/5
f 323/2/5 311/2/5 321/2/5
f 323/2/5 321/2/5 322/2/5
f 326/1/5 325/1/5 324/1/5
f 327/1/5 325/1/5 326/1/5
f 330/3/5 329/3/5 328/3/5
f 331/3/5 329/3/5 330/3/5
f 336/3/5 335/3/5 334/3/5
f 337/3/5 335/3/5 336/3/5
f 338/2/5 333/2/5 332/2/5
f 339/2/5 333/2/5 338/2/5
f 341/1/5 340/1/5 339/1/5
f 344/1/5 341/1/5 339/1/5
f 345/3/5 343/3/5 342/3/5
f 346/3/5 343/3/5 345/3/5
f 347/1/5 344/1/5 339/1/5
f 348/1/5 344/1/5 347/1/5
f 349/3/5 348/3/5 347/3/5
f 350/3/5 348/3/5 349/3/5
f 353/1/5 352/1/5 351/1/5
f 354/1/5 352/1/5 353/1/5
f 357/2/5 356/2/5 355/2/5
f 358/2/5 356/2/5 357/2/5
f 361/2/5 360/2/5 359/2/5
f 362/2/5 360/2/5 361/2/5
f 363/2/6 364/2/6 365/2/6
f 365/2/6 364/2/6 366/2/6
f 367/2/6 368/2/6 369/2/6
f 369/2/6 368/2/6 370/2/6
f 370/2/6 371/2/6 372/2/6
f 370/2/6 372/2/6 373/2/6
f 370/2/6 373/2/6 374/2/6
f 374/2/6 373/2/6 375/2/6
f 376/1/6 377/1/6 378/1/6
f 378/1/6 377/1/6 379/1/6
f 380/1/6 381/1/6 382/1/6
f 382/1/6 381/1/6 383/1/6
f 384/1/6 385/1/6 386/1/6
f 386/1/6 385/1/6 387/1/6
f 388/3/6 389/3/6 390/3/6
f 390/3/6 389/3/6 391/3/6
f 392/3/6 393/3/6 394/3/6
f 394/3/6 393/3/6 395/3/6
f 396/2/6 397/2/6 400/2/6
f 398/2/6 399/2/6 400/2/6
f 397/2/6 398/2/6 400/2/6
f 400/2/6 399/2/6 401/2/6
f 402/1/6 403/1/6 404/1/6
f 404/1/6 403/1/6 405/1/6
f 406/3/6 407/3/6 408/3/6
f 408/3/6 407/3/6 409/3/6
f 410/3/6 411/3/6 412/3/6
f 412/3/6 411/3/6 413/3/6
f 414/3/6 415/3/6 416/3/6
f 416/3/6 415/3/6 417/3/6
f 418/2/6 419/2/6 422/2/6
f 419/3/6 420/3/6 423/3/6
f 422/2/6 419/2/6 423/2/6
f 420/2/6 421/2/6 424/2/6
f 423/3/6 420/3/6 424/3/6
f 424/2/6 421/2/6 425/2/6
f 426/1/6 427/1/6 428/1/6
f 428/1/6 427/1/6 429/1/6
f 430/2/6 431/2/6 432/2/6
f 432/2/6 431/2/6 433/2/6
f 433/2/6 431/2/6 434/2/6
f 434/2/6 431/2/6 435/2/6
f 433/2/6 434/2/6 437/2/6
f 437/2/6 434/2/6 438/2/6
f 436/2/6 437/2/6 440/2/6
f 438/2/6 439/2/6 440/2/6
f 437/2/6 438/2/6 440/2/6
f 440/2/6 439/2/6 441/2/6
f 442/1/6 443/1/6 444/1/6
f 444/1/6 443/1/6 445/1/6
f 446/2/6 447/2/6 450/2/6
f 450/2/6 447/2/6 451/2/6
f 448/2/6 449/2/6 452/2/6
f 452/2/6 449/2/6 453/2/6
